<?xml version="1.0" encoding="utf-8"?>
<!-- Generator: Adobe Illustrator 17.0.0, SVG Export Plug-In . SVG Version: 6.00 Build 0)  -->
<!DOCTYPE svg PUBLIC "-//W3C//DTD SVG 1.1//EN" "http://www.w3.org/Graphics/SVG/1.1/DTD/svg11.dtd">
<svg version="1.1" id="Layer_1" xmlns="http://www.w3.org/2000/svg" xmlns:xlink="http://www.w3.org/1999/xlink" x="0px" y="0px"
	 width="1000px" height="1000px" viewBox="0 0 1000 1000" enable-background="new 0 0 1000 1000" xml:space="preserve">
<g>
	
		<linearGradient id="SVGID_1_" gradientUnits="userSpaceOnUse" x1="122.6784" y1="303.9616" x2="234.6724" y2="326.8459" gradientTransform="matrix(0.981 -0.194 0.194 0.981 -25.6629 198.9213)">
		<stop  offset="0" style="stop-color:#15C1FF"/>
		<stop  offset="1" style="stop-color:#0049E9"/>
	</linearGradient>
	<path fill="url(#SVGID_1_)" d="M190.2,489.987c15.634,13.186,26.041,22.685,28.221,33.395
		c2.324-54.823,30.217-81.563,62.521-93.975c-22.521-5.425-39.572-6.908-51.42-2.947c-1.409,0.559-2.805,1.124-4.28,1.644
		c-4.648,1.641-9.383,3.055-14.149,4.323c-3.841,1.022-7.701,1.964-11.571,2.729c-15.351,3.036-30.621,3.981-45.274,2.897
		c-3.546-0.262-7.046-0.669-10.511-1.168c1.584,3.249,3.333,6.316,5.166,9.284C160.371,464.739,176.178,478.161,190.2,489.987z"/>
	
		<linearGradient id="SVGID_2_" gradientUnits="userSpaceOnUse" x1="70.9089" y1="244.6028" x2="166.6481" y2="362.4753" gradientTransform="matrix(0.981 -0.194 0.194 0.981 -25.6629 198.9213)">
		<stop  offset="0" style="stop-color:#B3A9FF"/>
		<stop  offset="1" style="stop-color:#3300BF"/>
	</linearGradient>
	<path fill="url(#SVGID_2_)" d="M218.459,523.382c-2.181-10.711-12.587-20.209-28.221-33.395
		c-14.022-11.826-29.828-25.248-41.298-43.817c-1.833-2.968-3.582-6.035-5.166-9.284c-14.986-2.157-29.168-6.491-41.913-12.987
		l-6.668-3.397l0.4,7.474c1.252,23.358,27.219,65.764,66.66,81.761c29.198,9.36,49.129,16.946,52.492,23.916
		c0.509,1.05,1.364,2.998,0.359,5.648c-1.291,3.315,2.119-2.048,3.157-6.772C218.231,529.376,218.332,526.365,218.459,523.382z"/>
	
		<linearGradient id="SVGID_3_" gradientUnits="userSpaceOnUse" x1="116.5945" y1="238.3929" x2="206.2281" y2="238.3929" gradientTransform="matrix(0.981 -0.194 0.194 0.981 -25.6629 198.9213)">
		<stop  offset="0" style="stop-color:#2BF497"/>
		<stop  offset="1" style="stop-color:#08B4E5"/>
	</linearGradient>
	<path fill="url(#SVGID_3_)" d="M199.559,435.156c3.87-0.765,7.73-1.707,11.571-2.729c4.766-1.267,9.501-2.682,14.149-4.323
		c1.475-0.521,2.872-1.086,4.28-1.644c-26.681-2.378-57.101-11.129-89.063-45.924l-7.176-7.813l-0.313,10.603
		c-0.644,21.677,3.705,39.077,10.766,53.559c3.466,0.499,6.966,0.906,10.511,1.168C168.938,439.137,184.208,438.192,199.559,435.156
		z"/>
	
		<linearGradient id="SVGID_4_" gradientUnits="userSpaceOnUse" x1="261.8258" y1="324.8973" x2="285.454" y2="368.1789" gradientTransform="matrix(0.981 -0.194 0.194 0.981 -25.6629 198.9213)">
		<stop  offset="0" style="stop-color:#94FFF7"/>
		<stop  offset="0.6882" style="stop-color:#0085BF"/>
		<stop  offset="1" style="stop-color:#0056BF"/>
	</linearGradient>
	<polygon fill="url(#SVGID_4_)" points="310.007,485.788 310.017,485.788 310.008,485.788 	"/>
	
		<linearGradient id="SVGID_5_" gradientUnits="userSpaceOnUse" x1="129.8277" y1="667.1993" x2="270.6441" y2="501.9609" gradientTransform="matrix(0.9991 0.0433 -0.0433 0.9991 73.3535 -76.91)">
		<stop  offset="0" style="stop-color:#FF55EC"/>
		<stop  offset="1" style="stop-color:#0049E9"/>
	</linearGradient>
	<path fill="url(#SVGID_5_)" d="M310.007,485.788L310.007,485.788l0.771,0.016c4.612-44.753-22.738-54.907-29.799-56.397
		c-32.303,12.412-60.196,39.152-62.521,93.975c-0.334,15.776-11.011,43.219-67.138,103.894c10.073-2.065,13.585-3.956,13.585-3.956
		c39.618-11.534,127.047-58.985,144.44-132.055c0.448-1.882,0.967-3.608,1.462-5.387l0.017-0.052l-0.808-0.038L310.007,485.788z"/>
	
		<linearGradient id="SVGID_6_" gradientUnits="userSpaceOnUse" x1="231.1927" y1="272.7649" x2="360.6978" y2="272.7649" gradientTransform="matrix(0.981 -0.194 0.194 0.981 -25.6629 198.9213)">
		<stop  offset="0" style="stop-color:#3FFFFC"/>
		<stop  offset="1" style="stop-color:#014FFF"/>
	</linearGradient>
	<path fill="url(#SVGID_6_)" d="M380.771,417.016c-0.784-1.578-19.757-38.611-60.158-35.468c-3.117,0.243-6.217,0.665-9.21,1.257
		c-17.703,3.501-30.674,12.541-44.399,22.111c-11.05,7.7-22.484,15.616-37.445,21.544c11.847-3.961,28.898-2.478,51.42,2.947
		c46.925-18.03,102.998-5.949,102.998-5.949L380.771,417.016z"/>
	<polygon fill="#03C0FF" points="310.017,485.788 310.778,485.804 310.008,485.788 	"/>
	
		<linearGradient id="SVGID_7_" gradientUnits="userSpaceOnUse" x1="211.6528" y1="232.391" x2="285.8532" y2="368.3094" gradientTransform="matrix(0.981 -0.194 0.194 0.981 -25.6629 198.9213)">
		<stop  offset="0" style="stop-color:#94FFF7"/>
		<stop  offset="0.6882" style="stop-color:#0085BF"/>
		<stop  offset="1" style="stop-color:#0056BF"/>
	</linearGradient>
	<polygon fill="url(#SVGID_7_)" points="310.017,485.788 310.778,485.804 310.008,485.788 	"/>
	<path fill="#0199FF" d="M280.964,429.398c0.288,0.061,0.62,0.142,0.972,0.233c0.643,0.164,1.265,0.35,1.867,0.559
		c9.615,3.215,31.088,15.543,26.96,55.605h0v0l-0.762-0.016l0.347,0.016l0.461,0.022c12.839-46.055,41.04-58.422,57.128-61.604
		c5.32-1.052,8.79-0.967,8.79-0.967l7.234,0.204C383.962,423.449,327.889,411.368,280.964,429.398z"/>
	
		<linearGradient id="SVGID_8_" gradientUnits="userSpaceOnUse" x1="201.1029" y1="493.2109" x2="201.1029" y2="493.2109" gradientTransform="matrix(0.9991 0.0433 -0.0433 0.9991 73.3535 -76.91)">
		<stop  offset="0" style="stop-color:#15C1FF"/>
		<stop  offset="1" style="stop-color:#0049E9"/>
	</linearGradient>
	<path fill="url(#SVGID_8_)" d="M252.93,424.539"/>
</g>
<rect fill="none" width="1000" height="1000"/>
<g>
	<path fill="#00023A" d="M904.808,536.121l-0.006-0.012c0-19.468-15.834-35.307-35.302-35.307h-26.597v12.542H869.5
		c12.334,0,22.351,9.875,22.698,22.128c-3.506-1.954-7.48-3.165-11.77-3.166v-0.001h-21.863v0.001
		c-13.438,0.001-24.374,10.938-24.374,24.379v7.496c0,13.44,10.936,24.377,24.374,24.379h21.863
		c13.089-0.001,23.719-10.394,24.272-23.349L904.808,536.121z M880.427,576.018h-21.863c-6.525-0.001-11.832-5.31-11.832-11.836
		v-7.496c0-6.527,5.307-11.835,11.832-11.837v-0.001h21.863v0.001c6.525,0.001,11.835,5.31,11.835,11.837h0.003v7.496h-0.003
		C892.262,570.709,886.953,576.017,880.427,576.018z"/>
	<rect x="806.341" y="473.723" fill="#00023A" width="12.5" height="12.5"/>
	<path fill="#00023A" d="M406.397,486.081v-0.002h20.271v-12.518h-20.271v0.002c-22.89,0-41.511,18.618-41.511,41.508v0.003v31.838
		h-0.002v0.003c0,22.89,18.621,41.508,41.511,41.508v0.001h20.271v-12.518h-20.271v-0.001c-15.987,0-28.993-13.007-28.993-28.99
		l0.002-0.002v-0.001v-31.838l0,0v-0.003C377.404,499.087,390.411,486.081,406.397,486.081z"/>
	<path fill="#00023A" d="M692.12,500.803c-19.402,0-35.192,15.785-35.192,35.188v17.086v63.362h12.5v-36.508
		c6.131,5.188,14.043,8.333,22.686,8.333c19.402,0,35.191-15.785,35.191-35.188v-17.086
		C727.305,516.588,711.522,500.803,692.12,500.803z M714.805,553.077c0,12.512-10.18,22.689-22.691,22.689
		c-12.512,0-22.686-10.177-22.686-22.689v-17.086c0-12.512,10.179-22.689,22.692-22.689c12.511,0,22.685,10.177,22.685,22.689
		V553.077z"/>
	<rect x="806.341" y="500.803" fill="#00023A" width="12.5" height="87.431"/>
	<rect x="533.753" y="473.572" fill="#00023A" width="12.499" height="114.841"/>
	<path fill="#00023A" d="M768.339,553.44v-40.222h20.408V500.72h-20.408v-26.997h-12.499v26.997h-12.647v12.499h12.647v40.222
		c0,19.402,15.783,35.189,35.185,35.189h0.003v-12.5h-0.003C778.512,576.129,768.339,565.952,768.339,553.44z"/>
	<path fill="#00023A" d="M513.199,536.047l-0.006-0.012c0-19.468-15.834-35.307-35.302-35.307h-26.597v12.542h26.597
		c12.334,0,22.351,9.875,22.697,22.128c-3.506-1.954-7.48-3.165-11.77-3.166v-0.001h-21.863v0.001
		c-13.438,0.001-24.374,10.938-24.374,24.379v7.496c0,13.44,10.936,24.377,24.374,24.379h21.863
		c13.089-0.001,23.719-10.394,24.272-23.349L513.199,536.047z M488.818,575.943h-21.863c-6.525-0.001-11.832-5.31-11.832-11.836
		v-7.496c0-6.527,5.307-11.836,11.832-11.837v-0.001h21.863v0.001c6.525,0.001,11.835,5.31,11.835,11.837h0.003v7.496h-0.003
		C500.653,570.634,495.344,575.942,488.818,575.943z"/>
	<path fill="#00023A" d="M637.138,500.95h-12.5v52.126h0.001v0.001c0,12.512-10.174,22.689-22.686,22.689
		c-12.512,0-22.692-10.177-22.692-22.689l-0.001-0.001V500.95h-12.5v52.126l0.001,0.001c0,19.402,15.789,35.188,35.191,35.188
		c8.642,0,16.555-3.146,22.686-8.333v1.32c0,12.512-10.174,22.689-22.686,22.689h-26.507v12.499h26.507
		c19.402,0,35.185-15.786,35.185-35.188L637.138,500.95z"/>
</g>
</svg>
