<svg width="150" height="150" viewBox="0 0 150 150" fill="none" xmlns="http://www.w3.org/2000/svg">
<rect width="150" height="150" fill="white"/>
<path d="M26.2659 98.9266C28.4441 98.9266 29.8661 100.045 30.3099 101.887H28.74C28.4359 100.834 27.5564 100.16 26.2577 100.16C24.6549 100.16 23.4712 101.295 23.4712 103.441C23.4712 105.62 24.6549 106.754 26.2577 106.754C27.5564 106.754 28.4194 106.129 28.74 105.028H30.3099C29.8661 106.771 28.4359 107.988 26.2659 107.988C23.7672 107.988 21.9999 106.228 21.9999 103.441C21.9999 100.686 23.7754 98.9266 26.2659 98.9266Z" fill="#151920"/>
<path d="M31.8062 96H33.2611V100.333C33.8364 99.404 34.9214 98.9107 36.1543 98.9107C38.1024 98.9107 39.6559 100.16 39.6559 102.668V107.832H38.2175V102.882C38.2175 101.09 37.2393 100.177 35.768 100.177C34.2803 100.177 33.2611 101.106 33.2611 102.989V107.84H31.8062V96Z" fill="#151920"/>
<path d="M43.0016 107.84H41.5467V99.0748H43.0016V100.497C43.4948 99.5188 44.44 98.9104 45.8291 98.9104V100.415H45.4428C44.0537 100.415 42.9934 101.04 42.9934 103.071V107.84H43.0016Z" fill="#151920"/>
<path d="M50.7516 107.979C48.2693 107.979 46.387 106.22 46.387 103.433C46.387 100.662 48.335 98.9185 50.8173 98.9185C53.3161 98.9185 55.2477 100.662 55.2477 103.433C55.2395 106.22 53.2421 107.979 50.7516 107.979ZM50.7516 106.705C52.2722 106.705 53.7599 105.669 53.7599 103.441C53.7599 101.229 52.3051 100.193 50.8009 100.193C49.2638 100.193 47.8747 101.229 47.8747 103.441C47.8665 105.661 49.2309 106.705 50.7516 106.705Z" fill="#151920"/>
<path d="M63.1391 102.882C63.1391 101.089 62.1609 100.177 60.6896 100.177C59.2019 100.177 58.1827 101.106 58.1827 102.989V107.84H56.7278V99.0747H58.1827V100.325C58.758 99.4118 59.8101 98.9185 60.9937 98.9185C63.024 98.9185 64.5775 100.168 64.5775 102.676V107.84H63.1391V102.882Z" fill="#151920"/>
<path d="M70.4376 107.979C67.9553 107.979 66.073 106.22 66.073 103.433C66.073 100.662 68.021 98.9185 70.5034 98.9185C73.0021 98.9185 74.9337 100.662 74.9337 103.433C74.9255 106.22 72.9281 107.979 70.4376 107.979ZM70.4376 106.705C71.9582 106.705 73.446 105.669 73.446 103.441C73.446 101.229 71.9911 100.193 70.4869 100.193C68.9499 100.193 67.5607 101.229 67.5607 103.441C67.5525 105.661 68.917 106.705 70.4376 106.705Z" fill="#151920"/>
<path d="M79.6931 107.979C77.6464 107.979 76.2079 106.861 76.1093 105.258H77.6135C77.6957 106.105 78.4437 106.746 79.6766 106.746C80.8274 106.746 81.4685 106.171 81.4685 105.447C81.4685 103.498 76.2901 104.633 76.2901 101.369C76.2901 100.029 77.556 98.9185 79.504 98.9185C81.4356 98.9185 82.7179 99.9545 82.8165 101.673H81.3616C81.2959 100.793 80.6219 100.152 79.4547 100.152C78.3861 100.152 77.745 100.662 77.745 101.369C77.745 103.449 82.8329 102.314 82.8987 105.447C82.8905 106.894 81.6247 107.979 79.6931 107.979Z" fill="#151920"/>
<path d="M89.1126 98.9265C91.4634 98.9265 93.2717 100.686 93.2717 103.424C93.2717 106.146 91.4634 107.987 89.1126 107.987C87.5097 107.987 86.3754 107.124 85.8329 106.228V112H84.3781V99.0745H85.8329V100.694C86.359 99.757 87.5097 98.9265 89.1126 98.9265ZM88.8084 100.193C87.2221 100.193 85.8329 101.41 85.8329 103.441C85.8329 105.504 87.2221 106.705 88.8084 106.705C90.4277 106.705 91.7839 105.488 91.7839 103.424C91.7839 101.36 90.4195 100.193 88.8084 100.193Z" fill="#151920"/>
<path d="M94.7513 96H96.2062V100.333C96.7816 99.404 97.8666 98.9107 99.0995 98.9107C101.048 98.9107 102.601 100.16 102.601 102.668V107.832H101.163V102.882C101.163 101.09 100.185 100.177 98.7132 100.177C97.2254 100.177 96.2062 101.106 96.2062 102.989V107.84H94.7513V96Z" fill="#151920"/>
<path d="M108.429 107.979C105.93 107.979 104.097 106.22 104.097 103.433C104.097 100.662 105.872 98.9185 108.429 98.9185C110.969 98.9185 112.637 100.711 112.637 103.112C112.637 103.433 112.621 103.687 112.588 103.992H105.585C105.7 105.768 106.941 106.746 108.429 106.746C109.744 106.746 110.574 106.072 110.895 105.126H112.465C112.013 106.738 110.599 107.979 108.429 107.979ZM105.593 102.816H111.125C111.141 101.106 109.859 100.16 108.355 100.16C106.941 100.16 105.757 101.106 105.593 102.816Z" fill="#151920"/>
<path d="M115.572 107.84H114.117V99.0748H115.572V100.497C116.065 99.5188 117.01 98.9104 118.399 98.9104V100.415H118.013C116.624 100.415 115.563 101.04 115.563 103.071V107.84H115.572Z" fill="#151920"/>
<path d="M123.29 107.979C120.791 107.979 118.958 106.22 118.958 103.433C118.958 100.662 120.734 98.9185 123.29 98.9185C125.83 98.9185 127.499 100.711 127.499 103.112C127.499 103.433 127.482 103.687 127.449 103.992H120.446C120.561 105.768 121.802 106.746 123.29 106.746C124.605 106.746 125.436 106.072 125.756 105.126H127.326C126.874 106.738 125.468 107.979 123.29 107.979ZM120.463 102.816H125.994C126.011 101.106 124.729 100.16 123.224 100.16C121.802 100.16 120.619 101.106 120.463 102.816Z" fill="#151920"/>
<path d="M74.5684 85.1368C87.5848 85.1368 98.1368 74.5848 98.1368 61.5684C98.1368 48.5519 87.5848 38 74.5684 38C61.5519 38 51 48.5519 51 61.5684C51 74.5848 61.5519 85.1368 74.5684 85.1368Z" fill="#02AA69"/>
<path d="M74.6922 85.0143C87.6405 85.0143 98.1372 74.5176 98.1372 61.5693C98.1372 48.621 87.6405 38.1243 74.6922 38.1243C61.7439 38.1243 51.2472 48.621 51.2472 61.5693C51.2472 74.5176 61.7439 85.0143 74.6922 85.0143Z" fill="#02AB6A"/>
<path d="M74.8148 84.8899C87.6949 84.8899 98.1364 74.4485 98.1364 61.5684C98.1364 48.6882 87.6949 38.2468 74.8148 38.2468C61.9346 38.2468 51.4932 48.6882 51.4932 61.5684C51.4932 74.4485 61.9346 84.8899 74.8148 84.8899Z" fill="#02AC6A"/>
<path d="M74.9389 84.767C87.7509 84.767 98.1371 74.3808 98.1371 61.5688C98.1371 48.7568 87.7509 38.3706 74.9389 38.3706C62.1268 38.3706 51.7407 48.7568 51.7407 61.5688C51.7407 74.3808 62.1268 84.767 74.9389 84.767Z" fill="#02AD6B"/>
<path d="M75.0625 84.767C87.8745 84.767 98.2607 74.3808 98.2607 61.5688C98.2607 48.7568 87.8745 38.3706 75.0625 38.3706C62.2505 38.3706 51.8643 48.7568 51.8643 61.5688C51.8643 74.3808 62.2505 84.767 75.0625 84.767Z" fill="#02AE6C"/>
<path d="M75.1858 84.643C87.9296 84.643 98.2606 74.312 98.2606 61.5681C98.2606 48.8243 87.9296 38.4933 75.1858 38.4933C62.4419 38.4933 52.111 48.8243 52.111 61.5681C52.111 74.312 62.4419 84.643 75.1858 84.643Z" fill="#02AF6D"/>
<path d="M75.1851 84.5198C87.8608 84.5198 98.1365 74.2441 98.1365 61.5684C98.1365 48.8927 87.8608 38.617 75.1851 38.617C62.5094 38.617 52.2337 48.8927 52.2337 61.5684C52.2337 74.2441 62.5094 84.5198 75.1851 84.5198Z" fill="#02B06D"/>
<path d="M75.3092 84.3968C87.9167 84.3968 98.1372 74.1763 98.1372 61.5688C98.1372 48.9612 87.9167 38.7408 75.3092 38.7408C62.7016 38.7408 52.4811 48.9612 52.4811 61.5688C52.4811 74.1763 62.7016 84.3968 75.3092 84.3968Z" fill="#02B16E"/>
<path d="M75.4323 84.2738C87.9718 84.2738 98.137 74.1086 98.137 61.5691C98.137 49.0297 87.9718 38.8645 75.4323 38.8645C62.8929 38.8645 52.7277 49.0297 52.7277 61.5691C52.7277 74.1086 62.8929 84.2738 75.4323 84.2738Z" fill="#02B26F"/>
<path d="M75.5554 84.1498C88.0267 84.1498 98.1367 74.0398 98.1367 61.5686C98.1367 49.0973 88.0267 38.9873 75.5554 38.9873C63.0842 38.9873 52.9742 49.0973 52.9742 61.5686C52.9742 74.0398 63.0842 84.1498 75.5554 84.1498Z" fill="#02B36F"/>
<path d="M75.6796 84.0268C88.0827 84.0268 98.1374 73.972 98.1374 61.5689C98.1374 49.1658 88.0827 39.1111 75.6796 39.1111C63.2765 39.1111 53.2217 49.1658 53.2217 61.5689C53.2217 73.972 63.2765 84.0268 75.6796 84.0268Z" fill="#02B470"/>
<path d="M75.8027 83.9029C88.1376 83.9029 98.1371 73.9034 98.1371 61.5684C98.1371 49.2335 88.1376 39.234 75.8027 39.234C63.4677 39.234 53.4682 49.2335 53.4682 61.5684C53.4682 73.9034 63.4677 83.9029 75.8027 83.9029Z" fill="#02B571"/>
<path d="M75.9256 83.9029C88.2605 83.9029 98.26 73.9034 98.26 61.5684C98.26 49.2335 88.2605 39.234 75.9256 39.234C63.5906 39.234 53.5911 49.2335 53.5911 61.5684C53.5911 73.9034 63.5906 83.9029 75.9256 83.9029Z" fill="#02B672"/>
<path d="M76.0496 83.7797C88.3164 83.7797 98.2606 73.8354 98.2606 61.5686C98.2606 49.3018 88.3164 39.3576 76.0496 39.3576C63.7828 39.3576 53.8385 49.3018 53.8385 61.5686C53.8385 73.8354 63.7828 83.7797 76.0496 83.7797Z" fill="#02B772"/>
<path d="M76.0489 83.6566C88.2476 83.6566 98.1366 73.7677 98.1366 61.569C98.1366 49.3703 88.2476 39.4813 76.0489 39.4813C63.8502 39.4813 53.9613 49.3703 53.9613 61.569C53.9613 73.7677 63.8502 83.6566 76.0489 83.6566Z" fill="#01B873"/>
<path d="M76.1731 83.5326C88.3036 83.5326 98.1373 73.6989 98.1373 61.5684C98.1373 49.4379 88.3036 39.6041 76.1731 39.6041C64.0426 39.6041 54.2088 49.4379 54.2088 61.5684C54.2088 73.6989 64.0426 83.5326 76.1731 83.5326Z" fill="#01B974"/>
<path d="M76.2962 83.4096C88.3586 83.4096 98.1371 73.6311 98.1371 61.5687C98.1371 49.5064 88.3586 39.7279 76.2962 39.7279C64.2338 39.7279 54.4554 49.5064 54.4554 61.5687C54.4554 73.6311 64.2338 83.4096 76.2962 83.4096Z" fill="#01BA74"/>
<path d="M76.4192 83.2855C88.4135 83.2855 98.1367 73.5623 98.1367 61.5681C98.1367 49.5738 88.4135 39.8506 76.4192 39.8506C64.425 39.8506 54.7018 49.5738 54.7018 61.5681C54.7018 73.5623 64.425 83.2855 76.4192 83.2855Z" fill="#01BB75"/>
<path d="M76.5424 83.1635C88.4685 83.1635 98.1365 73.4955 98.1365 61.5694C98.1365 49.6433 88.4685 39.9753 76.5424 39.9753C64.6164 39.9753 54.9484 49.6433 54.9484 61.5694C54.9484 73.4955 64.6164 83.1635 76.5424 83.1635Z" fill="#01BC76"/>
<path d="M76.6666 83.0395C88.5245 83.0395 98.1372 73.4267 98.1372 61.5688C98.1372 49.7109 88.5245 40.0981 76.6666 40.0981C64.8086 40.0981 55.1959 49.7109 55.1959 61.5688C55.1959 73.4267 64.8086 83.0395 76.6666 83.0395Z" fill="#01BD77"/>
<path d="M76.7902 83.0395C88.6482 83.0395 98.2609 73.4267 98.2609 61.5688C98.2609 49.7109 88.6482 40.0981 76.7902 40.0981C64.9323 40.0981 55.3196 49.7109 55.3196 61.5688C55.3196 73.4267 64.9323 83.0395 76.7902 83.0395Z" fill="#01BE77"/>
<path d="M76.9134 82.9154C88.7032 82.9154 98.2607 73.3579 98.2607 61.5681C98.2607 49.7784 88.7032 40.2209 76.9134 40.2209C65.1237 40.2209 55.5662 49.7784 55.5662 61.5681C55.5662 73.3579 65.1237 82.9154 76.9134 82.9154Z" fill="#01BF78"/>
<path d="M76.9129 82.7925C88.6345 82.7925 98.1367 73.2902 98.1367 61.5686C98.1367 49.847 88.6345 40.3447 76.9129 40.3447C65.1912 40.3447 55.689 49.847 55.689 61.5686C55.689 73.2902 65.1912 82.7925 76.9129 82.7925Z" fill="#01C079"/>
<path d="M77.0368 82.6694C88.6903 82.6694 98.1373 73.2223 98.1373 61.5689C98.1373 49.9154 88.6903 40.4684 77.0368 40.4684C65.3834 40.4684 55.9363 49.9154 55.9363 61.5689C55.9363 73.2223 65.3834 82.6694 77.0368 82.6694Z" fill="#01C179"/>
<path d="M77.16 82.5463C88.7453 82.5463 98.1371 73.1546 98.1371 61.5692C98.1371 49.9839 88.7453 40.5921 77.16 40.5921C65.5747 40.5921 56.1829 49.9839 56.1829 61.5692C56.1829 73.1546 65.5747 82.5463 77.16 82.5463Z" fill="#01C27A"/>
<path d="M77.2831 82.4223C88.8002 82.4223 98.1368 73.0858 98.1368 61.5686C98.1368 50.0515 88.8002 40.7149 77.2831 40.7149C65.7659 40.7149 56.4294 50.0515 56.4294 61.5686C56.4294 73.0858 65.7659 82.4223 77.2831 82.4223Z" fill="#01C37B"/>
<path d="M77.4072 82.2983C88.8563 82.2983 98.1376 73.017 98.1376 61.568C98.1376 50.1189 88.8563 40.8377 77.4072 40.8377C65.9582 40.8377 56.6769 50.1189 56.6769 61.568C56.6769 73.017 65.9582 82.2983 77.4072 82.2983Z" fill="#01C47C"/>
<path d="M77.53 82.2983C88.979 82.2983 98.2603 73.017 98.2603 61.568C98.2603 50.1189 88.979 40.8377 77.53 40.8377C66.0809 40.8377 56.7997 50.1189 56.7997 61.568C56.7997 73.017 66.0809 82.2983 77.53 82.2983Z" fill="#01C47C"/>
<path d="M77.6531 82.1753C89.034 82.1753 98.2601 72.9493 98.2601 61.5684C98.2601 50.1875 89.034 40.9615 77.6531 40.9615C66.2723 40.9615 57.0462 50.1875 57.0462 61.5684C57.0462 72.9493 66.2723 82.1753 77.6531 82.1753Z" fill="#01C57D"/>
<path d="M77.6525 82.0522C88.9652 82.0522 98.136 72.8814 98.136 61.5687C98.136 50.256 88.9652 41.0852 77.6525 41.0852C66.3398 41.0852 57.169 50.256 57.169 61.5687C57.169 72.8814 66.3398 82.0522 77.6525 82.0522Z" fill="#01C67E"/>
<path d="M77.7766 81.9292C89.0212 81.9292 98.1367 72.8137 98.1367 61.5691C98.1367 50.3245 89.0212 41.209 77.7766 41.209C66.532 41.209 57.4165 50.3245 57.4165 61.5691C57.4165 72.8137 66.532 81.9292 77.7766 81.9292Z" fill="#01C77F"/>
<path d="M77.8998 81.8052C89.0762 81.8052 98.1365 72.7449 98.1365 61.5685C98.1365 50.392 89.0762 41.3318 77.8998 41.3318C66.7233 41.3318 57.6631 50.392 57.6631 61.5685C57.6631 72.7449 66.7233 81.8052 77.8998 81.8052Z" fill="#01C87F"/>
<path d="M78.0229 81.6822C89.1312 81.6822 98.1362 72.6771 98.1362 61.5689C98.1362 50.4606 89.1312 41.4555 78.0229 41.4555C66.9146 41.4555 57.9096 50.4606 57.9096 61.5689C57.9096 72.6771 66.9146 81.6822 78.0229 81.6822Z" fill="#01C980"/>
<path d="M78.1469 81.5582C89.1871 81.5582 98.1369 72.6084 98.1369 61.5683C98.1369 50.5281 89.1871 41.5783 78.1469 41.5783C67.1068 41.5783 58.157 50.5281 58.157 61.5683C58.157 72.6084 67.1068 81.5582 78.1469 81.5582Z" fill="#01CA81"/>
<path d="M78.2701 81.4351C89.2421 81.4351 98.1367 72.5405 98.1367 61.5685C98.1367 50.5966 89.2421 41.702 78.2701 41.702C67.2981 41.702 58.4036 50.5966 58.4036 61.5685C58.4036 72.5405 67.2981 81.4351 78.2701 81.4351Z" fill="#01CB81"/>
<path d="M78.3929 81.4351C89.3648 81.4351 98.2594 72.5405 98.2594 61.5685C98.2594 50.5966 89.3648 41.702 78.3929 41.702C67.4209 41.702 58.5263 50.5966 58.5263 61.5685C58.5263 72.5405 67.4209 81.4351 78.3929 81.4351Z" fill="#01CC82"/>
<path d="M78.517 81.312C89.4208 81.312 98.2601 72.4727 98.2601 61.5689C98.2601 50.6651 89.4208 41.8257 78.517 41.8257C67.6131 41.8257 58.7738 50.6651 58.7738 61.5689C58.7738 72.4727 67.6131 81.312 78.517 81.312Z" fill="#01CD83"/>
<path d="M78.5173 81.1881C89.353 81.1881 98.137 72.404 98.137 61.5683C98.137 50.7326 89.353 41.9486 78.5173 41.9486C67.6816 41.9486 58.8975 50.7326 58.8975 61.5683C58.8975 72.404 67.6816 81.1881 78.5173 81.1881Z" fill="#01CE84"/>
<path d="M78.6405 81.065C89.408 81.065 98.1368 72.3362 98.1368 61.5687C98.1368 50.8012 89.408 42.0723 78.6405 42.0723C67.8729 42.0723 59.1441 50.8012 59.1441 61.5687C59.1441 72.3362 67.8729 81.065 78.6405 81.065Z" fill="#01CF84"/>
<path d="M78.7646 80.9411C89.464 80.9411 98.1375 72.2675 98.1375 61.5681C98.1375 50.8687 89.464 42.1951 78.7646 42.1951C68.0652 42.1951 59.3916 50.8687 59.3916 61.5681C59.3916 72.2675 68.0652 80.9411 78.7646 80.9411Z" fill="#01D085"/>
<path d="M78.8877 80.8178C89.5189 80.8178 98.1373 72.1995 98.1373 61.5683C98.1373 50.937 89.5189 42.3187 78.8877 42.3187C68.2564 42.3187 59.6381 50.937 59.6381 61.5683C59.6381 72.1995 68.2564 80.8178 78.8877 80.8178Z" fill="#00D186"/>
<path d="M79.0098 80.6948C89.5729 80.6948 98.136 72.1317 98.136 61.5686C98.136 51.0055 89.5729 42.4425 79.0098 42.4425C68.4467 42.4425 59.8836 51.0055 59.8836 61.5686C59.8836 72.1317 68.4467 80.6948 79.0098 80.6948Z" fill="#00D286"/>
<path d="M79.1349 80.5719C89.6299 80.5719 98.1377 72.0641 98.1377 61.5691C98.1377 51.0742 89.6299 42.5663 79.1349 42.5663C68.64 42.5663 60.1321 51.0742 60.1321 61.5691C60.1321 72.0641 68.64 80.5719 79.1349 80.5719Z" fill="#00D387"/>
<path d="M79.2576 80.5719C89.7526 80.5719 98.2604 72.0641 98.2604 61.5691C98.2604 51.0742 89.7526 42.5663 79.2576 42.5663C68.7627 42.5663 60.2549 51.0742 60.2549 61.5691C60.2549 72.0641 68.7627 80.5719 79.2576 80.5719Z" fill="#00D488"/>
<path d="M79.3808 80.4477C89.8076 80.4477 98.2602 71.9951 98.2602 61.5683C98.2602 51.1415 89.8076 42.6889 79.3808 42.6889C68.954 42.6889 60.5014 51.1415 60.5014 61.5683C60.5014 71.9951 68.954 80.4477 79.3808 80.4477Z" fill="#00D589"/>
<path d="M79.3802 80.3248C89.7389 80.3248 98.1362 71.9274 98.1362 61.5688C98.1362 51.2101 89.7389 42.8128 79.3802 42.8128C69.0216 42.8128 60.6242 51.2101 60.6242 61.5688C60.6242 71.9274 69.0216 80.3248 79.3802 80.3248Z" fill="#00D689"/>
<path d="M79.5043 80.2007C89.7948 80.2007 98.1369 71.8586 98.1369 61.5681C98.1369 51.2776 89.7948 42.9355 79.5043 42.9355C69.2138 42.9355 60.8717 51.2776 60.8717 61.5681C60.8717 71.8586 69.2138 80.2007 79.5043 80.2007Z" fill="#00D78A"/>
<path d="M79.6275 80.0778C89.8498 80.0778 98.1367 71.7909 98.1367 61.5686C98.1367 51.3462 89.8498 43.0594 79.6275 43.0594C69.4051 43.0594 61.1183 51.3462 61.1183 61.5686C61.1183 71.7909 69.4051 80.0778 79.6275 80.0778Z" fill="#00D88B"/>
<path d="M79.7514 79.9547C89.9056 79.9547 98.1372 71.7231 98.1372 61.5689C98.1372 51.4147 89.9056 43.1831 79.7514 43.1831C69.5972 43.1831 61.3656 51.4147 61.3656 61.5689C61.3656 71.7231 69.5972 79.9547 79.7514 79.9547Z" fill="#00D98B"/>
<path d="M79.8746 79.8306C89.9606 79.8306 98.137 71.6542 98.137 61.5682C98.137 51.4821 89.9606 43.3058 79.8746 43.3058C69.7885 43.3058 61.6122 51.4821 61.6122 61.5682C61.6122 71.6542 69.7885 79.8306 79.8746 79.8306Z" fill="#00DA8C"/>
<path d="M79.9984 79.8306C90.0845 79.8306 98.2608 71.6542 98.2608 61.5682C98.2608 51.4821 90.0845 43.3058 79.9984 43.3058C69.9124 43.3058 61.736 51.4821 61.736 61.5682C61.736 71.6542 69.9124 79.8306 79.9984 79.8306Z" fill="#00DB8D"/>
<path d="M80.1206 79.7076C90.1385 79.7076 98.2596 71.5865 98.2596 61.5686C98.2596 51.5507 90.1385 43.4296 80.1206 43.4296C70.1027 43.4296 61.9816 51.5507 61.9816 61.5686C61.9816 71.5865 70.1027 79.7076 80.1206 79.7076Z" fill="#00DC8E"/>
<path d="M80.1219 79.5845C90.0717 79.5845 98.1375 71.5186 98.1375 61.5689C98.1375 51.6191 90.0717 43.5533 80.1219 43.5533C70.1722 43.5533 62.1063 51.6191 62.1063 61.5689C62.1063 71.5186 70.1722 79.5845 80.1219 79.5845Z" fill="#00DD8E"/>
<path d="M80.244 79.4616C90.1256 79.4616 98.1362 71.451 98.1362 61.5694C98.1362 51.6878 90.1256 43.6771 80.244 43.6771C70.3624 43.6771 62.3517 51.6878 62.3517 61.5694C62.3517 71.451 70.3624 79.4616 80.244 79.4616Z" fill="#00DE8F"/>
<path d="M90.3624 70.0826C95.1328 70.0826 99 66.2154 99 61.4449C99 56.6745 95.1328 52.8073 90.3624 52.8073C85.592 52.8073 81.7248 56.6745 81.7248 61.4449C81.7248 66.2154 85.592 70.0826 90.3624 70.0826Z" fill="white"/>
</svg>
