<svg xmlns="http://www.w3.org/2000/svg" role="img" viewBox="-9.56 -9.06 471.12 96.12"><title>Chronosphere horizontal logo.svg</title><style>svg {enable-background:new 0 0 452.6 78.5}</style><path fill="#212529" d="M131.3 43.2h-5.2c-.3 0-.5.2-.6.4-1 3.4-3.6 5.3-7.6 5.3-5.3 0-8.6-4-8.6-10.3 0-6.3 3.3-10.2 8.6-10.2 3.9 0 6.7 1.9 7.6 5.3.1.2.3.4.6.4h5.2c.2 0 .3-.1.5-.2.1-.1.1-.3.1-.5-1.6-6.5-6.6-10.2-13.9-10.2-8.8 0-14.7 6.2-14.7 15.4 0 9.3 5.9 15.5 14.7 15.5 7.1 0 12.2-3.8 13.9-10.1v-.2c0-.3-.3-.6-.6-.6zm19.3-20.1c-3.7 0-6.9 1.3-9 3.5V14.1c0-.3-.3-.6-.6-.6h-4.8c-.3 0-.6.3-.6.6v39c0 .3.3.6.6.6h4.8c.3 0 .6-.3.6-.6v-16c0-5.5 2.8-8.7 7.7-8.7 4.8 0 7.5 3 7.5 8.3V53c0 .3.3.6.6.6h4.7c.3 0 .6-.3.6-.6V36c0-7.9-4.7-12.9-12.1-12.9zm31.9 0c-3.8 0-6.8 1.3-8.8 3.8v-2.7c0-.3-.3-.6-.6-.6h-4.8c-.3 0-.6.3-.6.6V53c0 .3.3.6.6.6h4.8c.3 0 .6-.3.6-.6V37.3c0-5.6 2.4-8.2 7.5-8.2h1.3c.3 0 .6-.3.6-.6v-5c0-.2-.3-.4-.6-.4zm16.5 0c-8.9 0-15.2 6.3-15.2 15.4 0 9.2 6.2 15.5 15 15.5 8.9 0 15.4-6.5 15.4-15.5 0-9.1-6.3-15.4-15.2-15.4zm9.1 15.5c0 7-4.7 10.2-9.4 10.2-2.4 0-4.6-.9-6.2-2.4-1.8-1.8-2.7-4.5-2.7-7.7 0-4.7 2.4-10.1 9.1-10.1 4.6-.2 9.2 3 9.2 10zm24.4-15.5c-3.6 0-6.6 1.3-8.7 3.5v-2.4c0-.3-.3-.6-.6-.6h-4.8c-.3 0-.6.3-.6.6V53c0 .3.3.6.6.6h4.8c.3 0 .6-.3.6-.6V37c0-5.5 2.8-8.7 7.7-8.7 4.8 0 7.5 3 7.5 8.3V53c0 .3.3.6.6.6h4.7c.3 0 .6-.3.6-.6V36c0-8-4.7-12.9-12.4-12.9zm31.4 0c-8.9 0-15.2 6.3-15.2 15.4 0 9.2 6.2 15.5 15 15.5 8.9 0 15.4-6.5 15.4-15.5 0-9.1-6.2-15.4-15.2-15.4zm0 5.3c4.6 0 9.2 3.1 9.2 10.1s-4.7 10.2-9.4 10.2c-2.4 0-4.6-.9-6.2-2.4-1.8-1.8-2.7-4.5-2.7-7.7 0-4.7 2.4-10.2 9.1-10.2zm31.2 7.8c-3.6-1-6.7-1.9-6.7-4.5 0-2.1 2-3.4 5.1-3.4 3.3 0 5.5 1.7 5.7 4.5 0 .3.3.5.6.5h4.8c.2 0 .3-.1.4-.2.1-.1.2-.3.2-.4-.3-5.9-4.7-9.6-11.5-9.6-6.5 0-11.2 3.6-11.2 8.6 0 6.5 5.9 8.1 10.6 9.3 3.5.9 6.5 1.7 6.5 4.1 0 2.2-2.1 3.7-5.3 3.7-3.5 0-6-1.7-6.2-4.4 0-.3-.3-.5-.6-.5h-5c-.2 0-.3.1-.4.2-.1.1-.2.3-.2.4.3 5.6 5.4 9.5 12.4 9.5 6.5 0 11.1-3.7 11.2-8.9-.2-6.1-5.9-7.6-10.4-8.9zm30.2-13.1c-4.8 0-8.2 2.1-10.2 4.6v-3.5c0-.3-.3-.6-.6-.6h-4.8c-.3 0-.6.3-.6.6v42.6c0 .3.3.6.6.6h4.8c.3 0 .6-.3.6-.6V49.5c2.1 2.4 5.6 4.6 10.2 4.6 8.3 0 14.3-6.6 14.3-15.6 0-9.1-5.9-15.4-14.3-15.4zm8.3 15.4c0 6-3.8 10.2-9.2 10.2-4.5 0-9.2-3.2-9.2-10.2 0-5 3.2-10.1 9.2-10.1 5.4 0 9.2 4.2 9.2 10.1zm24.7-15.4c-3.7 0-6.9 1.3-9 3.5V14.1c0-.3-.3-.6-.6-.6h-4.8c-.3 0-.6.3-.6.6v39c0 .3.3.6.6.6h4.8c.3 0 .6-.3.6-.6v-16c0-5.5 2.8-8.7 7.7-8.7 4.8 0 7.5 3 7.5 8.3V53c0 .3.3.6.6.6h4.7c.3 0 .6-.3.6-.6V36c0-7.9-4.8-12.9-12.1-12.9zm30.8 0c-8.9 0-14.9 6.2-14.9 15.4 0 9.3 6 15.5 14.9 15.5 6.9 0 12.2-3.8 13.9-9.8 0-.2 0-.4-.1-.5-.1-.1-.3-.2-.5-.2h-5.2c-.2 0-.5.2-.5.4-1.1 3.1-3.8 4.9-7.6 4.9-4.8 0-8.2-3.1-8.8-7.9h22.5c.3 0 .5-.2.6-.5.1-1.1.2-1.9.2-3-.1-8.4-6-14.3-14.5-14.3zm-.3 5.2c2.6 0 4.9.9 6.4 2.4 1.3 1.3 2 3.1 2.1 5.2h-17c.7-4.6 4-7.6 8.5-7.6zm33.2-5.2c-3.8 0-6.8 1.3-8.8 3.8v-2.7c0-.3-.3-.6-.6-.6h-4.8c-.3 0-.6.3-.6.6V53c0 .3.3.6.6.6h4.8c.3 0 .6-.3.6-.6V37.3c0-5.6 2.4-8.2 7.5-8.2h1.3c.3 0 .6-.3.6-.6v-5c-.1-.2-.3-.4-.6-.4zm16.1 0c-8.9 0-14.9 6.2-14.9 15.4 0 9.3 6 15.5 14.9 15.5 6.9 0 12.2-3.8 13.9-9.8 0-.2 0-.4-.1-.5-.1-.1-.3-.2-.5-.2h-5.2c-.2 0-.5.2-.5.4-1.1 3.1-3.8 4.9-7.6 4.9-4.8 0-8.2-3.1-8.8-7.9h22.5c.3 0 .5-.2.6-.5.1-1.1.2-1.9.2-3 0-8.4-6-14.3-14.5-14.3zm-.2 5.2c2.6 0 4.9.9 6.4 2.4 1.3 1.3 2 3.1 2.1 5.2h-17c.7-4.6 4-7.6 8.5-7.6z"/><g fill-rule="evenodd" clip-rule="evenodd"><path fill="#2fbf71" d="M39.3 0c18.5 0 34 12.8 38.1 29.9-2.7-3.8-7.2-6.3-12.2-6.3-8.3 0-14.9 6.7-14.9 14.9 0 8.3 6.7 14.9 14.9 14.9 5.3 0 10-2.8 12.6-7-3.4 18.2-19.4 32-38.6 32C17.6 78.5 0 61 0 39.3 0 17.6 17.6 0 39.3 0z"/><path fill="#2fbe70" d="M40.4 78.5C21.3 75.3 6.8 58.9 6.8 39.3c0-19.7 14.5-36 33.6-39.2 18 .5 32.9 13.1 37 29.9-2.7-3.8-7.2-6.3-12.2-6.3-8.3 0-14.9 6.7-14.9 14.9 0 8.3 6.7 14.9 14.9 14.9 5.3 0 10-2.8 12.6-7-3.3 17.9-18.7 31.5-37.4 32z"/><path fill="#33c172" d="M46.9 77.8C25.4 77.5 8.1 60.4 8.1 39.3S25.4 1 46.9.7c15 3 26.9 14.4 30.5 29.2-2.7-3.8-7.2-6.3-12.2-6.3-8.3 0-14.9 6.7-14.9 14.9 0 8.3 6.7 14.9 14.9 14.9 5.3 0 10-2.8 12.6-7-2.9 15.9-15.2 28.3-30.9 31.4z"/><path fill="#37c573" d="M47.4 2c1.8 0 3.6.1 5.4.4C65 6.9 74.3 17.2 77.4 29.9c-2.7-3.8-7.2-6.3-12.2-6.3-8.3 0-14.9 6.7-14.9 14.9 0 8.3 6.7 14.9 14.9 14.9 5.3 0 10-2.8 12.6-7-2.6 13.7-12.2 24.9-25 29.6-1.8.2-3.6.4-5.4.4-21 0-38.1-16.7-38.1-37.2C9.4 18.7 26.4 2 47.4 2z"/><path fill="#3bc875" d="M47.4 3.3c3.8 0 7.5.6 11 1.6 9.4 5.3 16.4 14.2 19 25-2.7-3.8-7.2-6.3-12.2-6.3-8.3 0-14.9 6.7-14.9 14.9 0 8.3 6.7 14.9 14.9 14.9 5.3 0 10-2.8 12.6-7-2.2 11.6-9.5 21.4-19.5 27-3.5 1.1-7.1 1.6-11 1.6C27 75 10.6 58.9 10.6 39.1c.1-19.7 16.5-35.8 36.8-35.8z"/><path fill="#3fcb77" d="M47.4 4.7c5.8 0 11.3 1.4 16.2 3.8 6.7 5.3 11.7 12.8 13.8 21.5-2.7-3.8-7.2-6.3-12.2-6.3-8.3 0-14.9 6.7-14.9 14.9 0 8.3 6.7 14.9 14.9 14.9 5.3 0 10-2.8 12.6-7C76 56 70.8 64.3 63.6 70c-4.8 2.4-10.3 3.8-16.2 3.8C27.9 73.9 12 58.4 12 39.3S27.9 4.7 47.4 4.7z"/><path fill="#43ce78" d="M47.4 6c7.9 0 15.3 2.6 21.1 7.1 4.2 4.7 7.4 10.5 8.9 16.9-2.7-3.8-7.2-6.3-12.2-6.3-8.3 0-14.9 6.7-14.9 14.9 0 8.3 6.7 14.9 14.9 14.9 5.3 0 10-2.8 12.6-7-1.3 7.2-4.7 13.7-9.4 18.9-5.8 4.4-13.1 7.1-21.1 7.1-18.9 0-34.1-14.9-34.1-33.3C13.3 20.9 28.6 6 47.4 6z"/><path fill="#48d27a" d="M47.4 7.3C57.8 7.3 67 12 73 19.3c1.9 3.3 3.4 6.9 4.4 10.7-2.7-3.8-7.2-6.3-12.2-6.3-8.3 0-14.9 6.7-14.9 14.9 0 8.3 6.7 14.9 14.9 14.9 5.3 0 10-2.8 12.6-7-.9 4.6-2.5 8.9-4.8 12.7-6 7.3-15.3 12-25.6 12-18.1 0-32.8-14.3-32.8-32 0-17.6 14.7-31.9 32.8-31.9z"/><path fill="#4cd57c" d="M47.4 8.6c13.8 0 25.5 8.6 29.8 20.7.1.2.1.5.2.7-2.7-3.8-7.2-6.3-12.2-6.3-8.3 0-14.9 6.7-14.9 14.9 0 8.3 6.7 14.9 14.9 14.9 5.3 0 10-2.8 12.6-7l-.6 2.7C73 61.3 61.2 70 47.4 70 30 70 15.9 56.2 15.9 39.3c0-17 14.1-30.7 31.5-30.7z"/><path fill="#50d87d" d="M47.4 9.9C59.7 9.9 70.3 17 75 27.3c-2.6-2.3-6.1-3.7-9.8-3.7-8.3 0-14.9 6.7-14.9 14.9 0 8.3 6.7 14.9 14.9 14.9 4.2 0 8-1.8 10.8-4.6-4.1 11.5-15.3 19.7-28.5 19.7-16.7 0-30.2-13.2-30.2-29.4C17.2 23 30.8 9.9 47.4 9.9z"/><path fill="#54db7f" d="M47.4 11.2c10.9 0 20.3 5.8 25.3 14.4-2.2-1.3-4.8-2-7.5-2-8.3 0-14.9 6.7-14.9 14.9 0 8.3 6.7 14.9 14.9 14.9 3.2 0 6.2-1 8.6-2.7-4.5 9.7-14.6 16.5-26.4 16.5-16 0-28.9-12.6-28.9-28.1 0-15.3 13-27.9 28.9-27.9z"/><path fill="#58df80" d="M47.4 12.5c9.7 0 18.1 4.8 23.1 12.1-1.7-.6-3.4-1-5.3-1-8.3 0-14.9 6.7-14.9 14.9 0 8.3 6.7 14.9 14.9 14.9 2.3 0 4.5-.5 6.5-1.5C67 60.4 57.9 66 47.4 66c-15.2 0-27.6-12-27.6-26.8 0-14.7 12.4-26.7 27.6-26.7z"/><path fill="#5ce281" d="M47.4 13.8c8.6 0 16.2 4 21 10.2-1-.2-2.1-.4-3.2-.4-8.3 0-14.9 6.7-14.9 14.9 0 8.3 6.7 14.9 14.9 14.9 1.6 0 3.1-.2 4.5-.7-4.7 7.3-12.9 12-22.3 12-14.5 0-26.3-11.4-26.3-25.5.1-14 11.8-25.4 26.3-25.4z"/><path fill="#60e684" d="M47.4 15.1c7.7 0 14.5 3.3 19.1 8.6-.4 0-.9-.1-1.3-.1-8.3 0-14.9 6.7-14.9 14.9 0 8.3 6.7 14.9 14.9 14.9.9 0 1.7-.1 2.6-.2-4.5 6.1-11.9 10.1-20.3 10.1-13.8 0-25-10.8-25-24.1s11.1-24.1 24.9-24.1z"/></g></svg>