<?xml version="1.0" encoding="UTF-8" standalone="no"?>
<svg
   xmlns:dc="http://purl.org/dc/elements/1.1/"
   xmlns:cc="http://creativecommons.org/ns#"
   xmlns:rdf="http://www.w3.org/1999/02/22-rdf-syntax-ns#"
   xmlns:svg="http://www.w3.org/2000/svg"
   xmlns="http://www.w3.org/2000/svg"
   viewBox="0 0 302.66666 156"
   height="156"
   width="302.66666"
   xml:space="preserve"
   id="svg2"
   version="1.1"><metadata
     id="metadata8"><rdf:RDF><cc:Work
         rdf:about=""><dc:format>image/svg+xml</dc:format><dc:type
           rdf:resource="http://purl.org/dc/dcmitype/StillImage" /></cc:Work></rdf:RDF></metadata><defs
     id="defs6"><clipPath
       id="clipPath18"
       clipPathUnits="userSpaceOnUse"><path
         id="path16"
         d="M 0,117 H 227 V 0 H 0 Z" /></clipPath></defs><g
     transform="matrix(1.3333333,0,0,-1.3333333,0,156)"
     id="g10"><g
       id="g12"><g
         clip-path="url(#clipPath18)"
         id="g14"><g
           transform="translate(214.5352,9.7988)"
           id="g20"><path
             id="path22"
             style="fill:#546e7a;fill-opacity:1;fill-rule:nonzero;stroke:none"
             d="m 0,0 c 0,-1.505 0.235,-2.687 0.705,-3.545 0.471,-0.857 1.271,-1.286 2.399,-1.286 1.096,0 1.882,0.432 2.358,1.295 0.475,0.863 0.714,2.042 0.714,3.536 v 0.349 c 0,1.461 -0.239,2.63 -0.714,3.51 C 4.986,4.74 4.189,5.18 3.071,5.18 1.965,5.18 1.176,4.737 0.705,3.852 0.235,2.966 0,1.799 0,0.349 Z m -5.611,0.349 c 0,2.7 0.763,4.9 2.291,6.598 1.527,1.699 3.658,2.549 6.391,2.549 2.745,0 4.881,-0.85 6.408,-2.549 1.528,-1.698 2.292,-3.898 2.292,-6.598 V 0 c 0,-2.712 -0.764,-4.914 -2.292,-6.607 -1.527,-1.694 -3.652,-2.54 -6.375,-2.54 -2.755,0 -4.897,0.846 -6.424,2.54 -1.528,1.693 -2.291,3.895 -2.291,6.607 z m -2.69,12.982 h -5.628 V 17.1 h 5.628 z m 0,-22.13 h -5.628 V 9.164 h 5.628 z m -9.894,0 h -5.595 v 4.715 h 5.595 z m -14.294,5.047 c 0,0.442 -0.252,0.838 -0.755,1.188 -0.504,0.348 -1.42,0.661 -2.748,0.937 -2.092,0.409 -3.669,1.046 -4.732,1.909 -1.062,0.864 -1.593,2.042 -1.593,3.536 0,1.583 0.664,2.925 1.992,4.026 1.328,1.101 3.127,1.652 5.395,1.652 2.391,0 4.294,-0.534 5.711,-1.601 1.417,-1.069 2.092,-2.45 2.026,-4.143 l -0.034,-0.1 h -5.445 c 0,0.708 -0.18,1.245 -0.539,1.611 -0.36,0.365 -0.938,0.548 -1.735,0.548 -0.587,0 -1.079,-0.161 -1.478,-0.482 -0.398,-0.321 -0.597,-0.73 -0.597,-1.228 0,-0.476 0.229,-0.88 0.689,-1.212 0.459,-0.332 1.386,-0.631 2.78,-0.897 2.192,-0.431 3.816,-1.076 4.872,-1.933 1.058,-0.859 1.586,-2.074 1.586,-3.645 0,-1.616 -0.717,-2.946 -2.15,-3.992 -1.433,-1.047 -3.328,-1.569 -5.686,-1.569 -2.446,0 -4.38,0.62 -5.802,1.859 -1.422,1.239 -2.1,2.623 -2.034,4.15 l 0.034,0.1 h 5.08 c 0.022,-0.853 0.279,-1.467 0.771,-1.843 0.493,-0.376 1.193,-0.564 2.101,-0.564 0.753,0 1.322,0.146 1.71,0.439 0.387,0.294 0.581,0.712 0.581,1.254 m -21.383,2.092 h -0.946 V -8.799 H -60.43 V 17.1 h 5.612 V 2.573 h 0.747 l 3.835,6.591 h 6.424 l -5.578,-8.118 6.458,-9.845 h -6.391 z m -16.253,-3.171 c 0.753,0 1.312,0.205 1.677,0.614 0.365,0.409 0.548,1.013 0.548,1.81 h 5.129 l 0.034,-0.1 c 0.044,-1.959 -0.634,-3.555 -2.034,-4.79 -1.4,-1.233 -3.185,-1.85 -5.354,-1.85 -2.723,0 -4.822,0.846 -6.301,2.54 -1.476,1.693 -2.216,3.89 -2.216,6.59 v 0.382 c 0,2.69 0.737,4.884 2.208,6.582 1.472,1.699 3.559,2.549 6.259,2.549 2.28,0 4.101,-0.637 5.462,-1.909 1.361,-1.273 2.02,-3.005 1.976,-5.196 l -0.034,-0.1 H -67.9 c 0,0.853 -0.189,1.547 -0.565,2.084 -0.376,0.536 -0.946,0.805 -1.71,0.805 -1.062,0 -1.806,-0.438 -2.233,-1.312 -0.426,-0.874 -0.639,-2.042 -0.639,-3.503 v -0.382 c 0,-1.504 0.213,-2.683 0.639,-3.536 0.427,-0.852 1.187,-1.278 2.283,-1.278 M -89.2,-5.146 c 0.554,0 1.062,0.11 1.527,0.332 0.465,0.221 0.841,0.508 1.129,0.863 v 2.805 h -1.992 c -0.886,0 -1.53,-0.215 -1.935,-0.647 -0.403,-0.432 -0.605,-0.979 -0.605,-1.644 0,-0.508 0.174,-0.92 0.523,-1.237 0.348,-0.315 0.799,-0.472 1.353,-0.472 m 3.702,-3.636 c -0.155,0.288 -0.296,0.608 -0.424,0.963 -0.127,0.354 -0.234,0.719 -0.323,1.095 -0.531,-0.741 -1.173,-1.331 -1.926,-1.768 -0.753,-0.437 -1.666,-0.655 -2.739,-0.655 -1.704,0 -3.091,0.492 -4.158,1.477 -1.069,0.985 -1.603,2.297 -1.603,3.935 0,1.782 0.667,3.157 2.001,4.126 1.333,0.967 3.361,1.452 6.084,1.452 h 2.042 v 1.278 c 0,0.764 -0.18,1.351 -0.54,1.76 -0.359,0.409 -0.915,0.614 -1.668,0.614 -0.642,0 -1.121,-0.152 -1.436,-0.456 -0.316,-0.305 -0.473,-0.778 -0.473,-1.42 l -5.429,0.017 -0.033,0.099 c -0.077,1.638 0.603,3.008 2.042,4.109 1.438,1.101 3.343,1.652 5.711,1.652 2.214,0 4.009,-0.554 5.388,-1.66 1.377,-1.107 2.066,-2.69 2.066,-4.748 v -6.774 c 0,-0.962 0.08,-1.853 0.24,-2.672 0.161,-0.82 0.402,-1.633 0.723,-2.441 z m -12.75,12.999 -2.042,0.016 c -0.642,0 -1.168,-0.107 -1.577,-0.323 -0.41,-0.217 -0.714,-0.523 -0.913,-0.922 V -8.799 h -5.612 V 9.164 h 5.28 l 0.199,-2.64 c 0.376,0.941 0.874,1.671 1.494,2.192 0.62,0.52 1.345,0.78 2.175,0.78 0.265,0 0.537,-0.019 0.813,-0.058 0.277,-0.039 0.521,-0.085 0.731,-0.141 z m -12.119,6.84 h -6.375 V -8.799 h -5.628 v 19.856 h -6.325 v 4.316 h 18.328 z m -30.829,-4.118 c 0.542,0.808 1.203,1.436 1.984,1.885 0.78,0.448 1.64,0.672 2.581,0.672 1.86,0 3.32,-0.647 4.383,-1.942 1.062,-1.295 1.594,-3.304 1.594,-6.027 V -8.799 h -5.612 v 10.36 c 0,1.372 -0.207,2.318 -0.622,2.838 -0.415,0.521 -1.049,0.781 -1.901,0.781 -0.543,0 -1.013,-0.08 -1.411,-0.241 -0.399,-0.161 -0.731,-0.384 -0.996,-0.672 V -8.799 h -5.612 V 17.1 h 5.612 z m -13.481,-10.691 c 0,0.442 -0.252,0.838 -0.755,1.188 -0.504,0.348 -1.42,0.661 -2.748,0.937 -2.091,0.409 -3.669,1.046 -4.731,1.909 -1.063,0.864 -1.594,2.042 -1.594,3.536 0,1.583 0.664,2.925 1.992,4.026 1.328,1.101 3.127,1.652 5.396,1.652 2.39,0 4.294,-0.534 5.711,-1.601 1.416,-1.069 2.092,-2.45 2.025,-4.143 l -0.033,-0.1 h -5.445 c 0,0.708 -0.18,1.245 -0.54,1.611 -0.36,0.365 -0.938,0.548 -1.735,0.548 -0.586,0 -1.079,-0.161 -1.477,-0.482 -0.399,-0.321 -0.598,-0.73 -0.598,-1.228 0,-0.476 0.23,-0.88 0.689,-1.212 0.459,-0.332 1.386,-0.631 2.781,-0.897 2.191,-0.431 3.815,-1.076 4.872,-1.933 1.057,-0.859 1.586,-2.074 1.586,-3.645 0,-1.616 -0.717,-2.946 -2.15,-3.992 -1.433,-1.047 -3.329,-1.569 -5.686,-1.569 -2.446,0 -4.38,0.62 -5.802,1.859 -1.423,1.239 -2.101,2.623 -2.034,4.15 l 0.033,0.1 h 5.08 c 0.022,-0.853 0.279,-1.467 0.772,-1.843 0.493,-0.376 1.193,-0.564 2.1,-0.564 0.753,0 1.323,0.146 1.71,0.439 0.387,0.294 0.581,0.712 0.581,1.254 m -19.54,8.932 c -0.808,0 -1.414,-0.288 -1.818,-0.864 -0.403,-0.575 -0.65,-1.344 -0.738,-2.307 l 0.049,-0.083 h 4.831 v 0.431 c 0,0.908 -0.188,1.605 -0.564,2.092 -0.376,0.488 -0.963,0.731 -1.76,0.731 m 0.399,-14.327 c -2.645,0 -4.757,0.83 -6.334,2.49 -1.577,1.66 -2.366,3.741 -2.366,6.242 v 0.631 c 0,2.733 0.717,4.967 2.15,6.698 1.433,1.732 3.484,2.593 6.151,2.582 2.435,0 4.344,-0.73 5.728,-2.191 1.383,-1.461 2.075,-3.443 2.075,-5.944 v -2.938 h -10.26 l -0.033,-0.1 c 0.122,-0.919 0.498,-1.674 1.129,-2.266 0.631,-0.592 1.472,-0.888 2.523,-0.888 1.063,0 1.912,0.083 2.549,0.249 0.636,0.166 1.441,0.454 2.415,0.863 l 1.328,-3.42 c -0.785,-0.575 -1.801,-1.053 -3.046,-1.435 -1.245,-0.383 -2.582,-0.573 -4.009,-0.573 m -10.625,13.364 -2.042,0.016 c -0.642,0 -1.168,-0.107 -1.577,-0.323 -0.41,-0.217 -0.714,-0.523 -0.914,-0.922 V -8.799 h -5.611 V 9.164 h 5.279 l 0.2,-2.64 c 0.376,0.941 0.874,1.671 1.494,2.192 0.619,0.52 1.344,0.78 2.175,0.78 0.265,0 0.536,-0.019 0.813,-0.058 0.277,-0.039 0.52,-0.085 0.73,-0.141 z M -198.521,0.93 h -9.679 v -9.729 h -5.628 v 24.172 h 17 V 11.057 H -208.2 V 5.246 h 9.679 z" /></g><g
           transform="translate(43.3545,44.3457)"
           id="g24"><path
             id="path26"
             style="fill:#2196f3;fill-opacity:1;fill-rule:nonzero;stroke:none"
             d="M 0,0 1.525,-7.346 H 19.807 L 37.468,17.971 16.53,2.062 Z" /></g><g
           transform="translate(74.7471,43.8867)"
           id="g28"><path
             id="path30"
             style="fill:#2196f3;fill-opacity:1;fill-rule:nonzero;stroke:none"
             d="M 0,0 2.597,-6.887 H 12.915 L 44.557,38.683 9.691,11.703 9.543,6.306 Z" /></g><g
           transform="translate(117.8389,68.2583)"
           id="g32"><path
             id="path34"
             style="fill:#2196f3;fill-opacity:1;fill-rule:nonzero;stroke:none"
             d="m 0,0 13.961,25.451 23.96,-31.259 -25.32,-25.45 H -5.82 L 7.929,-12.982 -10.687,-16.74 10.687,2.733 Z" /></g><g
           transform="translate(149.6836,42.2891)"
           id="g36"><path
             id="path38"
             style="fill:#2196f3;fill-opacity:1;fill-rule:nonzero;stroke:none"
             d="M 0,0 12.737,20.027 30.38,4.207 18.904,-1.238 16.639,6.087 Z" /></g><g
           transform="translate(121.8633,116.6221)"
           id="g40"><path
             id="path42"
             style="fill:#546e7a;fill-opacity:1;fill-rule:nonzero;stroke:none"
             d="m 0,0 c 2.232,-1.614 4.142,-3.056 5.64,-4.214 l -34.965,-31.133 -77.538,-43.262 78.266,36.567 37.938,31.948 c 0.385,-1.854 0.847,-4.211 1.321,-6.937 1.249,2.392 9.064,17.41 9.057,17.409 C 19.729,0.387 2.712,0.056 0,0" /></g><g
           transform="translate(134.4941,97.5273)"
           id="g44"><path
             id="path46"
             style="fill:#546e7a;fill-opacity:1;fill-rule:nonzero;stroke:none"
             d="M 0,0 20.102,-23.656 35.155,-25.892 72.911,-58.502 36.697,-16.883 23.38,-12.539 3.853,9.346 2.743,6.651 C 1.83,4.434 0.914,2.217 0,0" /></g></g></g></g></svg>