<?xml version="1.0" encoding="UTF-8"?> <svg xmlns="http://www.w3.org/2000/svg" id="05284360-4e71-4c9a-9be0-3177700c3e3f" data-name="Layer 1" viewBox="0 0 1945.85 1038.98"> <defs> <style>.\39 ef103f7-5432-4362-aea0-4aeac172622d{fill:#03dbc0;}.\31 933d693-0290-4a63-88ef-ee91c6fbf5b8,.\39 ef103f7-5432-4362-aea0-4aeac172622d{fill-rule:evenodd;}.\31 933d693-0290-4a63-88ef-ee91c6fbf5b8,.c6688cff-f85e-44e9-ad4e-3c7918caa18c{fill:#555;}</style> </defs> <title>FreshTracks_Logo</title> <path class="9ef103f7-5432-4362-aea0-4aeac172622d" d="M1765.81,725.19l-15.27-13.54v20.71l15.27-7.17Zm-26-23.07L1723,687.2v58.09l16.82-7.89V702.12Zm-27.56-24.44-16.82-14.92v95.47l16.82-7.9V677.68Zm-27.57-24.45-16.82-14.91V771.16l16.82-7.89v-110Zm-27.57-24.44-16.82-14.92v138l8.8,28.13,8-3.76V628.79Zm-27.56-24.45-16.82-14.92V711.09l13.31-4.81,3.51,11.2V604.34ZM1602,579.9,1586.34,566l-1.2,1.86V721.07L1602,715V579.9Zm-27.57,4.71-16.82,26.15V731l16.82-6.09V584.61Zm-27.56,42.86L1530,653.62V741l16.82-6.08V627.47Zm-37.64-62.21-6.75-8.88V572.1l6.75-6.84Zm10.07,105.07-16.82,26.16V751l16.82-6.08V670.33Zm-27.56-128.1-16.82-22.14v80L1491.7,583V542.23Zm0,171-16.82,26.16V761l16.82-6.09V713.19Zm-27.57-207.25-16.82-22.15V628L1464.13,611v-105Zm0,250.11-7.37,11.46,7.37-2.66v-8.8Zm-27.57-286.4-16.82-22.15V656l16.82-17.05V469.65ZM1409,433.35l-16.82-22.14V683.92L1409,666.86V433.35Zm-27.57-36.29-16.82-22.14v337l16.82-17V397.06Zm-27.57-36.29-16.81-22.14v401.2l16.81-17.06v-362Zm-27.56-36.29-16.82-22.15V767.78l16.82-17V324.48Zm-27.57-36.29L1281.91,266v529.7l16.82-17.06V288.19Zm-27.56-36.3-3.13-4.11L1254.35,273V820.19l8.49-5.11,8.33-8.44V251.89Zm-27.57,40.85-16.82,30.95v157l8.3-2.14-8.3,7.63v337.6h16.82v-531ZM1216,343.46l-16.82,30.94V487.77l16.82-4.34v-140ZM1216,496l-16.82,15.46V639.78l8.12-1.66L1199.21,649V823.75H1216V496Zm-27.56-101.86-16.82,30.94v69.78l16.82-4.34V394.17Zm0,127.2-16.82,15.47V645.39l16.82-3.42V521.37Zm0,142L1171.65,686V823.75h16.82V663.42ZM1160.9,444.87l-16.82,30.94V502l16.82-4.34V444.87Zm0,101.85-16.82,15.46V651l16.82-3.43V546.72Zm0,153.68L1144.08,723V823.75h16.82V700.4Zm-27.57-204.82-5.81,10.7,5.81-1.5v-9.2Zm0,76.48-16.81,15.46v69.1l16.81-3.42V572.06Zm0,165.32-16.81,22.56v63.81h16.81V737.38Zm-16.81-357.44,16.81-13.1v2l-16.81,24.37V379.94ZM1105.77,597.4,1089,612.87v49.37l16.82-3.43V597.4Zm0,177L1089,796.92v26.83h16.82V774.36ZM1089,401.4l16.82-13.1v20.53L1089,433.21V401.4ZM1078.2,622.75l-16.82,15.46v29.65l16.82-3.43V622.75Zm0,188.59-9.26,12.41h9.26V811.34Zm-16.82-388.47,16.82-13.1v39l-16.82,24.38v-50.3Zm-10.74,225.22-16.82,15.46v9.92l16.82-3.43V648.09Zm-16.82-203.75,16.82-13.1v57.51l-16.82,24.38V444.34Zm-10.75,229.1-3.11,2.85,3.11-.63v-2.22ZM1006.25,465.8l16.82-13.1v76l-16.82,24.38V465.8Zm-27.57,21.47,16.82-13.1v94.5l-16.82,24.38V487.27Zm-27.56,21.47,16.82-13.1v113L951.12,633V508.74ZM923.55,530.2l16.82-13.09V648.59L923.55,673V530.2ZM896,551.67l16.82-13.1v150L896,712.93V551.67Zm-27.57,21.47L885.24,560V728.51l-16.82,24.38V573.14ZM840.85,594.6l16.82-13.09v187l-16.82,24.38V594.6Zm-27.56,21.47L830.11,603V808.43l-10.58,15.32h-6.24V616.07Zm-27.57,44.34,1.5-24,15.32-11.93V823.75H785.72V660.41ZM758.15,709,775,697.73v126H758.15V709Zm-27.56,18.37,16.82-11.21V823.75H730.59V727.32Zm0-141,16.82-12.63v3l-16.82,23.84V586.35Zm-14.48,237.4L703,788.86V745.7l16.82-11.21v89.26ZM703,607l16.82-12.63V615.8L703,639.63V607ZM692.28,760.21l-2.21-5.88,2.21-1.47v7.35ZM675.46,627.73l16.82-12.63v39.76l-16.82,23.83v-51Zm-27.57,20.68,16.82-12.62v58.13l-16.82,23.83V648.41ZM620.32,669.1l16.82-12.62V733l-16.82,23.83V669.1Zm-27.56,20.69,16.82-12.62V772l-16.82,23.83V689.79Zm-27.57,20.69L582,697.86V811.1l-8.93,12.65h-7.89V710.48Zm-27.57,19.29,2.23-.27,14.59-11V823.75H537.62v-94Zm-27.56,3.4,16.82-2.07v92.65H510.06V733.17Zm-27.57,3.39,16.82-2.07v89.26H482.49V736.56ZM454.93,740l16.82-2.07v85.86H454.93V740Zm-27.57,3.4,16.82-2.07v82.46H427.36V743.36Zm-27.57,3.4,16.82-2.08v79.07H399.79v-77Zm-27.56,3.39,16.82-2.07v75.67h-1.36l-15.46-73.6Z" transform="translate(-88.46 -21.49)"></path> <path class="1933d693-0290-4a63-88ef-ee91c6fbf5b8" d="M1366,21.49c.1-.09-171.64,3.27-199,3.83,22.53,16.4,41.8,31.05,56.91,42.81L871,384.34,88.46,823.75,878.37,452.34l382.88-324.49c3.89,18.83,8.54,42.76,13.34,70.46,12.6-24.3,91.46-176.84,91.4-176.82Z" transform="translate(-88.46 -21.49)"></path> <path class="1933d693-0290-4a63-88ef-ee91c6fbf5b8" d="M1303.23,215,1504.8,453.67l150.93,22.56,378.58,329L1671.2,385.36l-133.53-43.83-195.8-220.76L1330.75,148Q1317,181.51,1303.23,215Z" transform="translate(-88.46 -21.49)"></path> <path class="c6688cff-f85e-44e9-ad4e-3c7918caa18c" d="M420.9,1057.78H390.54V912.25H474v25.29H420.9v37.52h49.38v25.19H420.9Z" transform="translate(-88.46 -21.49)"></path> <path class="c6688cff-f85e-44e9-ad4e-3c7918caa18c" d="M525.09,1011.25v46.53H499.38V936.51h35.33q24.72,0,36.58,9t11.87,27.33a32.24,32.24,0,0,1-5.89,19,39,39,0,0,1-16.68,13.06q27.38,40.9,35.67,52.84H567.73l-29-46.53Zm0-20.91h8.3q12.18,0,18-4.06t5.8-12.77q0-8.64-5.93-12.28t-18.37-3.65h-7.8Z" transform="translate(-88.46 -21.49)"></path> <path class="c6688cff-f85e-44e9-ad4e-3c7918caa18c" d="M681.37,1057.78H611.53V936.51h69.84v21.07H637.24v26.63H678.3v21.06H637.24v31.28h44.13Z" transform="translate(-88.46 -21.49)"></path> <path class="c6688cff-f85e-44e9-ad4e-3c7918caa18c" d="M778.26,1024.1q0,16.43-11.82,25.89t-32.89,9.45q-19.41,0-34.34-7.3v-23.89A142.53,142.53,0,0,0,720,1036a61.69,61.69,0,0,0,15.56,2.24q8.46,0,13-3.24t4.52-9.62a10.63,10.63,0,0,0-2-6.35,22.5,22.5,0,0,0-5.85-5.35q-3.86-2.56-15.72-8.21-11.12-5.22-16.67-10a37.72,37.72,0,0,1-8.88-11.19,32,32,0,0,1-3.31-14.94q0-16.08,10.9-25.3t30.16-9.2a70.88,70.88,0,0,1,18,2.24,123.77,123.77,0,0,1,18,6.3l-8.3,20a123.48,123.48,0,0,0-16-5.56,51.67,51.67,0,0,0-12.48-1.57q-7.3,0-11.2,3.4a11.22,11.22,0,0,0-3.9,8.87,10.94,10.94,0,0,0,1.58,5.94,17.47,17.47,0,0,0,5,4.89q3.45,2.37,16.3,8.5,17,8.13,23.31,16.3T778.26,1024.1Z" transform="translate(-88.46 -21.49)"></path> <path class="c6688cff-f85e-44e9-ad4e-3c7918caa18c" d="M899.62,1057.78H874v-52.34H826v52.34H800.24V936.51H826V984h48V936.51h25.64Z" transform="translate(-88.46 -21.49)"></path> <path class="c6688cff-f85e-44e9-ad4e-3c7918caa18c" d="M989.42,1057.78H958.56V937.93H919V912.25h109.9v25.68H989.42Z" transform="translate(-88.46 -21.49)"></path> <path class="c6688cff-f85e-44e9-ad4e-3c7918caa18c" d="M1074,1011.25v46.53h-25.72V936.51h35.34q24.72,0,36.58,9t11.86,27.33a32.17,32.17,0,0,1-5.89,19q-5.88,8.34-16.67,13.06,27.38,40.9,35.67,52.84h-28.54l-29-46.53Zm0-20.91h8.29q12.2,0,18-4.06t5.81-12.77q0-8.64-5.93-12.28t-18.38-3.65H1074Z" transform="translate(-88.46 -21.49)"></path> <path class="c6688cff-f85e-44e9-ad4e-3c7918caa18c" d="M1234.67,1057.78l-8.79-28.86h-44.21l-8.79,28.86h-27.71L1188,936h31.44l43,121.77Zm-14.93-50.43Q1207.54,968.11,1206,963t-2.19-8.13q-2.74,10.62-15.68,52.51Z" transform="translate(-88.46 -21.49)"></path> <path class="c6688cff-f85e-44e9-ad4e-3c7918caa18c" d="M1329.16,956.17q-14.52,0-22.48,10.91t-8,30.4q0,40.56,30.45,40.56,12.77,0,30.94-6.39v21.57a85.91,85.91,0,0,1-33.35,6.22q-26.46,0-40.48-16t-14-46.08q0-18.91,6.89-33.14a49.76,49.76,0,0,1,19.78-21.81q12.9-7.59,30.24-7.59,17.65,0,35.5,8.54l-8.3,20.9a139.88,139.88,0,0,0-13.68-5.64A40.93,40.93,0,0,0,1329.16,956.17Z" transform="translate(-88.46 -21.49)"></path> <path class="c6688cff-f85e-44e9-ad4e-3c7918caa18c" d="M1483.45,1057.78h-29.2l-31.77-51.09-10.87,7.79v43.3h-25.72V936.51h25.72V992l10.12-14.26,32.85-41.23h28.53l-42.3,53.67Z" transform="translate(-88.46 -21.49)"></path> <path class="c6688cff-f85e-44e9-ad4e-3c7918caa18c" d="M1570.3,1024.1q0,16.43-11.82,25.89t-32.89,9.45q-19.41,0-34.35-7.3v-23.89A142.59,142.59,0,0,0,1512,1036a61.69,61.69,0,0,0,15.56,2.24q8.46,0,13-3.24t4.52-9.62a10.63,10.63,0,0,0-2-6.35,22.5,22.5,0,0,0-5.85-5.35q-3.85-2.56-15.72-8.21-11.12-5.22-16.67-10a37.56,37.56,0,0,1-8.88-11.19,32,32,0,0,1-3.32-14.94q0-16.08,10.91-25.3t30.15-9.2a71,71,0,0,1,18,2.24,123.77,123.77,0,0,1,18,6.3l-8.3,20a123.48,123.48,0,0,0-16.05-5.56,51.67,51.67,0,0,0-12.48-1.57q-7.31,0-11.2,3.4a11.22,11.22,0,0,0-3.9,8.87,11,11,0,0,0,1.57,5.94,17.52,17.52,0,0,0,5,4.89q3.45,2.37,16.3,8.5,17,8.13,23.31,16.3T1570.3,1024.1Z" transform="translate(-88.46 -21.49)"></path> <path class="c6688cff-f85e-44e9-ad4e-3c7918caa18c" d="M1588.66,1043.55q0-8.37,4.48-12.64t13-4.28q8.27,0,12.79,4.38t4.53,12.54q0,7.86-4.58,12.39t-12.74,4.53q-8.36,0-12.94-4.43T1588.66,1043.55Z" transform="translate(-88.46 -21.49)"></path> <path class="c6688cff-f85e-44e9-ad4e-3c7918caa18c" d="M1649.78,917.73q0-14.84,16.52-14.83t16.53,14.83q0,7.07-4.13,11t-12.4,3.93Q1649.79,932.66,1649.78,917.73Zm31.65,140h-30.36V946.5h30.36Z" transform="translate(-88.46 -21.49)"></path> <path class="c6688cff-f85e-44e9-ad4e-3c7918caa18c" d="M1814.42,1001.94q0,27.18-14.33,42.5t-39.92,15.33q-16,0-28.27-7a46.72,46.72,0,0,1-18.81-20.16q-6.57-13.14-6.57-30.66,0-27.27,14.23-42.4t40-15.13q16,0,28.27,7a46.57,46.57,0,0,1,18.81,20Q1814.42,984.43,1814.42,1001.94Zm-76.94,0q0,16.53,5.42,25t17.67,8.46q12.15,0,17.47-8.42t5.33-25q0-16.52-5.38-24.79t-17.62-8.26q-12.15,0-17.52,8.21T1737.48,1001.94Z" transform="translate(-88.46 -21.49)"></path> </svg> 