<?xml version="1.0" encoding="UTF-8" standalone="no"?>
<svg
   xmlns:dc="http://purl.org/dc/elements/1.1/"
   xmlns:cc="http://creativecommons.org/ns#"
   xmlns:rdf="http://www.w3.org/1999/02/22-rdf-syntax-ns#"
   xmlns:svg="http://www.w3.org/2000/svg"
   xmlns="http://www.w3.org/2000/svg"
   viewBox="0 0 1522.6667 580"
   height="580"
   width="1522.6667"
   xml:space="preserve"
   id="svg2"
   version="1.1"><metadata
     id="metadata8"><rdf:RDF><cc:Work
         rdf:about=""><dc:format>image/svg+xml</dc:format><dc:type
           rdf:resource="http://purl.org/dc/dcmitype/StillImage" /><dc:title></dc:title></cc:Work></rdf:RDF></metadata><defs
     id="defs6" /><g
     transform="matrix(1.3333333,0,0,-1.3333333,0,580)"
     id="g10"><g
       transform="scale(0.1)"
       id="g12"><path
         id="path14"
         style="fill:#888e9c;fill-opacity:1;fill-rule:nonzero;stroke:none"
         d="m 7777,2988.08 h -218 l 1,-1625 h 883 v 201 h -665 l -1,1424 v 0" /><path
         id="path16"
         style="fill:#888e9c;fill-opacity:1;fill-rule:nonzero;stroke:none"
         d="m 9057.28,2633.23 c -176,0 -338,-62 -464.01,-167 l 77,-134 c 89.01,52 198,104 355,104 179.01,0 258,-92 258,-246 v -79 c -35,7 -106.99,12 -150.99,12 -382.01,0 -576,-134 -576,-414 0,-251 153.99,-377 386.99,-377 157,0 308.01,72 360,189 l 40,-159 h 154.01 v 832 c -1,263 -115,439 -440,439 z m 225.99,-985 c -55,-57 -145.99,-114 -270,-114 -165.99,0 -233,82 -233,189 0,161 112.01,238 350,238 45,0 117.01,-5 154.01,-12 v -301 h -1.01" /><path
         id="path18"
         style="fill:#888e9c;fill-opacity:1;fill-rule:nonzero;stroke:none"
         d="m 10292.7,2632.79 c -195,0 -300.03,-133 -300.03,-133 v 210 l -1,278 h -98 -115 l 1,-1585 c 107,-45 253.03,-69.01 412.03,-69.01 407,0 603,260 603,709.01 -1,355 -182,590 -502,590 m -92,-1106 c -82,0 -154,10 -208.03,35 v 673 78 c 74.03,62 166.03,107 283.03,107 211,0 292,-149 292,-390 0,-342 -131,-503 -367,-503" /><path
         id="path20"
         style="fill:#888e9c;fill-opacity:1;fill-rule:nonzero;stroke:none"
         d="m 5403.42,2811.77 c 193,0 318,-64 399,-129 l 94,163 c -127,112 -299,172 -483,172 -464,0 -789,-283 -789,-854 0,-598 351,-831 752,-831 201,0 372,47 484,94 l -5,639 v 75 126 h -595 v -201 h 380 l 5,-485 c -50,-25 -136,-45 -253,-45 -322,0 -538,203 -538,630 -1,435 222,646 549,646" /><path
         id="path22"
         style="fill:#888e9c;fill-opacity:1;fill-rule:nonzero;stroke:none"
         d="m 6938.69,2988.3 h -213 l 1,-273 v -943 c 0,-263 114,-439 439,-439 45,0 89,4 131,12 v 191 c -31,-5 -64,-7 -99,-7 -179,0 -258,92 -258,246 v 650 h 357 v 178 h -357 l -1,385 v 0" /><path
         id="path24"
         style="fill:#888e9c;fill-opacity:1;fill-rule:nonzero;stroke:none"
         d="m 6184,1363.08 h 213 v 1240 h -213 v -1240 0" /><path
         id="path26"
         style="fill:#888e9c;fill-opacity:1;fill-rule:nonzero;stroke:none"
         d="m 6184,2774.08 h 213 v 213 h -213 v -213 0" /><path
         id="path28"
         style="fill:#f25323;fill-opacity:1;fill-rule:nonzero;stroke:none"
         d="m 3993.88,1952.37 -188.63,579.55 -373.15,1149.51 c -19.13,58.78 -102.51,58.78 -122.33,0 L 2936.62,2532.6 H 1696.89 l -373.14,1148.83 c -19.14,58.78 -102.51,58.78 -122.33,0 L 828.949,2532.6 640.328,1952.37 c -17.09,-52.62 1.36,-110.71 46.469,-143.51 L 2316.76,624.488 3946.72,1808.86 c 45.11,32.8 64.24,90.89 47.16,143.51" /><path
         id="path30"
         style="fill:#e72d2c;fill-opacity:1;fill-rule:nonzero;stroke:none"
         d="m 2317.21,625.27 v 0 L 2937.07,2532.7 H 1697.34 L 2317.21,625.27 v 0" /><path
         id="path32"
         style="fill:#f25323;fill-opacity:1;fill-rule:nonzero;stroke:none"
         d="M 2316.75,625.27 1696.89,2532.7 H 828.945 L 2316.75,625.27 v 0" /><path
         id="path34"
         style="fill:#f79118;fill-opacity:1;fill-rule:nonzero;stroke:none"
         d="m 828.652,2532.05 v 0 L 640.027,1952.5 c -17.082,-52.62 1.368,-110.71 46.473,-143.51 L 2316.46,624.621 828.652,2532.05 v 0" /><path
         id="path36"
         style="fill:#e72d2c;fill-opacity:1;fill-rule:nonzero;stroke:none"
         d="m 828.883,2532.05 h 868.627 l -373.83,1148.83 c -19.14,58.77 -102.52,58.77 -122.34,0 L 828.883,2532.05 v 0" /><path
         id="path38"
         style="fill:#f25323;fill-opacity:1;fill-rule:nonzero;stroke:none"
         d="M 2317.21,625.27 2937.07,2532.7 H 3805.7 L 2317.21,625.27 v 0" /><path
         id="path40"
         style="fill:#f79118;fill-opacity:1;fill-rule:nonzero;stroke:none"
         d="m 3805.08,2532.05 v 0 l 188.63,-579.55 c 17.08,-52.62 -1.37,-110.71 -46.48,-143.51 L 2317.27,625.301 3805.08,2532.05 v 0" /><path
         id="path42"
         style="fill:#e72d2c;fill-opacity:1;fill-rule:nonzero;stroke:none"
         d="m 3805.54,2532.05 h -868.63 l 373.14,1148.83 c 19.14,58.77 102.52,58.77 122.34,0 l 373.15,-1148.83 v 0" /></g></g></svg>