<?xml version="1.0" encoding="UTF-8"?>
<svg width="259px" height="54px" viewBox="0 0 259 54" version="1.1" xmlns="http://www.w3.org/2000/svg" xmlns:xlink="http://www.w3.org/1999/xlink">
    <!-- Generator: Sketch 43.1 (39012) - http://www.bohemiancoding.com/sketch -->
    <title>gocardless-colour@1x</title>
    <desc>Created with Sketch.</desc>
    <defs></defs>
    <g id="Page-1" stroke="none" stroke-width="1" fill="none" fill-rule="evenodd">
        <g id="gocardless-colour" fill="#0854B3">
            <g id="Group-2" transform="translate(15.000000, 15.000000)">
                <path d="M12.2782446,24 C4.99533147,24 0,18.9400387 0,12.0696325 L0,12.0232108 C0,5.43133462 5.18207283,-3.55271368e-15 12.2315593,-3.55271368e-15 C16.43324,-3.55271368e-15 18.9542484,1.11411992 21.3818861,3.20309478 L18.1605976,7.10251451 C16.3398693,5.61702128 14.7525677,4.73500967 12.0448179,4.73500967 C8.30999066,4.73500967 5.32212885,8.03094778 5.32212885,11.9767892 L5.32212885,12.0232108 C5.36881419,16.2475822 8.30999066,19.3578337 12.4183007,19.3578337 C14.2857143,19.3578337 15.9663866,18.893617 17.2735761,17.9651838 L17.2735761,14.6692456 L12.0915033,14.6692456 L12.0915033,10.2591876 L22.2222222,10.2591876 L22.2222222,20.3326886 C19.8412698,22.3288201 16.5266106,24 12.2782446,24" id="Shape"></path>
                <path d="M36.86629,24 C29.905838,24 24.8888889,18.6615087 24.8888889,12.0696325 L24.8888889,12.0232108 C24.8888889,5.43133462 29.9510358,-3.55271368e-15 36.9114878,-3.55271368e-15 C43.8719397,-3.55271368e-15 48.8888889,5.3384913 48.8888889,11.9303675 L48.8888889,11.9767892 C48.8888889,18.615087 43.826742,24 36.86629,24 L36.86629,24 Z M43.6911488,11.9767892 C43.6911488,7.98452611 40.8436911,4.68858801 36.86629,4.68858801 C32.8436911,4.68858801 30.086629,7.93810445 30.086629,11.9303675 L30.086629,11.9767892 C30.086629,15.9690522 32.9340866,19.2649903 36.9114878,19.2649903 C40.9340866,19.2649903 43.6911488,16.0154739 43.6911488,12.0232108 L43.6911488,11.9767892 L43.6911488,11.9767892 Z" id="Shape"></path>
                <path d="M64.7367901,24 C58.1945679,24 53.3333333,18.7079304 53.3333333,12.0232108 C53.3333333,5.38491296 58.1491358,-3.55271368e-15 64.8276543,-3.55271368e-15 C68.9619753,-3.55271368e-15 71.4153086,1.48549323 73.6869136,3.66731141 L71.9150617,5.57059961 C70.0069136,3.71373308 67.8716049,2.36750484 64.7822222,2.36750484 C59.7392593,2.36750484 55.9683951,6.49903288 55.9683951,11.9303675 C55.9683951,17.3152805 59.7846914,21.5396518 64.7822222,21.5396518 C67.917037,21.5396518 69.9614815,20.3326886 72.0967901,18.1972921 L73.7777778,19.868472 C71.4607407,22.3752418 68.8711111,24 64.7367901,24" id="Shape"></path>
                <path d="M98.6666667,23.1111111 L95.8969657,23.1111111 L93.2180747,17.0582011 L80.8679328,17.0582011 L78.1890417,23.1111111 L75.5555556,23.1111111 L85.9078804,3.55271368e-15 L88.3143418,3.55271368e-15 L98.6666667,23.1111111 L98.6666667,23.1111111 Z M87.0884086,3.02645503 L81.9122462,14.7195767 L92.2645711,14.7195767 L87.0884086,3.02645503 L87.0884086,3.02645503 Z" id="Shape"></path>
                <path d="M118.621578,24 L112.083736,15.0328889 L105.636071,15.0328889 L105.636071,24 L103.111111,24 L103.111111,0.888888889 L112.805153,0.888888889 C117.764895,0.888888889 120.966184,3.616 120.966184,7.776 C120.966184,11.6586667 118.396135,13.8773333 114.834138,14.5244444 L121.777778,23.9537778 L118.621578,23.9537778 L118.621578,24 Z M112.624799,3.29244444 L105.681159,3.29244444 L105.681159,12.6755556 L112.624799,12.6755556 C116.006441,12.6755556 118.441224,10.8728889 118.441224,7.86844444 C118.396135,5.00266667 116.231884,3.29244444 112.624799,3.29244444 L112.624799,3.29244444 Z" id="Shape"></path>
                <path d="M134.307071,24 L126.222222,24 L126.222222,0.888888889 L134.307071,0.888888889 C141.60202,0.888888889 146.666667,5.88088889 146.666667,12.3982222 C146.620202,18.9155556 141.60202,24 134.307071,24 M134.307071,3.29244444 L128.870707,3.29244444 L128.870707,21.5964444 L134.307071,21.5964444 C140.161616,21.5964444 143.925253,17.6213333 143.925253,12.4906667 C143.925253,7.31377778 140.161616,3.29244444 134.307071,3.29244444" id="Shape"></path>
                <polygon id="Shape" points="152 0.888888889 154.650888 0.888888889 154.650888 21.555112 168 21.555112 168 24 152 24"></polygon>
                <polygon id="Shape" points="186.53516 3.28764693 173.165297 3.28764693 173.165297 11.1758705 185.088584 11.1758705 185.088584 13.5284986 173.165297 13.5284986 173.165297 21.601242 186.666667 21.601242 186.666667 24 170.666667 24 170.666667 0.888888889 186.53516 0.888888889"></polygon>
                <path d="M200.658963,10.7392996 C205.658074,11.8599222 208,13.7743191 208,17.3696498 C208,21.385214 204.80237,24 200.298667,24 C196.740741,24 193.813333,22.7859922 191.111111,20.2645914 L192.687407,18.3501946 C195.029333,20.5447471 197.281185,21.6653696 200.388741,21.6653696 C203.406222,21.6653696 205.387852,20.0311284 205.387852,17.6498054 C205.387852,15.4552529 204.261926,14.1945525 199.533037,13.1673152 C194.353778,12 191.966815,10.2723735 191.966815,6.39688716 C191.966815,2.6614786 195.07437,-3.55271368e-15 199.352889,-3.55271368e-15 C202.640593,-3.55271368e-15 204.982519,0.980544747 207.279407,2.84824903 L205.793185,4.90272374 C203.721481,3.12840467 201.604741,2.38132296 199.307852,2.38132296 C196.380444,2.38132296 194.533926,4.06225681 194.533926,6.16342412 C194.533926,8.40466926 195.659852,9.66536965 200.658963,10.7392996" id="Shape"></path>
                <path d="M221.103407,10.7392996 C226.102519,11.8599222 228.444444,13.7743191 228.444444,17.3696498 C228.444444,21.385214 225.246815,24 220.743111,24 C217.185185,24 214.257778,22.7859922 211.555556,20.2645914 L213.131852,18.3501946 C215.473778,20.5447471 217.72563,21.6653696 220.833185,21.6653696 C223.850667,21.6653696 225.832296,20.0311284 225.832296,17.6498054 C225.832296,15.4552529 224.70637,14.1945525 219.977481,13.1673152 C214.798222,12 212.411259,10.2723735 212.411259,6.39688716 C212.411259,2.6614786 215.518815,-3.55271368e-15 219.797333,-3.55271368e-15 C223.085037,-3.55271368e-15 225.426963,0.980544747 227.723852,2.84824903 L226.23763,4.90272374 C224.165926,3.12840467 222.049185,2.38132296 219.752296,2.38132296 C216.824889,2.38132296 214.97837,4.06225681 214.97837,6.16342412 C214.97837,8.40466926 216.149333,9.66536965 221.103407,10.7392996" id="Shape"></path>
            </g>
        </g>
    </g>
</svg>