<?xml version="1.0" encoding="utf-8"?>
<!-- Generator: Adobe Illustrator 22.1.0, SVG Export Plug-In . SVG Version: 6.00 Build 0)  -->
<svg version="1.1" id="Layer_1" xmlns="http://www.w3.org/2000/svg" xmlns:xlink="http://www.w3.org/1999/xlink" x="0px" y="0px"
	 width="307px" height="74px" viewBox="0 0 307 74" style="enable-background:new 0 0 307 74;" xml:space="preserve">
<style type="text/css">
	.st0{fill:#303030;}
	.st1{fill:url(#SVGID_1_);}
	.st2{fill:url(#SVGID_2_);}
	.st3{fill:url(#SVGID_3_);}
	.st4{fill:url(#SVGID_4_);}
	.st5{fill:url(#SVGID_5_);}
</style>
<g>
	<g>
		<path class="st0" d="M88.4,38.9c-0.3,8.6-7.1,15.2-15.5,15.2c-8.9,0-15.4-7.2-15.4-15.8c0-8.7,7.1-15.9,15.8-15.9
			c3.9,0,7.8,1.7,11,4.7l-2.5,3.1c-2.5-2.2-5.5-3.6-8.5-3.6c-6.4,0-11.6,5.2-11.6,11.7c0,6.5,4.9,11.6,11.2,11.6
			c5.7,0,10.1-4.1,11-9.5H71v-3.8h17.3V38.9z"/>
		<path class="st0" d="M103.1,36.9h-2.4c-2.6,0-4.7,2.1-4.7,4.7v12.3h-4.2V32.8h3.5v1.8c1.1-1.1,3-1.8,5-1.8h4.6L103.1,36.9z"/>
		<path class="st0" d="M126.1,53.9h-3.6v-2.7c-2.8,2.7-7.2,4-11.6,2.1c-3.3-1.4-5.7-4.4-6.4-8c-1.3-6.8,4-12.9,10.7-12.9
			c2.8,0,5.4,1.1,7.2,3v-2.7h3.6V53.9z M121.8,44.9c1-4.3-2.3-8.2-6.5-8.2c-3.7,0-6.6,3-6.6,6.6c0,4.1,3.6,7.3,7.8,6.6
			C119.1,49.5,121.2,47.4,121.8,44.9z"/>
		<path class="st0" d="M134.6,31.6v1.2h6.7v3.7h-6.7v17.4h-4.2V31.8c0-4.6,3.3-7.4,7.5-7.4h5.1l-1.7,4h-3.4
			C136.1,28.3,134.6,29.8,134.6,31.6z"/>
		<path class="st0" d="M163.7,53.9h-3.6v-2.7c-2.8,2.7-7.2,4-11.6,2.1c-3.3-1.4-5.7-4.4-6.4-8c-1.3-6.8,4-12.9,10.7-12.9
			c2.8,0,5.4,1.1,7.2,3v-2.7h3.6V53.9z M159.4,44.9c1-4.3-2.3-8.2-6.5-8.2c-3.7,0-6.6,3-6.6,6.6c0,4.1,3.6,7.3,7.8,6.6
			C156.6,49.5,158.8,47.4,159.4,44.9z"/>
		<path class="st0" d="M186.2,41.4v12.5H182V41.4c0-2.6-2.2-4.7-4.7-4.7c-2.7,0-4.8,2.1-4.8,4.7v12.5h-4.2V32.8h3.5v1.8
			c1.5-1.4,3.5-2.2,5.7-2.2C182.3,32.5,186.2,36.5,186.2,41.4z"/>
		<path class="st0" d="M211,53.9h-3.6v-2.7c-2.8,2.7-7.2,4-11.6,2.1c-3.3-1.4-5.7-4.4-6.4-8c-1.3-6.8,4-12.9,10.7-12.9
			c2.8,0,5.4,1.1,7.2,3v-2.7h3.6V53.9z M206.7,44.9c1-4.3-2.3-8.2-6.5-8.2c-3.7,0-6.6,3-6.6,6.6c0,4.1,3.6,7.3,7.8,6.6
			C204,49.5,206.1,47.4,206.7,44.9z"/>
	</g>
	<g>
		<linearGradient id="SVGID_1_" gradientUnits="userSpaceOnUse" x1="227.9495" y1="68.3014" x2="227.9495" y2="23.9152">
			<stop  offset="0" style="stop-color:#FFF200"/>
			<stop  offset="1" style="stop-color:#F15A29"/>
		</linearGradient>
		<path class="st1" d="M235.9,53.9H220V22.5h4.2v27.1h11.7V53.9z"/>
		<linearGradient id="SVGID_2_" gradientUnits="userSpaceOnUse" x1="247.5614" y1="68.3014" x2="247.5614" y2="23.9152">
			<stop  offset="0" style="stop-color:#FFF200"/>
			<stop  offset="1" style="stop-color:#F15A29"/>
		</linearGradient>
		<path class="st2" d="M258.5,53.9h-3.6v-2.7c-1.9,1.8-4.5,3-7.3,3c-6.1,0-11-4.9-11-11c0-6,4.9-10.9,11-10.9c2.8,0,5.4,1.1,7.3,3
			v-2.7h3.6V53.9z M254.3,43.3c0-3.7-3-6.7-6.7-6.7c-3.7,0-6.7,3-6.7,6.7c0,3.7,3,6.7,6.7,6.7C251.4,50,254.3,47,254.3,43.3z"/>
		<linearGradient id="SVGID_3_" gradientUnits="userSpaceOnUse" x1="272.9891" y1="68.3014" x2="272.9891" y2="23.9152">
			<stop  offset="0" style="stop-color:#FFF200"/>
			<stop  offset="1" style="stop-color:#F15A29"/>
		</linearGradient>
		<path class="st3" d="M283.9,43.3c0,6-4.9,11-11,11c-2.8,0-5.5-1.2-7.3-3v2.7h-3.6V24.2h4.2v10.7c1.7-1.6,4.1-2.5,6.7-2.5
			C279,32.4,283.9,37.2,283.9,43.3z M279.6,43.3c0-3.7-3-6.7-6.7-6.7s-6.7,3-6.7,6.7c0,3.7,3,6.6,6.7,6.6S279.6,47,279.6,43.3z"/>
		<linearGradient id="SVGID_4_" gradientUnits="userSpaceOnUse" x1="292.3043" y1="68.3014" x2="292.3043" y2="23.9152">
			<stop  offset="0" style="stop-color:#FFF200"/>
			<stop  offset="1" style="stop-color:#F15A29"/>
		</linearGradient>
		<path class="st4" d="M298.4,34.2l-1.9,3.1c-0.9-0.6-2.4-1.4-4.1-1.4c-1.6,0-3.1,0.8-3.1,2.1c0,1.4,1.7,2,3.7,2.8
			c3.4,1.2,6.4,3.5,6.4,7c0,3.5-3,6.5-7.3,6.5c-2.6,0-5.3-1.1-7-2.2l1.7-3.5c1.2,0.7,3.5,1.6,5.3,1.6c2.1,0,3.1-1.3,3.1-2.5
			c0-1.4-1.3-2.2-4.2-3.4c-2.1-0.8-5.6-2.2-5.6-6c0-3.5,3-5.9,7-5.9C294.7,32.4,296.7,33.2,298.4,34.2z"/>
	</g>
	<linearGradient id="SVGID_5_" gradientUnits="userSpaceOnUse" x1="30.0916" y1="72.5777" x2="30.0916" y2="27.7381">
		<stop  offset="0" style="stop-color:#FFF200"/>
		<stop  offset="1" style="stop-color:#F15A29"/>
	</linearGradient>
	<path class="st5" d="M52.6,34.1c-0.1-0.8-0.2-1.8-0.5-2.8c-0.3-1-0.7-2.2-1.3-3.4c-0.6-1.2-1.4-2.4-2.4-3.6
		c-0.4-0.5-0.8-0.9-1.3-1.4c0.7-2.7-0.8-5.1-0.8-5.1c-2.6-0.2-4.3,0.8-4.9,1.3c-0.1,0-0.2-0.1-0.3-0.1c-0.5-0.2-0.9-0.4-1.4-0.5
		c-0.5-0.1-1-0.3-1.5-0.4c-0.5-0.1-1-0.2-1.5-0.3c-0.1,0-0.2,0-0.3,0C35.3,14,32,12.5,32,12.5c-3.7,2.3-4.4,5.6-4.4,5.6s0,0.1,0,0.2
		c-0.2,0.1-0.4,0.1-0.6,0.2c-0.3,0.1-0.6,0.2-0.8,0.3c-0.3,0.1-0.6,0.2-0.8,0.3c-0.6,0.2-1.1,0.5-1.6,0.8c-0.5,0.3-1,0.6-1.5,1
		c-0.1,0-0.1-0.1-0.1-0.1c-5.1-2-9.6,0.4-9.6,0.4c-0.4,5.4,2,8.9,2.5,9.5c-0.1,0.3-0.2,0.7-0.3,1c-0.4,1.2-0.7,2.5-0.8,3.8
		c0,0.2,0,0.4-0.1,0.6c-4.7,2.3-6.1,7.1-6.1,7.1C11.4,47.7,16,48,16,48c0,0,0,0,0,0c0.6,1,1.3,2,2,3c0.3,0.4,0.7,0.8,1,1.1
		c-1.4,4.1,0.2,7.5,0.2,7.5c4.4,0.2,7.3-1.9,7.9-2.4c0.4,0.1,0.9,0.3,1.3,0.4c1.3,0.3,2.7,0.6,4.1,0.6c0.3,0,0.7,0,1,0l0.2,0l0.1,0
		l0.2,0l0.2,0l0,0c2.1,2.9,5.7,3.4,5.7,3.4c2.6-2.7,2.7-5.4,2.7-6l0,0c0,0,0,0,0,0c0,0,0-0.1,0-0.1s0,0,0,0c0,0,0-0.1,0-0.1
		c0.5-0.4,1.1-0.8,1.5-1.2c1-0.9,1.9-2,2.7-3.1c0.1-0.1,0.1-0.2,0.2-0.3c2.9,0.2,5-1.8,5-1.8c-0.5-3-2.2-4.5-2.6-4.8l0,0
		c0,0,0,0,0,0c0,0,0,0,0,0c0,0,0,0,0,0c0,0,0,0-0.1,0c0-0.2,0-0.4,0-0.6c0-0.3,0-0.7,0-1l0-0.2l0-0.1l0-0.1c0-0.1,0-0.1,0-0.1l0-0.2
		l0-0.3c0-0.1,0-0.2,0-0.3c0-0.1,0-0.2,0-0.3l0-0.3l0-0.3c0-0.3-0.1-0.7-0.2-1c-0.3-1.3-0.8-2.6-1.5-3.7c-0.7-1.1-1.5-2.1-2.5-2.9
		c-0.9-0.8-2-1.5-3.1-2c-1.1-0.5-2.3-0.8-3.5-1c-0.6-0.1-1.2-0.1-1.7-0.1l-0.2,0l-0.1,0c0,0-0.1,0-0.1,0l-0.1,0l-0.2,0
		c-0.1,0-0.2,0-0.2,0c-0.3,0-0.6,0.1-0.9,0.1C34,30,32.9,30.4,31.9,31c-1,0.6-1.8,1.3-2.5,2.1c-0.7,0.8-1.2,1.7-1.6,2.7
		c-0.4,0.9-0.6,1.9-0.6,2.8c0,0.2,0,0.5,0,0.7c0,0.1,0,0.1,0,0.2l0,0.2c0,0.1,0,0.2,0,0.3c0,0.5,0.1,0.9,0.3,1.4
		c0.3,0.9,0.7,1.7,1.2,2.4c0.5,0.7,1.1,1.2,1.7,1.7c0.6,0.4,1.3,0.7,2,0.9c0.7,0.2,1.3,0.3,2,0.3c0.1,0,0.2,0,0.2,0c0,0,0.1,0,0.1,0
		c0,0,0.1,0,0.1,0c0.1,0,0.1,0,0.2,0c0,0,0,0,0.1,0l0.1,0c0,0,0.1,0,0.1,0c0.1,0,0.2,0,0.2,0c0.1,0,0.1,0,0.2,0
		c0.1,0,0.3-0.1,0.4-0.1c0.3-0.1,0.5-0.2,0.8-0.3c0.2-0.1,0.5-0.3,0.7-0.4c0.1,0,0.1-0.1,0.2-0.1c0.2-0.2,0.3-0.5,0.1-0.7
		c-0.2-0.2-0.4-0.2-0.6-0.1c-0.1,0-0.1,0.1-0.2,0.1c-0.2,0.1-0.4,0.2-0.6,0.2c-0.2,0.1-0.4,0.1-0.6,0.2c-0.1,0-0.2,0-0.3,0
		c-0.1,0-0.1,0-0.2,0c-0.1,0-0.1,0-0.2,0c-0.1,0-0.1,0-0.2,0c-0.1,0-0.1,0-0.2,0c0,0,0,0,0,0l0,0l0,0c0,0-0.1,0-0.1,0
		c-0.1,0-0.1,0-0.2,0c-0.5-0.1-1-0.2-1.5-0.4c-0.5-0.2-0.9-0.5-1.4-0.9c-0.4-0.4-0.8-0.8-1.1-1.3c-0.3-0.5-0.5-1.1-0.6-1.7
		c0-0.3-0.1-0.6-0.1-0.9c0-0.1,0-0.2,0-0.2c0,0,0,0,0,0l0,0l0-0.1c0,0,0-0.1,0-0.1c0-0.2,0-0.3,0.1-0.5c0.2-1.3,0.9-2.6,1.9-3.5
		c0.3-0.2,0.5-0.5,0.8-0.7c0.3-0.2,0.6-0.4,0.9-0.5c0.3-0.1,0.7-0.3,1-0.4c0.3-0.1,0.7-0.2,1.1-0.2c0.2,0,0.4,0,0.5,0
		c0,0,0.1,0,0.1,0l0.1,0l0.1,0c0,0,0,0,0,0l0,0l0.1,0c0.4,0,0.8,0.1,1.2,0.2c0.8,0.2,1.5,0.4,2.2,0.8c1.4,0.8,2.6,2,3.3,3.4
		c0.4,0.7,0.6,1.5,0.7,2.3c0,0.2,0.1,0.4,0.1,0.6l0,0.2l0,0.2c0,0.1,0,0.1,0,0.2c0,0.1,0,0.1,0,0.1l0,0.1l0,0.1c0,0.1,0,0.3,0,0.4
		c0,0.2,0,0.4-0.1,0.7c0,0.2-0.1,0.4-0.1,0.6c0,0.2-0.1,0.4-0.1,0.6c-0.1,0.4-0.2,0.8-0.4,1.3c-0.3,0.8-0.8,1.6-1.3,2.3
		c-1,1.4-2.5,2.6-4.1,3.3c-0.8,0.4-1.7,0.6-2.5,0.8c-0.4,0.1-0.9,0.1-1.3,0.1l-0.1,0l-0.1,0l-0.1,0l-0.2,0l-0.1,0c0.1,0,0,0,0,0l0,0
		c-0.2,0-0.5,0-0.7,0c-0.9-0.1-1.9-0.2-2.8-0.5c-0.9-0.3-1.8-0.6-2.6-1.1c-1.7-0.9-3.2-2.1-4.3-3.6c-0.6-0.7-1.1-1.5-1.5-2.4
		c-0.4-0.8-0.8-1.7-1-2.6c-0.2-0.9-0.4-1.8-0.5-2.7l0-0.2l0,0l0,0l0-0.1l0-0.2l0,0l0-0.1l0-0.1l0-0.2l0,0c0,0,0,0,0,0l0-0.1
		c0-0.1,0-0.2,0-0.3c0-0.5,0.1-0.9,0.1-1.4c0.1-0.5,0.1-0.9,0.2-1.4c0.1-0.5,0.2-0.9,0.3-1.4c0.3-0.9,0.6-1.8,1-2.6
		c0.8-1.7,1.8-3.1,3-4.3c0.3-0.3,0.6-0.6,0.9-0.8c0.3-0.3,0.7-0.5,1-0.7c0.3-0.2,0.7-0.4,1.1-0.6c0.2-0.1,0.4-0.2,0.6-0.3
		c0.1,0,0.2-0.1,0.3-0.1c0.1,0,0.2-0.1,0.3-0.1c0.4-0.2,0.8-0.3,1.2-0.4c0.1,0,0.2-0.1,0.3-0.1c0.1,0,0.2-0.1,0.3-0.1
		c0.2-0.1,0.4-0.1,0.6-0.2c0.1,0,0.2,0,0.3-0.1c0.1,0,0.2,0,0.3-0.1c0.1,0,0.2,0,0.3-0.1l0.2,0l0.2,0c0.1,0,0.2,0,0.3,0
		c0.1,0,0.2,0,0.3,0c0.1,0,0.3,0,0.3,0c0.1,0,0.1,0,0.2,0l0.1,0l0.1,0l0.1,0c0.1,0,0.2,0,0.4,0l0.2,0c0,0,0.1,0,0,0l0,0l0.1,0
		c0.1,0,0.2,0,0.3,0c0.4,0,0.8,0,1.2,0c0.8,0,1.6,0.1,2.3,0.3c1.5,0.3,2.9,0.8,4.2,1.4c1.3,0.6,2.4,1.4,3.4,2.2
		c0.1,0.1,0.1,0.1,0.2,0.2c0.1,0.1,0.1,0.1,0.2,0.2c0.1,0.1,0.2,0.2,0.4,0.3c0.1,0.1,0.2,0.2,0.3,0.3c0.1,0.1,0.2,0.2,0.3,0.3
		c0.4,0.4,0.8,0.9,1.2,1.4c0.7,0.9,1.3,1.8,1.7,2.7c0,0.1,0.1,0.1,0.1,0.2c0,0.1,0.1,0.1,0.1,0.2c0.1,0.1,0.1,0.2,0.2,0.3
		c0,0.1,0.1,0.2,0.1,0.3c0,0.1,0.1,0.2,0.1,0.3c0.2,0.4,0.3,0.8,0.4,1.2c0.2,0.6,0.4,1.1,0.5,1.6c0,0.2,0.2,0.3,0.4,0.3
		c0.2,0,0.3-0.2,0.4-0.4C52.7,35.4,52.7,34.8,52.6,34.1z"/>
</g>
</svg>
