<?xml version="1.0" encoding="UTF-8" standalone="no"?>
<svg
   xmlns:dc="http://purl.org/dc/elements/1.1/"
   xmlns:cc="http://creativecommons.org/ns#"
   xmlns:rdf="http://www.w3.org/1999/02/22-rdf-syntax-ns#"
   xmlns:svg="http://www.w3.org/2000/svg"
   xmlns="http://www.w3.org/2000/svg"
   viewBox="0 0 1023.9825 227.6725"
   height="227.6725"
   width="1023.9825"
   xml:space="preserve"
   version="1.1"
   id="svg2"><metadata
     id="metadata8"><rdf:RDF><cc:Work
         rdf:about=""><dc:format>image/svg+xml</dc:format><dc:type
           rdf:resource="http://purl.org/dc/dcmitype/StillImage" /><dc:title></dc:title></cc:Work></rdf:RDF></metadata><defs
     id="defs6"><clipPath
       id="clipPath16"
       clipPathUnits="userSpaceOnUse"><path
         id="path18"
         d="m 0,182.138 819.186,0 L 819.186,0 0,0 0,182.138 Z" /></clipPath></defs><g
     transform="matrix(1.25,0,0,-1.25,0,227.6725)"
     id="g10"><g
       id="g12"><g
         clip-path="url(#clipPath16)"
         id="g14"><g
           transform="translate(132.3334,91.0816)"
           id="g20"><path
             id="path22"
             style="fill:#f37321;fill-opacity:1;fill-rule:nonzero;stroke:none"
             d="m 0,0 c 0,-16.215 -13.161,-29.323 -29.344,-29.323 -16.227,0 -29.372,13.108 -29.372,29.323 0,16.203 13.145,29.286 29.372,29.286 C -13.161,29.286 0,16.203 0,0 m 32.283,-8.163 0,16.182 -12.989,-0.703 c -0.206,1.493 -0.502,2.96 -0.888,4.427 l 12.278,4.328 -6.17,15.02 -11.698,-5.648 c -0.83,1.221 -1.71,2.462 -2.557,3.707 L 19.977,37.844 8.5,49.291 -0.23,39.545 c -1.171,0.938 -2.393,1.801 -3.7,2.565 l 5.619,11.719 -14.978,6.194 -4.295,-12.339 c -1.443,0.407 -2.935,0.691 -4.402,0.97 l 0.715,12.989 -16.232,0 0.794,-12.989 c -1.559,-0.279 -2.968,-0.563 -4.432,-0.97 l -4.336,12.339 -14.949,-6.194 5.594,-11.719 c -1.25,-0.764 -2.45,-1.627 -3.708,-2.565 l -8.718,9.746 -11.427,-11.447 9.771,-8.694 c -0.954,-1.245 -1.854,-2.486 -2.623,-3.707 l -11.665,5.648 -6.215,-15.02 12.311,-4.328 c -0.378,-1.467 -0.67,-2.934 -0.921,-4.427 l -13.001,0.703 0,-16.182 13.001,0.731 c 0.251,-1.5 0.543,-2.922 0.921,-4.394 l -12.311,-4.295 6.215,-14.982 11.665,5.639 c 0.769,-1.29 1.669,-2.503 2.623,-3.773 l -9.771,-8.673 11.427,-11.41 8.718,9.692 c 1.258,-0.945 2.458,-1.784 3.7,-2.565 l -5.615,-11.702 14.978,-6.198 4.336,12.294 c 1.464,-0.399 2.873,-0.67 4.432,-0.921 l -0.794,-12.948 16.232,0 -0.715,12.948 c 1.467,0.251 2.959,0.522 4.402,0.921 l 4.295,-12.294 14.978,6.198 -5.557,11.702 c 1.245,0.781 2.467,1.62 3.638,2.565 l 8.73,-9.692 11.477,11.41 -9.718,8.673 c 0.847,1.27 1.727,2.413 2.557,3.712 l 11.698,-5.578 6.17,14.982 -12.278,4.295 c 0.386,1.472 0.682,2.894 0.888,4.394 l 12.989,-0.731 z" /></g><g
           transform="translate(221.6601,70.9644)"
           id="g24"><path
             id="path26"
             style="fill:#f37321;fill-opacity:1;fill-rule:nonzero;stroke:none"
             d="m 0,0 15.586,0 0,-9.935 -26.593,0 0,58.351 L 0,48.416 0,0 Z" /></g><path
           id="path28"
           style="fill:#f37321;fill-opacity:1;fill-rule:nonzero;stroke:none"
           d="m 269.366,61.031 -10.983,0 0,58.351 10.983,0 0,-58.351 z" /><g
           transform="translate(314.4814,57.8873)"
           id="g30"><path
             id="path32"
             style="fill:#f37321;fill-opacity:1;fill-rule:nonzero;stroke:none"
             d="m 0,0 -24.752,61.495 11.895,0 12.828,-34.65 0.169,0 13.288,34.65 11.822,0 L 0.168,0 0,0 Z" /></g><g
           transform="translate(371.227,109.504)"
           id="g34"><path
             id="path36"
             style="fill:#f37321;fill-opacity:1;fill-rule:nonzero;stroke:none"
             d="m 0,0 0,-12.877 17.584,0 0,-9.878 -17.584,0 0,-15.784 18.271,0 0,-9.934 -29.291,0 0,58.35 29.291,0 L 18.271,0 0,0 Z" /></g><g
           transform="translate(429.6029,92.6383)"
           id="g38"><path
             id="path40"
             style="fill:#f37321;fill-opacity:1;fill-rule:nonzero;stroke:none"
             d="m 0,0 -4.377,0 0,20.72 2.38,0 c 7.653,0 15.401,-0.666 15.401,-10.239 C 13.404,2.219 7.255,0 0,0 m 13.343,23.663 c -4.317,2.956 -9.529,3.079 -14.654,3.079 l -9.602,0 0,-58.302 6.536,0 0,25.526 4.727,0 c 4.973,0 10.021,0.629 14.02,3.876 3.651,2.996 5.61,7.76 5.61,12.553 0,5.15 -2.268,10.272 -6.637,13.268" /></g><g
           transform="translate(472.6029,119.3819)"
           id="g42"><path
             id="path44"
             style="fill:#f37321;fill-opacity:1;fill-rule:nonzero;stroke:none"
             d="m 0,0 30.507,0 0,-6.022 -23.955,0 0,-17.292 23.322,0 0,-6.026 -23.322,0 0,-22.997 23.955,0 0,-5.964 L 0,-58.301 0,0 Z" /></g><g
           transform="translate(535.1566,92.4376)"
           id="g46"><path
             id="path48"
             style="fill:#f37321;fill-opacity:1;fill-rule:nonzero;stroke:none"
             d="m 0,0 0,20.921 1.907,0 c 7.888,0 15.011,-0.916 15.011,-10.53 C 16.918,1.36 9.413,0 1.969,0 L 0,0 Z m 8.677,-5.204 c 9.071,0.769 14.772,7.115 14.772,16.063 0,13.17 -10.403,16.084 -21.542,16.084 l -8.488,0 0,-58.301 6.581,0 0,25.595 1.607,0 17.786,-25.595 8.044,0 -18.76,26.154 z" /></g><g
           transform="translate(611.2347,108.0509)"
           id="g50"><path
             id="path52"
             style="fill:#f37321;fill-opacity:1;fill-rule:nonzero;stroke:none"
             d="m 0,0 c -2.331,4.004 -5.118,6.31 -10.1,6.31 -5.228,0 -9.754,-3.708 -9.754,-9.031 0,-5.031 5.167,-7.333 9.179,-9.141 l 3.872,-1.69 c 7.706,-3.342 14.181,-7.077 14.181,-16.425 0,-10.222 -8.291,-18.032 -18.563,-18.032 -9.417,0 -16.376,6.067 -18.303,15.106 l 6.375,1.772 c 0.846,-5.944 5.438,-10.811 11.826,-10.811 6.308,0 12.03,4.76 12.03,11.357 0,6.811 -5.335,9.142 -10.785,11.612 l -3.609,1.57 c -6.839,3.103 -12.804,6.585 -12.804,14.9 0,9.026 7.761,14.847 16.495,14.847 6.561,0 12.068,-3.289 15.225,-9.047 L 0,0 Z" /></g><g
           transform="translate(669.2943,66.1095)"
           id="g54"><path
             id="path56"
             style="fill:#f37321;fill-opacity:1;fill-rule:nonzero;stroke:none"
             d="m 0,0 c -13.285,0 -24.079,10.954 -24.079,24.12 0,13.255 10.589,24.131 24.079,24.131 13.502,0 24.119,-10.876 24.119,-24.131 C 24.119,10.954 13.387,0 0,0 m 0,54.281 c -16.754,0 -30.659,-13.51 -30.659,-30.215 0,-16.795 13.905,-30.133 30.659,-30.133 16.827,0 30.708,13.338 30.708,30.133 0,16.705 -13.881,30.215 -30.708,30.215" /></g><g
           transform="translate(725.4037,121.8975)"
           id="g58"><path
             id="path60"
             style="fill:#f37321;fill-opacity:1;fill-rule:nonzero;stroke:none"
             d="m 0,0 45.88,-47.676 0,45.16 6.597,0 0,-60.956 -45.983,47.615 0,-44.96 -6.494,0 L 0,0 Z" /></g></g></g></g></svg>