<?xml version="1.0" encoding="UTF-8" standalone="no"?>
<!-- Created with Inkscape (http://www.inkscape.org/) -->

<svg
   xmlns:dc="http://purl.org/dc/elements/1.1/"
   xmlns:cc="http://creativecommons.org/ns#"
   xmlns:rdf="http://www.w3.org/1999/02/22-rdf-syntax-ns#"
   xmlns:svg="http://www.w3.org/2000/svg"
   xmlns="http://www.w3.org/2000/svg"
   xmlns:sodipodi="http://sodipodi.sourceforge.net/DTD/sodipodi-0.dtd"
   xmlns:inkscape="http://www.inkscape.org/namespaces/inkscape"
   version="1.1"
   id="svg2"
   xml:space="preserve"
   width="329.73373"
   height="192.00133"
   viewBox="0 0 329.73373 192.00133"
   sodipodi:docname="NexClipper_BI.svg"
   inkscape:version="0.92.3 (2405546, 2018-03-11)"><metadata
     id="metadata8"><rdf:RDF><cc:Work
         rdf:about=""><dc:format>image/svg+xml</dc:format><dc:type
           rdf:resource="http://purl.org/dc/dcmitype/StillImage" /><dc:title></dc:title></cc:Work></rdf:RDF></metadata><defs
     id="defs6"><clipPath
       clipPathUnits="userSpaceOnUse"
       id="clipPath22"><path
         d="M 0,595.28 H 841.89 V 0 H 0 Z"
         id="path20"
         inkscape:connector-curvature="0" /></clipPath><clipPath
       clipPathUnits="userSpaceOnUse"
       id="clipPath56"><path
         d="m 399.091,324.031 c -3.885,-7.283 -8.577,-14.807 -14.096,-21.604 v 0 c -1.998,-2.459 -4.103,-4.82 -6.317,-7.042 v 0 c -0.049,-0.05 -0.097,-0.098 -0.147,-0.145 v 0 c -4.896,-4.887 -10.327,-9.083 -16.303,-12.096 v 0 c 12.069,2.991 30.723,11.212 49.728,14.398 v 0 c 0.826,2.297 1.645,4.963 2.381,8.002 v 0 c 3.042,12.56 4.798,27.648 -0.823,53.524 v 0 c 0,0 -4.679,-16.766 -14.423,-35.037"
         id="path54"
         inkscape:connector-curvature="0" /></clipPath><linearGradient
       x1="0"
       y1="0"
       x2="1"
       y2="0"
       gradientUnits="userSpaceOnUse"
       gradientTransform="matrix(78.064232,0,0,-78.064232,395.12402,321.10547)"
       spreadMethod="pad"
       id="linearGradient66"><stop
         style="stop-opacity:1;stop-color:#8bc53f"
         offset="0"
         id="stop62" /><stop
         style="stop-opacity:1;stop-color:#0066b2"
         offset="1"
         id="stop64" /></linearGradient><clipPath
       clipPathUnits="userSpaceOnUse"
       id="clipPath76"><path
         d="m 421.119,335.188 c 0.867,-9.531 0.835,-16.98 -0.838,-28.94 v 0 c -0.35,-2.504 -0.783,-5.037 -1.303,-7.588 v 0 c 7.895,1.191 15.678,2.124 22.872,2.611 v 0 c -0.314,13.296 -2.557,28.815 -12.366,45.387 v 0 c -3.489,5.894 -7.911,11.433 -13.506,16.217 v 0 c 0,0 3.641,-11.178 5.141,-27.687"
         id="path74"
         inkscape:connector-curvature="0" /></clipPath><linearGradient
       x1="0"
       y1="0"
       x2="1"
       y2="0"
       gradientUnits="userSpaceOnUse"
       gradientTransform="matrix(78.064209,0,0,-78.064209,395.12354,330.76758)"
       spreadMethod="pad"
       id="linearGradient86"><stop
         style="stop-opacity:1;stop-color:#8bc53f"
         offset="0"
         id="stop82" /><stop
         style="stop-opacity:1;stop-color:#0066b2"
         offset="1"
         id="stop84" /></linearGradient><clipPath
       clipPathUnits="userSpaceOnUse"
       id="clipPath96"><path
         d="m 417.304,366.162 c 0,0 6.493,-4.128 13.444,-13.751 v 0 c 7.131,-9.874 14.558,-21.682 16.126,-44.627 v 0 c 0.136,-2.022 0.231,-4.097 0.27,-6.232 v 0 c 17.276,0.638 27.948,-5.675 28.654,-14.162 v 0 c 20.274,73.888 -38.223,78.895 -54.448,78.895 v 0 c -2.543,0 -4.046,-0.123 -4.046,-0.123"
         id="path94"
         inkscape:connector-curvature="0" /></clipPath><linearGradient
       x1="0"
       y1="0"
       x2="1"
       y2="0"
       gradientUnits="userSpaceOnUse"
       gradientTransform="matrix(78.064926,0,0,-78.064926,395.12305,326.83789)"
       spreadMethod="pad"
       id="linearGradient106"><stop
         style="stop-opacity:1;stop-color:#8bc53f"
         offset="0"
         id="stop102" /><stop
         style="stop-opacity:1;stop-color:#0066b2"
         offset="1"
         id="stop104" /></linearGradient></defs><sodipodi:namedview
     pagecolor="#ffffff"
     bordercolor="#666666"
     borderopacity="1"
     objecttolerance="10"
     gridtolerance="10"
     guidetolerance="10"
     inkscape:pageopacity="0"
     inkscape:pageshadow="2"
     inkscape:window-width="1917"
     inkscape:window-height="2107"
     id="namedview4"
     showgrid="false"
     fit-margin-top="0"
     fit-margin-left="0"
     fit-margin-right="0"
     fit-margin-bottom="0"
     inkscape:zoom="1.1893563"
     inkscape:cx="10.632623"
     inkscape:cy="91.944046"
     inkscape:window-x="1920"
     inkscape:window-y="53"
     inkscape:window-maximized="0"
     inkscape:current-layer="g10" /><g
     id="g10"
     inkscape:groupmode="layer"
     inkscape:label="NexClipper_BI"
     transform="matrix(1.3333333,0,0,-1.3333333,-396.63132,488.37999)"><g
       id="g12"
       transform="translate(320.9785,241.165)"><path
         d="m 0,0 -18.106,23.36 h -5.399 V -9.408 h 5.698 v 23.36 L 0.3,-9.408 H 5.693 V 23.36 H 0 Z"
         style="fill:#403f41;fill-opacity:1;fill-rule:nonzero;stroke:none"
         id="path14"
         inkscape:connector-curvature="0" /></g><g
       id="g16"><g
         id="g18"
         clip-path="url(#clipPath22)"><path
           d="m 338.659,250.878 h 10.009 v -4.084 h -10.009 z m 14.086,4.081 c -0.442,0.44 -0.967,0.794 -1.556,1.048 -0.597,0.258 -1.248,0.39 -1.931,0.39 h -11.19 c -0.67,0 -1.312,-0.132 -1.909,-0.39 -0.593,-0.254 -1.116,-0.608 -1.555,-1.047 -0.443,-0.439 -0.798,-0.965 -1.052,-1.558 -0.261,-0.596 -0.393,-1.247 -0.393,-1.934 v -14.781 c 0,-0.688 0.132,-1.34 0.39,-1.931 0.257,-0.597 0.612,-1.123 1.051,-1.558 0.434,-0.441 0.96,-0.795 1.556,-1.051 0.601,-0.259 1.244,-0.39 1.912,-0.39 h 16.118 v 5.521 h -15.527 v 3.994 h 15.527 v 10.196 c 0,0.683 -0.13,1.334 -0.39,1.929 -0.256,0.598 -0.61,1.124 -1.051,1.562"
           style="fill:#403f41;fill-opacity:1;fill-rule:nonzero;stroke:none"
           id="path24"
           inkscape:connector-curvature="0" /><g
           id="g26"
           transform="translate(382.4365,256.3975)"><path
             d="M 0,0 H -6.709 L -12.316,-7.534 -17.949,0 h -6.693 l 8.962,-12.047 -9.38,-12.594 h 6.716 l 6.028,8.084 6.004,-8.084 h 6.709 l -9.362,12.594 z"
             style="fill:#403f41;fill-opacity:1;fill-rule:nonzero;stroke:none"
             id="path28"
             inkscape:connector-curvature="0" /></g><g
           id="g30"
           transform="translate(412.3203,263.0225)"><path
             d="m 0,0 c -0.455,0.447 -1,0.813 -1.62,1.092 -0.62,0.272 -1.289,0.411 -1.991,0.411 h -17.132 c -0.697,0 -1.366,-0.138 -1.996,-0.413 -0.621,-0.277 -1.163,-0.643 -1.615,-1.09 -0.461,-0.453 -0.833,-0.998 -1.1,-1.621 -0.266,-0.62 -0.4,-1.287 -0.4,-1.983 v -22.554 c 0,-0.699 0.134,-1.366 0.401,-1.985 0.266,-0.623 0.638,-1.169 1.096,-1.628 0.461,-0.462 1.008,-0.831 1.625,-1.094 0.62,-0.266 1.292,-0.401 1.989,-0.401 h 17.132 c 0.703,0 1.371,0.135 1.985,0.401 0.615,0.263 1.163,0.631 1.628,1.092 0.461,0.459 0.83,1.007 1.099,1.633 0.261,0.62 0.393,1.286 0.393,1.982 v 4.642 h -5.696 v -4.052 h -15.95 v 21.375 h 15.95 V -8.27 h 5.696 v 4.666 c 0,0.692 -0.132,1.357 -0.395,1.983 C 0.832,-0.998 0.462,-0.451 0,0"
             style="fill:#403f41;fill-opacity:1;fill-rule:nonzero;stroke:none"
             id="path32"
             inkscape:connector-curvature="0" /></g><path
           d="m 419.42,231.757 h 5.499 v 33.673 h -5.499 z"
           style="fill:#403f41;fill-opacity:1;fill-rule:nonzero;stroke:none"
           id="path34"
           inkscape:connector-curvature="0" /><path
           d="m 431.186,231.757 h 5.519 v 24.641 h -5.519 z"
           style="fill:#403f41;fill-opacity:1;fill-rule:nonzero;stroke:none"
           id="path36"
           inkscape:connector-curvature="0" /><path
           d="m 430.963,259.731 h 5.964 v 5.698 h -5.964 z"
           style="fill:#403f41;fill-opacity:1;fill-rule:nonzero;stroke:none"
           id="path38"
           inkscape:connector-curvature="0" /><path
           d="m 448.469,250.878 h 10.911 v -13.6 h -10.911 z m 14.993,4.081 c -0.441,0.44 -0.969,0.793 -1.563,1.047 -0.594,0.259 -1.245,0.391 -1.93,0.391 h -7.752 c -0.646,0 -1.264,-0.118 -1.84,-0.351 -0.575,-0.234 -1.087,-0.559 -1.524,-0.968 -0.136,-0.13 -0.263,-0.266 -0.384,-0.408 v 1.727 h -5.499 v -34.113 h 5.499 v 9.473 h 11.5 c 0.684,0 1.334,0.131 1.927,0.389 0.604,0.259 1.131,0.612 1.569,1.052 0.443,0.448 0.796,0.973 1.048,1.559 0.257,0.603 0.385,1.252 0.385,1.93 v 14.781 c 0,0.678 -0.128,1.326 -0.385,1.929 -0.252,0.586 -0.605,1.11 -1.051,1.562"
           style="fill:#403f41;fill-opacity:1;fill-rule:nonzero;stroke:none"
           id="path40"
           inkscape:connector-curvature="0" /><path
           d="m 476.441,250.878 h 10.917 v -13.6 h -10.917 z m 14.993,4.078 c -0.44,0.443 -0.963,0.797 -1.557,1.051 -0.597,0.258 -1.246,0.39 -1.928,0.39 h -7.756 c -0.638,0 -1.256,-0.118 -1.844,-0.351 -0.571,-0.233 -1.082,-0.558 -1.514,-0.965 -0.137,-0.129 -0.269,-0.266 -0.394,-0.414 v 1.73 h -5.5 v -34.113 h 5.5 v 9.473 h 11.508 c 0.68,0 1.33,0.131 1.927,0.39 0.6,0.256 1.125,0.611 1.555,1.047 0.444,0.439 0.798,0.965 1.051,1.557 0.261,0.596 0.394,1.248 0.394,1.936 v 14.781 c 0,0.687 -0.133,1.338 -0.392,1.928 -0.255,0.599 -0.609,1.125 -1.05,1.56"
           style="fill:#403f41;fill-opacity:1;fill-rule:nonzero;stroke:none"
           id="path42"
           inkscape:connector-curvature="0" /><path
           d="m 504.419,250.878 h 10.009 v -4.084 h -10.009 z m 14.089,4.082 c -0.447,0.443 -0.971,0.795 -1.559,1.047 -0.598,0.258 -1.249,0.39 -1.931,0.39 h -11.189 c -0.669,0 -1.313,-0.132 -1.911,-0.39 -0.589,-0.254 -1.111,-0.606 -1.555,-1.047 -0.443,-0.441 -0.798,-0.967 -1.051,-1.558 -0.261,-0.594 -0.393,-1.244 -0.393,-1.934 v -14.781 c 0,-0.691 0.132,-1.342 0.391,-1.931 0.255,-0.595 0.61,-1.12 1.048,-1.558 0.439,-0.441 0.964,-0.795 1.56,-1.051 0.599,-0.259 1.243,-0.39 1.911,-0.39 h 16.117 v 5.521 h -15.527 v 3.994 h 15.527 v 10.196 c 0,0.687 -0.132,1.338 -0.391,1.928 -0.249,0.591 -0.602,1.117 -1.047,1.564"
           style="fill:#403f41;fill-opacity:1;fill-rule:nonzero;stroke:none"
           id="path44"
           inkscape:connector-curvature="0" /><g
           id="g46"
           transform="translate(544.3848,253.3984)"><path
             d="m 0,0 c -0.258,0.597 -0.616,1.122 -1.068,1.565 -0.455,0.444 -0.979,0.794 -1.551,1.04 -0.588,0.261 -1.233,0.394 -1.919,0.394 h -4.607 c -0.668,0 -1.301,-0.124 -1.876,-0.363 -0.576,-0.238 -1.095,-0.574 -1.544,-1.005 -0.115,-0.112 -0.225,-0.23 -0.33,-0.353 v 1.721 h -5.497 v -24.641 h 5.497 v 19.121 h 7.766 v -3.964 h 5.518 v 4.554 C 0.389,-1.245 0.257,-0.595 0,0"
             style="fill:#403f41;fill-opacity:1;fill-rule:nonzero;stroke:none"
             id="path48"
             inkscape:connector-curvature="0" /></g></g></g><g
       id="g50"><g
         id="g52"
         clip-path="url(#clipPath56)"><g
           id="g58"><g
             id="g60"><path
               d="m 399.091,324.031 c -3.885,-7.283 -8.577,-14.807 -14.096,-21.604 v 0 c -1.998,-2.459 -4.103,-4.82 -6.317,-7.042 v 0 c -0.049,-0.05 -0.097,-0.098 -0.147,-0.145 v 0 c -4.896,-4.887 -10.327,-9.083 -16.303,-12.096 v 0 c 12.069,2.991 30.723,11.212 49.728,14.398 v 0 c 0.826,2.297 1.645,4.963 2.381,8.002 v 0 c 3.042,12.56 4.798,27.648 -0.823,53.524 v 0 c 0,0 -4.679,-16.766 -14.423,-35.037"
               style="fill:url(#linearGradient66);stroke:none"
               id="path68"
               inkscape:connector-curvature="0" /></g></g></g></g><g
       id="g70"><g
         id="g72"
         clip-path="url(#clipPath76)"><g
           id="g78"><g
             id="g80"><path
               d="m 421.119,335.188 c 0.867,-9.531 0.835,-16.98 -0.838,-28.94 v 0 c -0.35,-2.504 -0.783,-5.037 -1.303,-7.588 v 0 c 7.895,1.191 15.678,2.124 22.872,2.611 v 0 c -0.314,13.296 -2.557,28.815 -12.366,45.387 v 0 c -3.489,5.894 -7.911,11.433 -13.506,16.217 v 0 c 0,0 3.641,-11.178 5.141,-27.687"
               style="fill:url(#linearGradient86);stroke:none"
               id="path88"
               inkscape:connector-curvature="0" /></g></g></g></g><g
       id="g90"><g
         id="g92"
         clip-path="url(#clipPath96)"><g
           id="g98"><g
             id="g100"><path
               d="m 417.304,366.162 c 0,0 6.493,-4.128 13.444,-13.751 v 0 c 7.131,-9.874 14.558,-21.682 16.126,-44.627 v 0 c 0.136,-2.022 0.231,-4.097 0.27,-6.232 v 0 c 17.276,0.638 27.948,-5.675 28.654,-14.162 v 0 c 20.274,73.888 -38.223,78.895 -54.448,78.895 v 0 c -2.543,0 -4.046,-0.123 -4.046,-0.123"
               style="fill:url(#linearGradient106);stroke:none"
               id="path108"
               inkscape:connector-curvature="0" /></g></g></g></g></g></svg>