<?xml version="1.0" encoding="UTF-8" standalone="no"?>
<svg
   xmlns:dc="http://purl.org/dc/elements/1.1/"
   xmlns:cc="http://creativecommons.org/ns#"
   xmlns:rdf="http://www.w3.org/1999/02/22-rdf-syntax-ns#"
   xmlns:svg="http://www.w3.org/2000/svg"
   xmlns="http://www.w3.org/2000/svg"
   viewBox="0 0 161.3875 80.737503"
   height="80.737503"
   width="161.3875"
   xml:space="preserve"
   version="1.1"
   id="svg2"><metadata
     id="metadata8"><rdf:RDF><cc:Work
         rdf:about=""><dc:format>image/svg+xml</dc:format><dc:type
           rdf:resource="http://purl.org/dc/dcmitype/StillImage" /><dc:title></dc:title></cc:Work></rdf:RDF></metadata><defs
     id="defs6" /><g
     transform="matrix(1.25,0,0,-1.25,0,80.7375)"
     id="g10"><g
       transform="scale(0.1,0.1)"
       id="g12"><path
         id="path14"
         style="fill:#b21c28;fill-opacity:1;fill-rule:nonzero;stroke:none"
         d="m 1290.03,488.359 c -1.1,2.164 -3.95,5.739 -11.02,5.739 l -40.09,0 c -7.98,0 -12.99,-1.871 -18.07,-6.914 l -157.97,-136.528 55.22,281.231 c 0.69,4.07 -0.08,7.41 -2.28,9.968 -2.32,2.727 -5.78,4.075 -10.54,4.075 l -33.24,0 c -7.77,0 -12.99,-4.485 -14.33,-12.375 L 980.023,164.563 c -0.726,-3.622 0,-7.004 2.082,-9.524 2.114,-2.562 5.372,-3.984 9.196,-3.984 l 21.819,0 c 7.76,0 13.22,4.679 14.31,12.375 l 15.1,77.715 c 8.51,42.695 47.7,76.062 89.2,76.062 19.09,0 35.65,-7.41 46.64,-20.836 11.55,-14.113 15.66,-33.047 11.52,-53.273 l -15.14,-76.618 c -0.37,-2.488 -1.11,-7.613 2.28,-11.523 3.38,-3.902 8.59,-3.902 10.57,-3.902 l 32.48,0 c 10.05,0 13.18,7.164 15.05,14.648 l 14.37,75.524 c 6.43,33.492 -0.04,64.828 -18.27,88.265 -14.2,18.356 -34.92,30.645 -59.82,35.571 l -8.38,1.628 119.72,103.235 c 2.93,2.976 5.04,5.09 6.26,7.445 2.32,3.664 2.68,7.652 1.02,10.988 z M 276.762,370.07 257.875,280.094 c -7.402,-38.207 -33.73,-79.035 -85.371,-79.035 -23.32,0 -41.875,7.652 -53.754,22.062 -11.355,13.793 -15.352,32.836 -11.273,53.555 l 18.148,91.433 c 8.469,43.75 47.773,76.75 91.395,76.75 23.078,0 39.96,-6.308 50.261,-18.675 13.465,-16.243 12.614,-39.43 9.481,-56.114 z m -47.614,128.543 c -40.812,0 -78.003,-14.527 -78.371,-14.691 C 96.2734,461.785 75.7227,410.473 68.3594,382.105 L 0.28125,14.043 C -0.453125,9.68359 0.246094,6.35156 2.4375,3.82813 4.59375,1.22656 7.84766,0 12.3672,0 l 32.4336,0 c 7.5273,0 12.8984,4.27734 14.3203,11.5586 l 30.8047,166.2304 5.4492,-4.922 c 17.879,-16.281 46.527,-25.601 78.594,-25.601 76.176,0 128.75,47.695 144.254,130.91 l 18.109,89.972 c 6.922,37.688 0.047,70.243 -19.852,94.168 -19.539,23.403 -50.582,36.297 -87.332,36.297 z M 905.684,276.996 c -7.653,-35.078 -30.805,-76.906 -97.504,-76.906 -49.528,0 -52.047,36.949 -52.012,44.394 0.496,40.125 51.277,61.731 150.852,64.133 l 5.293,0.117 -6.629,-31.738 z m -477.711,92.25 c 7.652,35.125 30.765,76.914 97.507,76.914 49.481,0 52.004,-36.906 52.004,-44.351 -0.527,-40.168 -51.312,-61.735 -150.886,-64.176 l -5.293,-0.121 6.668,31.734 z m 558.519,30.934 c 0,62.011 -44.07,96.359 -117.883,96.359 -74.261,0 -128.062,-12.652 -184.879,-104.574 L 602.309,269.27 c -45.008,-69.707 -100.028,-69.18 -128.957,-69.18 -54.895,0 -66.372,27.512 -66.372,50.539 0,6.226 2.524,20.754 4.676,31.34 l 0.699,3.258 3.29,0.109 c 77.48,2.367 221.66,6.715 221.66,123.141 0,54.242 -42.532,90.714 -105.805,90.714 -92.777,0 -148.41,-46.601 -165.379,-138.527 L 349.48,272.93 c -1.585,-9.571 -2.363,-18.313 -2.363,-26.817 0,-62.058 44.074,-99.047 117.895,-99.047 74.261,0 128.754,15.586 183.812,99.047 l 84.442,128.957 c 47.043,78.778 104.004,71.09 127,71.09 54.89,0 66.41,-27.508 66.41,-50.539 0,-6.226 -2.567,-20.758 -4.711,-31.328 l -0.66,-3.262 -3.297,-0.129 c -77.516,-2.308 -221.692,-6.707 -221.692,-123.132 0,-54.25 42.524,-90.704 105.801,-90.704 92.778,0 148.41,46.586 165.383,138.516 l 16.637,87.777 c 1.586,9.524 2.355,18.278 2.355,26.821" /><path
         id="path16"
         style="fill:#b21c28;fill-opacity:1;fill-rule:nonzero;stroke:none"
         d="m 402.832,100.551 c 0.703,-1.0432 0,-2.4455 -1.394,-3.5002 L 395.129,92.5 c -1.399,-0.875 -2.973,-0.5234 -3.852,0.7031 -4.019,4.9024 -10.324,9.2769 -17.504,9.2769 -11.91,0 -18.207,-6.9995 -20.128,-16.9839 L 343.84,34.3867 c -1.75,-9.6289 2.621,-16.9844 15.051,-16.9844 12.257,0 19.082,6.2969 21.007,16.629 l 2.977,16.1093 c 0,0.7032 -0.176,1.3985 -0.695,1.3985 l -13.137,0 c -1.57,0 -1.926,0.5273 -1.746,1.9218 l 1.746,9.461 c 0.352,1.0469 0.879,1.5703 2.457,1.5703 l 26.258,0 c 1.398,0 2.453,-0.7031 1.926,-2.0938 L 394.605,33.8633 C 391.277,16.6992 380.074,4.625 359.941,4.625 338.938,4.10156 325.801,17.0508 329.656,36.1367 l 9.809,49.1914 c 3.496,18.3789 14.004,29.7619 34.133,29.7619 11.207,0 22.933,-4.207 29.234,-14.539" /><path
         id="path18"
         style="fill:#b21c28;fill-opacity:1;fill-rule:nonzero;stroke:none"
         d="M 499.313,77.2773 484.781,43.6602 c -0.523,-0.8711 -0.523,-1.2227 0.524,-1.2227 l 24.336,0 c 1.394,0 1.394,0.3516 1.394,1.4063 l -1.57,32.9101 -0.524,22.2266 c 0,0.6992 -0.699,0.3515 -0.875,-0.1719 L 499.313,77.2773 Z M 515.238,5.67578 c -1.394,0 -2.097,0.35156 -2.449,1.7461 l -1.051,22.40622 c 0,0.3516 -0.172,0.5352 -0.703,0.5352 l -31.332,0 c -0.527,0 -1.051,-0.5352 -1.226,-0.707 -3.149,-7.3516 -6.297,-15.0508 -9.454,-22.23442 -0.523,-1.22657 -1.226,-1.7461 -2.621,-1.7461 l -10.152,0 c -2.105,0 -2.633,1.04297 -1.754,3.32422 l 46.395,103.109 c 0.347,0.883 1.222,1.579 2.621,1.579 l 14.359,0 c 1.399,0 1.926,-0.352 2.27,-1.579 L 527.324,9 c 0,-1.22656 -0.527,-3.32422 -2.976,-3.32422 l -9.11,0" /><path
         id="path20"
         style="fill:#b21c28;fill-opacity:1;fill-rule:nonzero;stroke:none"
         d="m 680.508,5.67578 -9.973,0 c -1.574,0 -1.922,0.70313 -1.574,1.92578 l 13.125,67.92574 c 0.18,0.5235 -0.344,0.5235 -0.695,0.1719 L 670.188,55.2148 644.629,11.6211 c -0.527,-0.6992 -1.758,-2.44141 -3.852,-2.44141 l -6.832,0 c -1.75,0 -2.621,0.34765 -2.972,2.26951 l -7.883,42.3594 -3.324,21.3672 c -0.172,0.1719 -0.524,0.3515 -0.524,0 L 606.113,7.77344 C 605.762,6.37891 605.41,5.67578 603.832,5.67578 l -9.801,0 c -1.222,0 -2.097,0.70313 -1.746,1.92578 L 612.234,110.363 c 0.356,2.098 1.579,3.325 3.684,3.325 l 5.945,0 c 3.157,0 3.332,-0.352 4.035,-2.622 l 11.204,-62.6832 2.972,-19.2578 c 0.352,-0.8711 1.047,-0.6875 1.403,-0.1719 l 10.675,19.7813 35.539,62.4996 c 1.403,1.93 2.274,2.454 4.555,2.454 l 7.871,0 c 2.461,0 2.981,-1.227 2.625,-3.157 L 682.789,7.77344 c -0.351,-1.39453 -1.047,-2.09766 -2.281,-2.09766" /><path
         id="path22"
         style="fill:#b21c28;fill-opacity:1;fill-rule:nonzero;stroke:none"
         d="m 817.965,5.67578 -58.82,0 c -1.235,0 -1.926,0.70313 -1.758,1.92578 L 777.699,111.758 c 0.172,1.055 1.047,1.93 2.446,1.93 l 55.324,0 c 1.219,0 2.105,-0.696 1.926,-1.93 l -1.75,-8.574 c -0.176,-1.227 -0.7,-2.098 -2.278,-2.098 l -41.492,0 c -1.047,0 -1.746,-0.352 -1.93,-1.4063 L 784,69.5703 c 0,-0.7031 0.352,-1.3945 1.055,-1.3945 l 35.183,0 c 1.578,0 2.282,-0.7031 1.742,-2.2774 l 0,0.1719 -1.57,-9.1015 c -0.351,-1.0508 -0.867,-1.5821 -2.273,-1.5821 l -35.188,0 c -0.875,0 -1.578,-0.5234 -1.75,-1.5781 l -6.828,-34.3008 c -0.172,-0.6992 0,-1.0508 1.055,-1.0508 l 44.812,0 c 1.227,0 2.098,-0.7031 1.93,-1.9297 L 820.41,7.77344 c -0.172,-1.39453 -1.051,-2.09766 -2.445,-2.09766" /><path
         id="path24"
         style="fill:#b21c28;fill-opacity:1;fill-rule:nonzero;stroke:none"
         d="m 923.883,55.3867 c -10.668,4.9063 -27.305,11.0352 -27.305,28.3633 0,20.309 16.449,31.34 35.887,31.34 11.027,0 22.578,-3.684 29.234,-10.152 0.703,-0.879 0.352,-2.278 -0.523,-3.333 l -4.906,-6.1245 c -1.391,-1.5742 -2.278,-1.3985 -4.02,0 -7.887,6.1245 -14.887,6.9995 -19.437,6.9995 -11.208,0 -21.176,-5.2417 -21.176,-16.9839 0,-8.5703 9.629,-13.4805 17.504,-17.1523 11.722,-5.4219 28.183,-13.6446 28.183,-29.4063 0,-21.8867 -16.109,-34.14062 -40.793,-34.14062 -10.851,0 -22.926,2.97656 -30.633,10.50782 -0.703,0.8711 -0.351,1.9258 0.52,3.5039 l 5.086,6.4687 c 1.226,1.2305 2.101,1.9258 4.023,0.1836 3.5,-2.8046 12.778,-7.5351 23.633,-7.5351 11.723,0 22.406,7.0078 22.406,19.0859 0,9.8008 -8.753,14.3555 -17.683,18.375" /></g></g></svg>