<?xml version="1.0" encoding="UTF-8" standalone="no"?>
<svg
   xmlns:dc="http://purl.org/dc/elements/1.1/"
   xmlns:cc="http://creativecommons.org/ns#"
   xmlns:rdf="http://www.w3.org/1999/02/22-rdf-syntax-ns#"
   xmlns:svg="http://www.w3.org/2000/svg"
   xmlns="http://www.w3.org/2000/svg"
   version="1.1"
   id="svg2"
   xml:space="preserve"
   width="614.35999"
   height="220.8"
   viewBox="0 0 614.35999 220.8"><metadata
     id="metadata8"><rdf:RDF><cc:Work
         rdf:about=""><dc:format>image/svg+xml</dc:format><dc:type
           rdf:resource="http://purl.org/dc/dcmitype/StillImage" /><dc:title></dc:title></cc:Work></rdf:RDF></metadata><defs
     id="defs6" /><g
     id="g10"
     transform="matrix(1.3333333,0,0,-1.3333333,0,220.8)"><g
       id="g12"
       transform="scale(0.1)"><path
         d="m 1967.17,341.191 c 0,-60.011 -20.59,-105.703 -61.75,-137.101 -37.68,-29.309 -88.63,-43.961 -152.81,-43.961 -88.62,0 -168.86,28.262 -240.72,84.769 l 68.03,104.672 c 61.39,-44.66 120.36,-66.98 176.88,-66.98 44.64,0 66.98,13.941 66.98,41.859 v 2.09 c 0,15.332 -11.51,28.262 -34.54,38.723 -8.38,3.488 -35.58,12.199 -81.63,26.179 -111.64,32.778 -167.46,88.957 -167.46,168.489 v 2.101 c 0,55.11 20.23,99.063 60.7,131.875 37.68,30.692 85.82,46.055 144.43,46.055 75.36,0 145.12,-21.652 209.33,-64.902 L 1893.9,565.18 c -59.32,34.871 -109.9,52.32 -151.76,52.32 -39.08,0 -58.61,-12.922 -58.61,-38.719 v -2.101 c 0,-13.969 11.52,-26.52 34.54,-37.68 9.06,-4.191 35.59,-13.969 79.55,-29.301 51.62,-17.449 89.64,-35.59 114.07,-54.429 36.98,-29.301 55.48,-66.641 55.48,-111.989 v -2.09"
         style="fill:#4d4e56;fill-opacity:1;fill-rule:nonzero;stroke:none"
         id="path14" /><path
         d="M 2354.02,156.988 C 2332.39,99.082 2308.32,58.6016 2281.81,35.5781 2253.9,11.8711 2216.56,0 2169.82,0 c -50.24,0 -97.33,12.9219 -141.29,38.7188 l 53.38,115.1332 c 24.41,-14.653 47.09,-21.981 68.03,-21.981 25.11,0 43.6,12.211 55.47,36.641 l -219.79,563.07 h 168.51 l 127.68,-382.012 122.45,382.012 h 165.36 l -215.6,-574.594"
         style="fill:#4d4e56;fill-opacity:1;fill-rule:nonzero;stroke:none"
         id="path16" /><path
         d="m 3017.8,341.191 c 0,-60.011 -20.59,-105.703 -61.75,-137.101 -37.68,-29.309 -88.63,-43.961 -152.81,-43.961 -88.62,0 -168.86,28.262 -240.72,84.769 l 68.03,104.672 c 61.39,-44.66 120.36,-66.98 176.88,-66.98 44.65,0 66.98,13.941 66.98,41.859 v 2.09 c 0,15.332 -11.51,28.262 -34.54,38.723 -8.37,3.488 -35.58,12.199 -81.63,26.179 -111.64,32.778 -167.46,88.957 -167.46,168.489 v 2.101 c 0,55.11 20.23,99.063 60.7,131.875 37.68,30.692 85.83,46.055 144.43,46.055 75.36,0 145.12,-21.652 209.33,-64.902 L 2944.53,565.18 c -59.32,34.871 -109.9,52.32 -151.76,52.32 -39.07,0 -58.61,-12.922 -58.61,-38.719 v -2.101 c 0,-13.969 11.52,-26.52 34.55,-37.68 9.05,-4.191 35.58,-13.969 79.54,-29.301 51.62,-17.449 89.64,-35.59 114.07,-54.429 36.98,-29.301 55.48,-66.641 55.48,-111.989 v -2.09"
         style="fill:#4d4e56;fill-opacity:1;fill-rule:nonzero;stroke:none"
         id="path18" /><path
         d="m 3505.31,452.141 c 0,45.339 -13.26,82.668 -39.76,111.98 -25.83,28.598 -57.93,42.91 -96.3,42.91 -38.38,0 -70.48,-13.961 -96.28,-41.851 -27.22,-29.321 -40.82,-67 -40.82,-113.039 v -2.102 c 0,-45.359 13.6,-82.68 40.82,-111.98 25.8,-28.618 57.9,-42.918 96.28,-42.918 38.37,0 70.47,14.3 96.3,42.918 26.5,29.3 39.76,66.621 39.76,111.98 z m -2.09,-281.539 v 49.179 c -44.66,-39.761 -102.93,-59.652 -174.79,-59.652 -69.78,0 -128.73,24.75 -176.88,74.312 -52.32,54.43 -78.49,126.278 -78.49,215.598 v 2.102 c 0,89.3 25.81,161.168 77.45,215.593 48.15,49.539 107.44,74.309 177.92,74.309 69.77,0 128.03,-17.445 174.79,-52.328 V 934.617 H 3662.3 V 170.602 h -159.08"
         style="fill:#4d4e56;fill-opacity:1;fill-rule:nonzero;stroke:none"
         id="path20" /><path
         d="m 3762.77,170.602 v 560.98 h 159.1 v -560.98 z m -4.18,622.726 v 141.289 h 167.46 V 793.328 h -167.46"
         style="fill:#4d4e56;fill-opacity:1;fill-rule:nonzero;stroke:none"
         id="path22" /><path
         d="m 4450.66,480.398 c 0,37.672 -13.26,68.711 -39.76,93.141 -25.83,24.422 -58.27,36.641 -97.34,36.641 -39.09,0 -71.54,-12.219 -97.34,-36.641 -25.82,-24.43 -38.72,-55.469 -38.72,-93.141 v -2.097 c 0,-38.379 12.9,-69.781 38.72,-94.199 25.8,-23.731 58.25,-35.582 97.34,-35.582 39.07,0 71.51,12.199 97.34,36.628 26.5,24.411 39.76,55.473 39.76,93.153 z m 157,-183.16 c 0,-103.976 -26.17,-179.66 -78.5,-227.1169 -50.23,-46.0508 -128.39,-69.08204 -234.44,-69.08204 -91.42,0 -174.1,19.55074 -248.05,58.62114 l 54.42,129.7698 c 60.72,-34.18 123.85,-51.289 189.45,-51.289 106.75,0 160.12,43.968 160.12,131.89 v 6.27 c -50.23,-39.77 -111.29,-59.653 -183.15,-59.653 -69.08,0 -127,22.661 -173.74,68.032 -50.23,48.832 -75.35,113.379 -75.35,193.621 v 2.097 c 0,80.211 25.46,144.774 76.39,193.614 46.74,45.351 104.31,68.031 172.7,68.031 69.77,0 130.13,-17.445 181.06,-52.328 v 41.867 h 159.09 V 297.238"
         style="fill:#4d4e56;fill-opacity:1;fill-rule:nonzero;stroke:none"
         id="path24" /><path
         d="m 844.742,173.23 c -147.554,0 -276.172,72.782 -353.234,206.231 -31.098,53.867 -111.289,196.668 -115.324,203.91 -14.528,26.07 -5.164,58.981 20.918,73.512 26.058,14.535 58.976,5.176 73.507,-20.903 0.985,-1.769 83.821,-149.32 114.508,-202.46 76.113,-131.84 215.504,-182.2 372.879,-134.622 28.504,8.614 58.724,-7.527 67.364,-36.117 8.63,-28.57 -7.53,-58.742 -36.106,-67.371 -49.371,-14.898 -97.899,-22.18 -144.512,-22.18"
         style="fill:#0dadca;fill-opacity:1;fill-rule:nonzero;stroke:none"
         id="path26" /><path
         d="m 1067.56,93.2305 h 0.15 z M 856.461,1.80078 C 650.422,1.80078 458.109,98.2109 361.344,265.82 L 140.18,648.879 c -7.168,12.41 -9.11,27.164 -5.399,41.004 3.711,13.847 12.77,25.652 25.18,32.82 l 150.644,86.973 c 25.856,14.922 58.907,6.066 73.825,-19.785 14.925,-25.848 6.074,-58.895 -19.778,-73.817 L 260.813,656.121 454.945,319.859 C 560.191,137.578 810.414,61.5586 1040.08,140.828 1223.54,300.09 1282.84,554.801 1177.6,737.078 L 991.762,1058.96 c -14.926,25.85 -6.074,58.91 19.778,73.83 25.86,14.92 58.9,6.07 73.82,-19.77 l 185.85,-321.887 c 132.47,-229.453 59.85,-547.281 -168.9,-739.2814 -4.84,-4.0703 -10.34,-7.2422 -16.27,-9.4024 C 1010.39,14.9219 932.484,1.80078 856.461,1.80078"
         style="fill:#0dadca;fill-opacity:1;fill-rule:nonzero;stroke:none"
         id="path28" /><path
         d="m 840.227,348.48 c -85.364,0 -157.715,56.829 -194.461,120.481 L 7.25,1574.89 c -14.92578,25.85 -6.07422,58.91 19.7813,73.83 25.8515,14.92 58.8945,6.07 73.8237,-19.77 L 739.371,523.012 c 17.414,-30.16 66.781,-81.91 128.899,-61.864 28.378,9.141 58.859,-6.449 68.019,-34.859 9.149,-28.41 -6.453,-58.867 -34.863,-68.019 -20.914,-6.739 -41.406,-9.79 -61.199,-9.79"
         style="fill:#0dadca;fill-opacity:1;fill-rule:nonzero;stroke:none"
         id="path30" /><path
         d="m 701.965,919.168 c -4.692,0 -9.391,0.617 -13.992,1.848 -13.84,3.711 -25.653,12.761 -32.813,25.175 L 475.992,1256.53 c -14.929,25.85 -6.074,58.91 19.774,73.83 25.859,14.91 58.902,6.07 73.828,-19.79 l 152.152,-263.53 96.774,55.88 c 25.851,14.94 58.898,6.07 73.824,-19.78 14.926,-25.85 6.074,-58.9 -19.778,-73.82 L 728.984,926.418 c -8.293,-4.789 -17.621,-7.25 -27.019,-7.25"
         style="fill:#0dadca;fill-opacity:1;fill-rule:nonzero;stroke:none"
         id="path32" /></g></g></svg>
