<?xml version="1.0" encoding="UTF-8" standalone="no"?>
<svg
   xmlns:dc="http://purl.org/dc/elements/1.1/"
   xmlns:cc="http://creativecommons.org/ns#"
   xmlns:rdf="http://www.w3.org/1999/02/22-rdf-syntax-ns#"
   xmlns:svg="http://www.w3.org/2000/svg"
   xmlns="http://www.w3.org/2000/svg"
   xmlns:sodipodi="http://sodipodi.sourceforge.net/DTD/sodipodi-0.dtd"
   xmlns:inkscape="http://www.inkscape.org/namespaces/inkscape"
   version="1.1"
   id="svg2"
   xml:space="preserve"
   width="2830.5867"
   height="1636.16"
   viewBox="0 0 2830.5867 1636.16"
   sodipodi:docname="Timescale_Logo_Stack copy.eps"><metadata
     id="metadata8"><rdf:RDF><cc:Work
         rdf:about=""><dc:format>image/svg+xml</dc:format><dc:type
           rdf:resource="http://purl.org/dc/dcmitype/StillImage" /></cc:Work></rdf:RDF></metadata><defs
     id="defs6" /><sodipodi:namedview
     pagecolor="#ffffff"
     bordercolor="#666666"
     borderopacity="1"
     objecttolerance="10"
     gridtolerance="10"
     guidetolerance="10"
     inkscape:pageopacity="0"
     inkscape:pageshadow="2"
     inkscape:window-width="640"
     inkscape:window-height="480"
     id="namedview4" /><g
     id="g10"
     inkscape:groupmode="layer"
     inkscape:label="ink_ext_XXXXXX"
     transform="matrix(1.3333333,0,0,-1.3333333,0,1636.16)"><g
       id="g12"
       transform="scale(0.1)"><path
         d="m 10599.1,12271.2 c -2255,0 -4083.02,-1828 -4083.02,-4082.98 0,-2254.99 1828.02,-4082.98 4083.02,-4082.98 2254.9,0 4082.9,1827.99 4082.9,4082.98 0,2254.98 -1828,4082.98 -4082.9,4082.98"
         style="fill:#f9f3cb;fill-opacity:1;fill-rule:nonzero;stroke:none"
         id="path14" /><path
         d="M 1608.53,134.602 H 912.215 V 2955.38 H 0 v 569.24 H 2515.7 V 2955.38 H 1608.53 V 134.602"
         style="fill:#2f2d2e;fill-opacity:1;fill-rule:nonzero;stroke:none"
         id="path16" /><path
         d="M 3450.79,134.602 H 2805.31 V 2487.78 h 645.48 z m 35.58,3018.988 c 0,-198.21 -152.48,-350.7 -355.78,-350.7 -208.38,0 -360.86,152.49 -360.86,355.79 0,208.37 152.48,360.86 360.86,360.86 208.38,0 355.78,-152.49 355.78,-365.95"
         style="fill:#2f2d2e;fill-opacity:1;fill-rule:nonzero;stroke:none"
         id="path18" /><path
         d="M 4539.93,2508.28 V 2213.5 c 147.4,259.22 345.61,376.12 645.47,376.12 304.94,0 528.57,-137.23 640.39,-391.42 157.57,269.44 376.12,391.42 711.56,391.42 238.85,0 437.1,-76.26 569.21,-218.54 142.32,-157.58 188.08,-320.18 188.08,-675.98 V 155.102 H 6649.17 V 1573.1 c 0,320.2 -116.9,472.7 -360.87,472.7 -238.88,0 -376.12,-172.8 -376.12,-472.7 V 155.102 H 5266.71 V 1552.8 c 0,325.3 -121.95,493 -355.75,493 -243.97,0 -371.03,-167.7 -371.03,-493 V 155.102 H 3894.46 V 2508.28 h 645.47"
         style="fill:#2f2d2e;fill-opacity:1;fill-rule:nonzero;stroke:none"
         id="path20" /><path
         d="M 14662.3,385.801 C 14393,141.898 14113.4,35.1016 13757.7,35.1016 c -716.7,0 -1245.3,528.5974 -1245.3,1245.1984 0,742 518.5,1270.65 1250.3,1270.65 350.7,0 640.4,-121.98 940.3,-391.35 l -432,-391.4 c -142.3,142.3 -294.8,208.4 -482.8,208.4 -355.8,0 -620.1,-289.7 -620.1,-676 0,-401.498 269.4,-691.202 645.4,-691.202 167.8,0 289.8,50.903 457.5,198.301 l 391.3,-421.898"
         style="fill:#2f2d2e;fill-opacity:1;fill-rule:nonzero;stroke:none"
         id="path22" /><path
         d="m 15409.3,1275.2 c 0,-411.7 269.4,-721.7 620.1,-721.7 360.8,0 650.5,335.5 650.5,742.1 0,416.7 -264.2,711.5 -645.4,711.5 -366,0 -625.2,-299.9 -625.2,-731.9 z m 1260.5,1194.4 h 645.4 V 116.402 h -645.4 v 325.297 c -218.6,-279.5 -472.7,-406.5974 -818.3,-406.5974 -660.7,0 -1133.4,513.2964 -1133.4,1229.9984 0,742 498.1,1285.85 1184.2,1285.85 320.2,0 538.8,-111.81 767.5,-381.15 v 299.8"
         style="fill:#2f2d2e;fill-opacity:1;fill-rule:nonzero;stroke:none"
         id="path24" /><path
         d="m 17745.6,93.5 v 3390 h 645.5 V 93.5 h -645.5"
         style="fill:#2f2d2e;fill-opacity:1;fill-rule:nonzero;stroke:none"
         id="path26" /><path
         d="m 9455.53,1588 c -39.9,134.2 -118.55,243.3 -236,327.4 -117.44,84 -253.69,126 -408.8,126 -168.39,0 -316.11,-47.2 -443.13,-141.5 -79.76,-59 -153.62,-163 -221.58,-311.9 z m 603.87,-475.6 H 8119.48 c 28.01,-171.099 102.86,-307.099 224.52,-408.099 121.65,-101 276.85,-151.5 465.63,-151.5 225.62,0 419.51,78.801 581.75,236.699 l 508.74,-238.898 c -126.84,-180 -278.69,-313 -455.67,-399.301 C 9267.51,65 9057.37,21.8984 8814.05,21.8984 c -377.52,0 -685,119.1016 -922.4,357.2036 -237.44,238.199 -356.14,536.398 -356.14,894.798 0,367.2 118.36,672.1 355.03,914.6 236.69,242.59 533.45,363.91 890.33,363.91 378.98,0 687.16,-121.32 924.6,-363.91 237.41,-242.5 356.13,-562.9 356.13,-961.1 l -2.2,-115"
         style="fill:#2f2d2e;fill-opacity:1;fill-rule:nonzero;stroke:none"
         id="path28" /><path
         d="m 20623.3,1566 c -39.9,134.2 -118.6,243.4 -236,327.4 -117.5,84.1 -253.7,126.1 -408.8,126.1 -168.4,0 -316.1,-47.2 -443.1,-141.6 -79.8,-59 -153.7,-162.9 -221.6,-311.9 z m 603.8,-475.5 h -1939.9 c 28,-171.102 102.9,-307.199 224.5,-408.199 121.7,-101 276.9,-151.5 465.7,-151.5 225.6,0 419.5,78.898 581.7,236.699 l 508.8,-238.898 C 20941,348.699 20789.2,215.602 20612.2,129.398 20435.3,43.1016 20225.1,0 19981.8,0 c -377.5,0 -685,119 -922.4,357.199 -237.4,238.102 -356.1,536.403 -356.1,894.701 0,367.2 118.3,672.1 355,914.7 236.7,242.55 533.4,363.86 890.3,363.86 379,0 687.2,-121.31 924.6,-363.86 237.4,-242.6 356.2,-563 356.2,-961.1 l -2.3,-115"
         style="fill:#2f2d2e;fill-opacity:1;fill-rule:nonzero;stroke:none"
         id="path30" /><path
         d="m 10493.6,846.801 c 26.8,-21 201,-148.699 520.9,-253.301 137,-44.699 340,-53.801 495.3,-24.199 74.9,14.199 156.2,34.601 217.4,82.597 27.1,21.204 49.5,49.602 58.9,82.704 15.2,54.3 -7.6,114.097 -46.4,155 -52.9,55.8 -130.2,83.3 -202.4,103.5 -161.5,45.098 -312.9,77.798 -451.3,105.898 -156.2,31.7 -303.6,61.6 -435.5,131.3 -171,90.3 -299.6,190.6 -357.7,385.7 -53.3,179.1 -16.9,406.7 99.8,574.6 213.1,306.5 590.6,375.2 796.6,388.86 649.3,43 1121.1,-361.26 1140.9,-378.46 l -360.1,-412.7 1.4,-1.2 c -3.2,2.6 -325,286 -733.8,258.9 -239.6,-15.9 -330.7,-100.8 -358.8,-136.6 -25.1,-32 -40,-69.7 -37.4,-102.3 5.9,-63 39.2,-127.4 342.6,-195.9 186.2,-42 302.8,-67.1 506.3,-130.4 370.7,-115.1 704,-356.4 649.4,-794.902 C 12279,199 11762.3,17.4023 11334.2,17.4023 c -157,0 -343.7,23.0977 -488.2,70.2969 C 10397.6,234.301 10186.7,387 10154.7,411.898 l 338.3,435.301 0.6,-0.398"
         style="fill:#2f2d2e;fill-opacity:1;fill-rule:nonzero;stroke:none"
         id="path32" /><path
         d="m 13335.6,8194.43 c 0,1511.68 -1224.9,2737.17 -2736,2737.17 -1511,0 -2735.93,-1225.49 -2735.93,-2737.17 0,-1511.67 1224.93,-2737.12 2735.93,-2737.12 1511.1,0 2736,1225.45 2736,2737.12"
         style="fill:#f9ad0c;fill-opacity:1;fill-rule:nonzero;stroke:none"
         id="path34" /><path
         d="m 11390.6,5649.95 c 0,-124.8 -25.1,-243.18 -69.7,-349.93 -232.6,-58.58 -475.6,-89.64 -726.6,-89.64 -241.9,0 -476.3,28.86 -700.96,83.39 -46.3,108.35 -72.31,228.95 -72.31,356.18 0,230.49 84.92,439.41 222.57,592.47 l 428.7,-169.12 c -38.2,-133.49 -161.1,-231.69 -307,-231.69 -9.6,0 -20.1,0.92 -29.6,1.89 l -142.09,-199.29 c 53.39,-18.11 110.59,-27.63 170.69,-27.63 176.4,0 332.8,83.88 431.9,214.53 99.2,-129.68 255.6,-214.53 432,-214.53 66.7,0 129.7,12.38 188.8,34.29 l -139.2,194.53 c -16.2,-2.87 -32.4,-3.79 -49.6,-3.79 -147.8,0 -272.7,101.07 -308.9,237.41 l 443.2,169.61 c 140.9,-153.58 228.1,-365.1 228.1,-598.68 z m 817.1,2576.4 -492,-179.27 -267.9,179.27 89.6,267.92 582.6,93.45 177.3,-183.06 z m -440.4,1196.75 c 172,-163.54 309.7,-362.7 401.3,-585.54 l -164,-42.91 c -90.4,211.29 -226.8,397.95 -396.8,547.31 -136.2,-92 -254.6,-235.15 -328.3,-414.57 -164.5,-400.43 -44.7,-829 267.6,-957.26 312.2,-128.28 698.7,92.34 863.2,492.74 35.4,86.16 57.5,173.61 67.5,259.1 -74.5,264.37 -203.3,505.94 -373.6,711.93 -109,34.32 -225.2,28.48 -336.9,-10.8 z m -2752.94,-1196.75 -89.62,178.31 176.38,183.06 583.57,-93.45 88.69,-267.92 -267.96,-179.27 z m 930.73,701.57 c -76.35,185.84 -200.55,332.85 -342.91,424.32 -173.69,-149.82 -313.15,-338.28 -405.72,-551.86 l -164.94,42.9 c 93.27,223.86 232.7,423.43 406.37,586.79 -118.01,37.25 -240.33,37.19 -353.16,-8.32 -150.72,-185.05 -268.21,-398.18 -343.29,-630.39 4.36,-106.96 27.95,-218.49 72.92,-327.95 164.48,-400.44 550.96,-621.02 863.21,-492.78 312.25,128.3 432.03,556.87 267.52,957.29"
         style="fill:#ffffff;fill-opacity:1;fill-rule:nonzero;stroke:none"
         id="path36" /><path
         d="m 12466.8,11149.9 c 317.5,-199.3 600.7,-449.1 839.1,-736.1 l -335.6,-480.58 c -279.4,375.68 -646.5,683.68 -1069.9,891.58 l 566.4,325.1"
         style="fill:#2f2d2e;fill-opacity:1;fill-rule:nonzero;stroke:none"
         id="path38" /><path
         d="m 11028.9,5841.67 c 17.2,0 33.4,0.92 49.6,3.79 l 139.2,-194.53 c -59.1,-21.91 -122,-34.29 -188.8,-34.29 -176.4,0 -332.8,84.86 -432,214.54 -99.1,-130.66 -255.5,-214.54 -431.9,-214.54 -60.1,0 -117.3,9.52 -170.69,27.63 l 142.09,199.29 c 9.5,-0.97 20,-1.89 29.6,-1.89 145.9,0 268.8,98.21 307,231.68 l -696.1,274.63 166.89,416.68 656.01,-264.12 655.1,265.09 167.8,-417.65 -702.7,-268.89 c 36.2,-136.35 161.1,-237.42 308.9,-237.42"
         style="fill:#2f2d2e;fill-opacity:1;fill-rule:nonzero;stroke:none"
         id="path40" /><path
         d="m 9197.16,8800.44 -164.95,42.9 c 176.41,423.37 517.77,759.96 943.98,928.74 -10.49,-61.98 -17.15,-126.83 -21.91,-192.61 -338.5,-157.33 -608.36,-435.76 -757.12,-779.03"
         style="fill:#2f2d2e;fill-opacity:1;fill-rule:nonzero;stroke:none"
         id="path42" /><path
         d="m 9774.07,8226.42 -267.95,-179.28 -491.06,179.28 -89.62,178.3 176.37,183.07 583.58,-93.45 88.68,-267.92"
         style="fill:#2f2d2e;fill-opacity:1;fill-rule:nonzero;stroke:none"
         id="path44" /><path
         d="m 10511.1,8027.13 v 0.97 c -2.8,1.89 -6.7,3.79 -9.5,5.69 -15.3,10.48 -30.5,20.98 -44.8,32.44 -62,29.57 -114.4,92.48 -146.9,176.4 -15.2,33.37 -24.8,66.74 -27.6,99.14 -5.7,29.58 -8.6,60.09 -9.5,92.53 0,3.79 0.9,7.62 0.9,11.41 h -0.9 l 156.3,1924.19 h 170.7 l 183.1,-1910.83 c 0.9,-0.93 1.9,-1.9 3.8,-1.9 l 1723,-1335.89 -99.1,-138.24 -1899.5,1044.09"
         style="fill:#2f2d2e;fill-opacity:1;fill-rule:nonzero;stroke:none"
         id="path46" /><path
         d="m 12208.4,8226.42 -492,-179.28 -267.9,179.28 89.6,267.92 582.6,93.45 177.3,-183.07 -89.6,-178.3"
         style="fill:#2f2d2e;fill-opacity:1;fill-rule:nonzero;stroke:none"
         id="path48" /><path
         d="m 12278,7949.89 c -13.3,-93.44 -35.3,-185 -62.9,-272.72 -43.9,40.07 -90.6,79.17 -140.2,119.2 13.3,50.55 24.8,101.08 33.4,153.52 h 169.7"
         style="fill:#2f2d2e;fill-opacity:1;fill-rule:nonzero;stroke:none"
         id="path50" /><path
         d="m 12005.3,8794.72 c -169.7,396.66 -501.6,706.56 -913.5,845.77 -7.6,64.84 -18.1,126.82 -30.5,185.94 503.5,-142.08 911.6,-511.09 1108,-988.81 l -164,-42.9"
         style="fill:#2f2d2e;fill-opacity:1;fill-rule:nonzero;stroke:none"
         id="path52" /><path
         d="m 12414.4,7471.23 c 87.7,223.13 137.3,465.31 137.3,719.92 0,949.69 -678,1740.16 -1575.2,1915.65 -40.1,96.3 -88.7,180.2 -143.1,247.9 1092.8,-116.3 1943.3,-1040.31 1943.3,-2163.55 0,-337.57 -77.2,-656.04 -214.5,-941.16 -32.4,67.71 -82,143.04 -147.8,221.24"
         style="fill:#2f2d2e;fill-opacity:1;fill-rule:nonzero;stroke:none"
         id="path54" /><path
         d="m 10599.8,10931.6 c 419.6,0 817.1,-95.4 1172.8,-263.2 l -167.8,-293.7 c -306.1,141.1 -646.5,220.3 -1005,220.3 -359.5,0 -700.84,-79.2 -1006.93,-221.2 l -167.81,293.6 c 355.67,168.8 754.24,264.2 1174.74,264.2"
         style="fill:#2f2d2e;fill-opacity:1;fill-rule:nonzero;stroke:none"
         id="path56" /><path
         d="m 8761.42,11174.7 534.91,-346.1 c -404.3,-198.3 -757.11,-485.4 -1031.69,-836.26 l -378.56,424.36 c 246.94,298.4 543.51,554.9 875.34,758"
         style="fill:#2f2d2e;fill-opacity:1;fill-rule:nonzero;stroke:none"
         id="path58" /><path
         d="M 9215.28,4930.09 C 8221.71,5354.41 7461.76,6222.12 7187.14,7285.3 l 462.45,601.65 c 96.31,-1015.48 705.63,-1881.3 1565.69,-2335.16 -9.53,-105.84 -14.29,-213.6 -14.29,-322.31 0,-112.49 4.76,-211.67 14.29,-299.39"
         style="fill:#2f2d2e;fill-opacity:1;fill-rule:nonzero;stroke:none"
         id="path60" /><path
         d="m 9244.85,5815.92 c -825.76,471.04 -1381.65,1359.7 -1381.65,2378.09 0,616.92 204.05,1187.12 549.24,1644.81 l 227.89,-259.35 c -277.48,-391.9 -440.54,-869.62 -440.54,-1385.46 0,-853.43 444.34,-1601.92 1115.63,-2028.17 -29.57,-111.57 -52.45,-228.82 -70.57,-349.92"
         style="fill:#2f2d2e;fill-opacity:1;fill-rule:nonzero;stroke:none"
         id="path62" /><path
         d="m 9381.19,6388 c -577.84,390.95 -957.33,1052.73 -957.33,1803.15 0,1059.35 757.08,1942.35 1760.24,2135.85 -51.5,-72.4 -97.3,-161.1 -133.5,-263.1 -810.51,-237.47 -1402.68,-985.99 -1402.68,-1872.75 0,-654.15 322.31,-1233.89 817.2,-1587.64 -30.54,-69.6 -58.18,-141.11 -83.93,-215.51"
         style="fill:#2f2d2e;fill-opacity:1;fill-rule:nonzero;stroke:none"
         id="path64" /><path
         d="m 8921.61,7949.89 h 169.71 c 63.91,-393.81 276.55,-737.06 579.75,-969.72 -31.44,-45.79 -61.01,-93.45 -89.62,-143.03 -349.95,263.16 -594.03,658.87 -659.84,1112.75"
         style="fill:#2f2d2e;fill-opacity:1;fill-rule:nonzero;stroke:none"
         id="path66" /><path
         d="m 11289.2,4717.45 c -224.1,-44.83 -455.8,-68.65 -693.2,-68.65 -223.1,0 -440.5,20.95 -652.21,60.05 -130.65,176.41 -232.66,401.44 -298.47,656.98 298.47,-101.04 616.98,-155.4 949.68,-155.4 347.1,0 679,59.12 988.8,168.75 -64.8,-258.39 -165.9,-484.36 -294.6,-661.73"
         style="fill:#2f2d2e;fill-opacity:1;fill-rule:nonzero;stroke:none"
         id="path68" /><path
         d="m 11539,6988.73 c 48.7,37.2 94.4,79.16 138.3,122.06 55.3,-26.71 109.7,-51.49 163,-73.4 -64.8,-69.65 -135.4,-133.52 -210.7,-191.66 -28.6,49.55 -59.1,97.24 -90.6,143"
         style="fill:#2f2d2e;fill-opacity:1;fill-rule:nonzero;stroke:none"
         id="path70" /><path
         d="m 11748.8,6613.07 c 131.6,96.28 251.7,209.74 355.7,335.63 96.3,-24.81 183,-37.2 256.5,-36.23 -145.9,-199.29 -324.2,-374.73 -528.3,-514.91 -24.8,74.37 -53.4,146.84 -83.9,215.51"
         style="fill:#2f2d2e;fill-opacity:1;fill-rule:nonzero;stroke:none"
         id="path72" /><path
         d="m 11898.5,6175.4 c 662.7,427.18 1101.3,1171.88 1101.3,2018.61 0,516.8 -163,995.47 -441.5,1387.36 l 227.9,259.36 c 345.2,-458.65 551.2,-1028.85 549.3,-1646.72 0,-1011.69 -549.3,-1895.63 -1365.5,-2369.53 -18.1,121.09 -41.9,238.39 -71.5,350.92"
         style="fill:#2f2d2e;fill-opacity:1;fill-rule:nonzero;stroke:none"
         id="path74" /><path
         d="m 11991.9,4938.68 c 9.6,85.79 14.4,182.11 14.4,291.76 -1,110.61 -5.8,221.21 -15.3,329.92 846.7,453.88 1447.4,1308.24 1547.6,2310.41 l 473.8,-544.48 C 13748.3,6251.67 12989.3,5370.63 11991.9,4938.68"
         style="fill:#2f2d2e;fill-opacity:1;fill-rule:nonzero;stroke:none"
         id="path76" /><path
         d="m 9236.54,5816.28 c 0.74,-0.43 1.47,-0.86 2.22,-1.28 -0.75,0.42 -1.48,0.85 -2.22,1.28"
         style="fill:#2f2d2e;fill-opacity:1;fill-rule:nonzero;stroke:none"
         id="path78" /></g></g></svg>
