<?xml version="1.0" encoding="UTF-8" standalone="no"?>
<svg
   xmlns:dc="http://purl.org/dc/elements/1.1/"
   xmlns:cc="http://creativecommons.org/ns#"
   xmlns:rdf="http://www.w3.org/1999/02/22-rdf-syntax-ns#"
   xmlns:svg="http://www.w3.org/2000/svg"
   xmlns="http://www.w3.org/2000/svg"
   viewBox="0 0 2220.8132 596.74664"
   height="596.74664"
   width="2220.8132"
   xml:space="preserve"
   id="svg2"
   version="1.1"><metadata
     id="metadata8"><rdf:RDF><cc:Work
         rdf:about=""><dc:format>image/svg+xml</dc:format><dc:type
           rdf:resource="http://purl.org/dc/dcmitype/StillImage" /><dc:title></dc:title></cc:Work></rdf:RDF></metadata><defs
     id="defs6" /><g
     transform="matrix(1.3333333,0,0,-1.3333333,0,596.74667)"
     id="g10"><g
       transform="scale(0.1)"
       id="g12"><path
         id="path14"
         style="fill:#2f2d2e;fill-opacity:1;fill-rule:nonzero;stroke:none"
         d="m 5903.05,1294.05 h -381.61 v 1545.91 h -499.93 v 311.97 H 6400.22 V 2839.96 H 5903.05 V 1294.05" /><path
         id="path16"
         style="fill:#2f2d2e;fill-opacity:1;fill-rule:nonzero;stroke:none"
         d="m 6912.69,1294.05 h -353.75 v 1289.64 h 353.75 z m 19.51,1654.54 c 0,-108.63 -83.57,-192.2 -194.99,-192.2 -114.2,0 -197.77,83.57 -197.77,194.98 0,114.2 83.57,197.77 197.77,197.77 114.2,0 194.99,-83.57 194.99,-200.55" /><path
         id="path18"
         style="fill:#2f2d2e;fill-opacity:1;fill-rule:nonzero;stroke:none"
         d="m 7509.59,2594.92 v -161.54 c 80.78,142.06 189.41,206.12 353.75,206.12 167.12,0 289.68,-75.21 350.96,-214.48 86.35,147.63 206.12,214.48 389.97,214.48 130.9,0 239.54,-41.79 311.95,-119.77 78,-86.35 103.07,-175.48 103.07,-370.47 v -843.98 h -353.74 v 777.14 c 0,175.48 -64.07,259.05 -197.77,259.05 -130.92,0 -206.13,-94.72 -206.13,-259.05 V 1305.28 H 7907.9 v 765.99 c 0,178.27 -66.83,270.2 -194.97,270.2 -133.7,0 -203.34,-91.93 -203.34,-270.2 v -765.99 h -353.75 v 1289.64 h 353.75" /><path
         id="path20"
         style="fill:#2f2d2e;fill-opacity:1;fill-rule:nonzero;stroke:none"
         d="m 13057.1,1431.73 c -147.6,-133.71 -300.8,-192.2 -495.8,-192.2 -392.7,0 -682.4,289.68 -682.4,682.41 0,406.67 284.1,696.37 685.2,696.37 192.2,0 351,-66.85 515.3,-214.49 l -236.8,-214.47 c -77.9,77.98 -161.5,114.21 -264.6,114.21 -195,0 -339.8,-158.77 -339.8,-370.47 0,-220.05 147.6,-378.83 353.7,-378.83 92,0 158.8,27.87 250.7,108.66 l 214.5,-231.19" /><path
         id="path22"
         style="fill:#2f2d2e;fill-opacity:1;fill-rule:nonzero;stroke:none"
         d="m 13466.5,1919.16 c 0,-225.62 147.6,-395.52 339.8,-395.52 197.8,0 356.6,183.84 356.6,406.66 0,228.41 -144.9,389.97 -353.8,389.97 -200.5,0 -342.6,-164.36 -342.6,-401.11 z m 690.8,654.57 H 14511 V 1284.09 h -353.7 v 178.27 c -119.8,-153.19 -259.1,-222.83 -448.5,-222.83 -362.1,0 -621.1,281.32 -621.1,674.05 0,406.69 273,704.73 649,704.73 175.5,0 295.2,-61.28 420.6,-208.91 v 164.33" /><path
         id="path24"
         style="fill:#2f2d2e;fill-opacity:1;fill-rule:nonzero;stroke:none"
         d="m 14746.9,1271.52 v 1857.87 h 353.7 V 1271.52 h -353.7" /><path
         id="path26"
         style="fill:#2f2d2e;fill-opacity:1;fill-rule:nonzero;stroke:none"
         d="m 10203.6,2090.56 c -21.9,73.54 -65,133.35 -129.4,179.42 -64.3,46.07 -139.01,69.1 -224.02,69.1 -92.29,0 -173.24,-25.88 -242.85,-77.59 -43.71,-32.34 -84.2,-89.3 -121.44,-170.93 z m 330.9,-260.63 H 9471.34 c 15.35,-93.76 56.37,-168.32 123.05,-223.67 66.67,-55.36 151.73,-83.04 255.18,-83.04 123.66,0 229.93,43.22 318.83,129.72 l 278.8,-130.93 c -69.5,-98.61 -152.7,-171.53 -249.7,-218.82 -97,-47.28 -212.16,-70.91 -345.49,-70.91 -206.91,0 -375.42,65.26 -505.53,195.78 -130.13,130.51 -195.18,293.97 -195.18,490.36 0,201.23 64.87,368.32 194.57,501.27 129.72,132.93 292.36,199.42 487.94,199.42 207.69,0 376.59,-66.49 506.69,-199.42 130.1,-132.95 195.2,-308.52 195.2,-526.72 l -1.2,-63.04" /><g
         transform="scale(1.02184)"
         id="g28"><path
           id="path30"
           style="fill:#2f2d2e;fill-opacity:1;fill-rule:nonzero;stroke:none"
           d="m 15975.1,2034.11 c -21.4,71.97 -63.6,130.49 -126.6,175.59 -63,45.07 -136.1,67.62 -219.2,67.62 -90.4,0 -169.5,-25.32 -237.8,-75.93 -42.7,-31.64 -82.3,-87.4 -118.8,-167.28 z m 323.8,-255.06 h -1040.4 c 15,-91.76 55.1,-164.72 120.4,-218.89 65.3,-54.17 148.5,-81.26 249.8,-81.26 120.9,0 225,42.3 311.9,126.94 l 272.9,-128.12 c -68,-96.51 -149.4,-167.88 -244.4,-214.15 -94.9,-46.27 -207.5,-69.39 -338.1,-69.39 -202.5,0 -367.4,63.86 -494.7,191.59 -127.3,127.73 -191,287.69 -191,479.88 0,196.93 63.5,360.45 190.4,490.56 127,130.09 286.1,195.16 477.5,195.16 203.3,0 368.6,-65.07 496,-195.16 127.3,-130.11 190.9,-301.93 190.9,-515.47 l -1.2,-61.69" /></g><path
         id="path32"
         style="fill:#2f2d2e;fill-opacity:1;fill-rule:nonzero;stroke:none"
         d="m 10772.4,1684.36 c 14.8,-11.49 110.2,-81.48 285.6,-138.79 75,-24.52 186.3,-29.5 271.4,-13.31 41.1,7.82 85.6,18.97 119.1,45.29 14.9,11.63 27.2,27.15 32.3,45.3 8.4,29.77 -4.1,62.54 -25.4,85 -29,30.56 -71.4,45.63 -111,56.69 -88.4,24.7 -171.4,42.63 -247.3,58.03 -85.5,17.37 -166.4,33.77 -238.6,71.95 -93.8,49.49 -164.2,104.45 -196.1,211.42 -29.2,98.13 -9.3,222.86 54.7,314.89 116.8,167.98 323.7,205.62 436.6,213.1 355.8,23.57 614.4,-197.95 625.2,-207.4 l -197.3,-226.21 0.8,-0.66 c -1.8,1.47 -178.1,156.75 -402.2,141.91 -131.3,-8.71 -181.3,-55.26 -196.6,-74.86 -13.8,-17.55 -22,-38.18 -20.5,-56.08 3.2,-34.5 21.5,-69.82 187.7,-107.35 102.1,-23.03 166,-36.79 277.5,-71.45 203.1,-63.1 385.9,-195.33 355.9,-435.67 -33.3,-266.83 -316.4,-366.32 -551.1,-366.32 -86,-0.01 -188.3,12.65 -267.5,38.53 -245.8,80.31 -361.3,164.01 -378.9,177.66 l 185.5,238.55 0.2,-0.22" /><path
         id="path34"
         style="fill:#f9f3cb;fill-opacity:1;fill-rule:nonzero;stroke:none"
         d="M 2237.82,4475.64 C 1001.91,4475.64 -0.00390625,3473.73 -0.00390625,2237.82 -0.00390625,1001.89 1001.91,0 2237.82,0 c 1235.93,0 2237.82,1001.89 2237.82,2237.82 0,1235.91 -1001.89,2237.82 -2237.82,2237.82" /><path
         id="path36"
         style="fill:#f9ad0c;fill-opacity:1;fill-rule:nonzero;stroke:none"
         d="m 3737.67,2241.23 c 0,828.52 -671.36,1500.18 -1499.54,1500.18 -828.17,0 -1499.532,-671.66 -1499.532,-1500.18 0,-828.53 671.362,-1500.179 1499.532,-1500.179 828.18,0 1499.54,671.649 1499.54,1500.179" /><path
         id="path38"
         style="fill:#ffffff;fill-opacity:1;fill-rule:nonzero;stroke:none"
         d="m 2671.62,846.629 c 0,-68.399 -13.73,-133.277 -38.19,-191.789 -127.45,-32.102 -260.62,-49.129 -398.2,-49.129 -132.62,0 -261.07,15.82 -384.21,45.699 -25.37,59.399 -39.63,125.488 -39.63,195.219 0,126.34 46.55,240.841 121.99,324.721 l 234.95,-92.69 c -20.9,-73.16 -88.3,-126.98 -168.27,-126.98 -5.22,0 -10.97,0.5 -16.21,1.031 l -77.87,-109.219 c 29.28,-9.933 60.64,-15.152 93.55,-15.152 96.68,0 182.4,45.969 236.74,117.582 54.36,-71.07 140.08,-117.582 236.74,-117.582 36.6,0 71.08,6.781 103.5,18.801 l -76.32,106.621 c -8.87,-1.582 -17.76,-2.082 -27.18,-2.082 -80.99,0 -149.45,55.4 -169.31,130.12 l 242.94,92.96 c 77.24,-84.18 124.98,-200.112 124.98,-328.131 z m 447.88,1412.091 -269.67,-98.25 -146.85,98.25 49.12,146.84 319.32,51.22 97.2,-100.33 z m -241.37,655.92 c 94.24,-89.63 169.72,-198.79 219.94,-320.93 l -89.9,-23.51 c -49.54,115.8 -124.31,218.1 -217.49,299.97 -74.65,-50.43 -139.51,-128.88 -179.91,-227.22 -90.15,-219.47 -24.49,-454.37 146.63,-524.66 171.14,-70.31 382.96,50.61 473.11,270.06 19.4,47.22 31.55,95.16 37.02,142.01 -40.86,144.9 -111.44,277.29 -204.77,390.19 -59.73,18.82 -123.44,15.62 -184.63,-5.91 z m -1508.86,-655.92 -49.12,97.73 96.67,100.33 319.85,-51.22 48.61,-146.84 -146.87,-98.25 z m 510.12,384.52 c -41.85,101.85 -109.92,182.43 -187.95,232.56 -95.19,-82.11 -171.63,-185.4 -222.36,-302.47 l -90.41,23.52 c 51.13,122.69 127.54,232.08 222.73,321.61 -64.67,20.41 -131.72,20.38 -193.56,-4.56 -82.61,-101.42 -147,-218.24 -188.15,-345.51 2.39,-58.62 15.31,-119.75 39.96,-179.74 90.15,-219.47 301.97,-340.37 473.11,-270.09 171.14,70.32 236.78,305.21 146.63,524.68" /><path
         id="path40"
         style="fill:#2f2d2e;fill-opacity:1;fill-rule:nonzero;stroke:none"
         d="m 3261.51,3861.08 c 174.02,-109.22 329.24,-246.15 459.88,-403.45 l -183.96,-263.4 c -153.12,205.91 -354.32,374.71 -586.35,488.65 l 310.43,178.2" /><path
         id="path42"
         style="fill:#2f2d2e;fill-opacity:1;fill-rule:nonzero;stroke:none"
         d="m 2473.39,951.711 c 9.43,0 18.31,0.508 27.18,2.078 l 76.32,-106.617 c -32.42,-12.012 -66.9,-18.793 -103.5,-18.793 -96.66,0 -182.38,46.5 -236.74,117.582 -54.34,-71.609 -140.05,-117.582 -236.74,-117.582 -32.91,0 -64.27,5.211 -93.54,15.141 l 77.86,109.23 c 5.24,-0.531 10.99,-1.039 16.21,-1.039 79.97,0 147.38,53.819 168.27,126.989 l -381.5,150.51 91.46,228.38 359.55,-144.76 359.04,145.29 91.98,-228.91 -385.16,-147.38 c 19.86,-74.72 88.33,-130.119 169.31,-130.119" /><path
         id="path44"
         style="fill:#2f2d2e;fill-opacity:1;fill-rule:nonzero;stroke:none"
         d="m 1469.46,2573.37 -90.41,23.51 c 96.69,232.04 283.78,416.52 517.38,509.02 -5.74,-33.96 -9.4,-69.5 -12.01,-105.56 -185.52,-86.23 -333.43,-238.83 -414.96,-426.97" /><path
         id="path46"
         style="fill:#2f2d2e;fill-opacity:1;fill-rule:nonzero;stroke:none"
         d="m 1785.66,2258.75 -146.87,-98.26 -269.14,98.26 -49.12,97.73 96.67,100.34 319.85,-51.22 48.61,-146.85" /><path
         id="path48"
         style="fill:#2f2d2e;fill-opacity:1;fill-rule:nonzero;stroke:none"
         d="m 2189.63,2149.53 v 0.53 c -1.57,1.04 -3.67,2.08 -5.24,3.12 -8.36,5.74 -16.72,11.49 -24.54,17.77 -33.97,16.21 -62.72,50.7 -80.5,96.69 -8.36,18.29 -13.58,36.58 -15.15,54.34 -3.14,16.21 -4.71,32.93 -5.22,50.71 0,2.08 0.51,4.18 0.51,6.26 h -0.51 l 85.7,1054.64 h 93.54 l 100.36,-1047.32 c 0.51,-0.51 1.04,-1.04 2.08,-1.04 l 944.36,-732.19 -54.34,-75.76 -1041.05,572.25" /><path
         id="path50"
         style="fill:#2f2d2e;fill-opacity:1;fill-rule:nonzero;stroke:none"
         d="m 3119.88,2258.75 -269.67,-98.26 -146.84,98.26 49.11,146.85 319.32,51.22 97.2,-100.34 -49.12,-97.73" /><path
         id="path52"
         style="fill:#2f2d2e;fill-opacity:1;fill-rule:nonzero;stroke:none"
         d="m 3158.03,2107.19 c -7.32,-51.21 -19.35,-101.39 -34.5,-149.47 -24.04,21.96 -49.65,43.39 -76.83,65.33 7.32,27.71 13.6,55.4 18.29,84.14 h 93.04" /><path
         id="path54"
         style="fill:#2f2d2e;fill-opacity:1;fill-rule:nonzero;stroke:none"
         d="m 3008.55,2570.23 c -93.01,217.41 -274.89,387.26 -500.66,463.56 -4.18,35.54 -9.93,69.51 -16.72,101.9 275.95,-77.86 499.62,-280.11 607.28,-541.94 l -89.9,-23.52" /><path
         id="path56"
         style="fill:#2f2d2e;fill-opacity:1;fill-rule:nonzero;stroke:none"
         d="m 3232.76,1844.85 c 48.07,122.29 75.26,255.03 75.26,394.58 0,520.51 -371.58,953.76 -863.35,1049.92 -21.97,52.78 -48.61,98.77 -78.4,135.87 598.92,-63.75 1065.08,-570.16 1065.08,-1185.79 0,-185.02 -42.33,-359.57 -117.59,-515.84 -17.76,37.11 -44.93,78.4 -81,121.26" /><path
         id="path58"
         style="fill:#2f2d2e;fill-opacity:1;fill-rule:nonzero;stroke:none"
         d="m 2238.22,3741.41 c 229.95,0 447.88,-52.27 642.82,-144.25 l -91.98,-160.96 c -167.76,77.34 -354.33,120.73 -550.84,120.73 -197.02,0 -384.12,-43.39 -551.88,-121.25 l -91.98,160.96 c 194.95,92.5 413.4,144.77 643.86,144.77" /><path
         id="path60"
         style="fill:#2f2d2e;fill-opacity:1;fill-rule:nonzero;stroke:none"
         d="m 1230.64,3874.67 293.18,-189.71 c -221.6,-108.7 -414.97,-266 -565.465,-458.33 L 750.879,3459.2 c 135.34,163.57 297.881,304.16 479.761,415.47" /><path
         id="path62"
         style="fill:#2f2d2e;fill-opacity:1;fill-rule:nonzero;stroke:none"
         d="M 1479.39,452.09 C 934.828,684.648 518.313,1160.23 367.797,1742.95 l 253.461,329.75 c 52.789,-556.57 386.752,-1031.11 858.132,-1279.86 -5.22,-58.008 -7.83,-117.078 -7.83,-176.66 0,-61.649 2.61,-116.02 7.83,-164.09" /><path
         id="path64"
         style="fill:#2f2d2e;fill-opacity:1;fill-rule:nonzero;stroke:none"
         d="M 1495.6,937.602 C 1043.02,1195.77 738.332,1682.83 738.332,2241 c 0,338.12 111.836,650.64 301.028,901.49 l 124.91,-142.15 C 1012.19,2785.55 922.82,2523.72 922.82,2241 c 0,-467.76 243.53,-878 611.46,-1111.62 -16.21,-61.14 -28.75,-125.41 -38.68,-191.778" /><path
         id="path66"
         style="fill:#2f2d2e;fill-opacity:1;fill-rule:nonzero;stroke:none"
         d="m 1570.33,1251.15 c -316.71,214.27 -524.71,576.98 -524.71,988.28 0,580.61 414.95,1064.55 964.75,1170.64 -28.22,-39.72 -53.32,-88.32 -73.18,-144.24 -444.2,-130.14 -768.76,-540.38 -768.76,-1026.4 0,-358.53 176.66,-676.28 447.9,-870.17 -16.75,-38.14 -31.89,-77.33 -46,-118.11" /><path
         id="path68"
         style="fill:#2f2d2e;fill-opacity:1;fill-rule:nonzero;stroke:none"
         d="m 1318.44,2107.19 h 93.01 c 35.03,-215.84 151.58,-403.97 317.75,-531.48 -17.23,-25.1 -33.44,-51.22 -49.12,-78.4 -191.8,144.24 -325.58,361.11 -361.64,609.88" /><path
         id="path70"
         style="fill:#2f2d2e;fill-opacity:1;fill-rule:nonzero;stroke:none"
         d="m 2616.08,335.539 c -122.83,-24.57 -249.81,-37.617 -379.94,-37.617 -122.29,0 -241.45,11.48 -357.47,32.91 -71.6,96.688 -127.51,220.027 -163.58,360.066 163.58,-55.367 338.14,-85.156 520.52,-85.156 190.23,0 372.11,32.399 541.95,92.488 -35.54,-141.628 -90.94,-265.468 -161.48,-362.691" /><path
         id="path72"
         style="fill:#2f2d2e;fill-opacity:1;fill-rule:nonzero;stroke:none"
         d="m 2753.02,1580.4 c 26.64,20.39 51.72,43.39 75.76,66.89 30.32,-14.64 60.11,-28.21 89.37,-40.22 -35.54,-38.18 -74.22,-73.19 -115.49,-105.05 -15.68,27.16 -32.42,53.3 -49.64,78.38" /><path
         id="path74"
         style="fill:#2f2d2e;fill-opacity:1;fill-rule:nonzero;stroke:none"
         d="m 2867.97,1374.51 c 72.14,52.76 137.98,114.95 194.94,183.94 52.79,-13.59 100.34,-20.38 140.59,-19.85 -79.97,-109.23 -177.7,-205.38 -289.53,-282.21 -13.58,40.76 -29.26,80.47 -46,118.12" /><path
         id="path76"
         style="fill:#2f2d2e;fill-opacity:1;fill-rule:nonzero;stroke:none"
         d="m 2950.02,1134.63 c 363.22,234.13 603.63,642.28 603.63,1106.37 0,283.24 -89.37,545.59 -241.99,760.38 l 124.91,142.16 c 189.19,-251.38 302.07,-563.9 301.03,-902.54 0,-554.5 -301.03,-1038.97 -748.37,-1298.711 -9.94,66.371 -23,130.661 -39.21,192.341" /><path
         id="path78"
         style="fill:#2f2d2e;fill-opacity:1;fill-rule:nonzero;stroke:none"
         d="m 3001.23,456.789 c 5.22,47.031 7.85,99.813 7.85,159.922 -0.53,60.621 -3.13,121.238 -8.35,180.82 464.06,248.769 793.31,717.029 848.19,1266.289 l 259.73,-298.41 C 3963.88,1176.42 3547.89,693.539 3001.23,456.789" /><path
         id="path80"
         style="fill:#2f2d2e;fill-opacity:1;fill-rule:nonzero;stroke:none"
         d="m 1491.04,937.801 c 0.41,-0.231 0.81,-0.481 1.22,-0.711 -0.41,0.23 -0.81,0.48 -1.22,0.711" /></g></g></svg>