<svg height="405" viewBox="0 0 1368 405" width="1368" xmlns="http://www.w3.org/2000/svg" xmlns:xlink="http://www.w3.org/1999/xlink"><linearGradient id="a" x1="49.893%" x2="49.893%" y1=".03%" y2="100.03%"><stop offset="0" stop-color="#009652"/><stop offset="1" stop-color="#0ff"/></linearGradient><linearGradient id="b" x1="49.996%" x2="49.996%" y1=".001%" y2="100.004%"><stop offset="0" stop-color="#a0509a"/><stop offset="1" stop-color="#2a91ff"/></linearGradient><linearGradient id="c" x1="50%" x2="50%" y1="0%" y2="100%"><stop offset="0" stop-color="#023740"/><stop offset="1" stop-color="#1786e1"/></linearGradient><g fill="none" transform="translate(84 84)"><path d="m169.532567 67.6796463c0-8.5629394-6.821679-15.5056497-15.231011-15.5056497-6.972885 0-12.898964 4.9455464-14.701795 11.4580375l-19.47251 71.3216459-20.6879673-67.9608058c-1.7776296-5.8375602-6.9302362-10.2463194-13.1005701-10.8304701-1.2406574-.1460377-2.5336553-.0256553-2.5336553-.0256553-6.5580395.4973175-12.0072408 5.3027466-13.5832633 11.6139428l-20.4824835 67.2029884-20.1471181-72.1524818c-1.998622-6.1414766-7.7269713-10.7100878-14.4245844-10.7100878-8.3666854 0-15.14959368 6.9012671-15.14959368 15.4207894 0 1.1386997.13181988 2.2754254.36056615 3.3430791l30.98348773 98.4747871c2.207983 6.478942 8.199972 11.495534 15.1554093 12.130995 0 0 1.4190022.144064 2.5123319.065125 7.4904709-.410485 13.7984399-5.709284 15.874603-12.750669l19.5093425-64.043443 20.0308061 63.828334c1.954036 6.958498 8.00612 12.229669 15.293045 12.900653 0 0 1.22515.122356 2.516209.065125 7.232647-.392723 13.344825-5.294853 15.626472-11.971143l31.082352-97.6498717c.356689-1.3163128.569927-2.7905036.569927-4.225225m181.897867-15.1622638c-.771534-.1026211-1.205764-.1736664-2.533656-.0868332-7.471085.4578479-13.414611 6.7137863-13.414611 14.4419424v101.1725373c.389644 7.668952 6.645273 13.780826 14.269502 13.780826 7.626168 0 13.906997-6.111874 14.292765-13.780826v-101.3106809c-.067849-7.3729294-5.579083-13.3683682-12.614-14.2169656m-1.665195-22.2233827c8.192218 0 14.835552-6.7670704 14.835552-15.1089795 0-8.34388266-6.643334-15.10897956-14.835552-15.10897956-8.199972 0-14.841368 6.7650969-14.841368 15.10897956 0 8.3419091 6.641396 15.1089795 14.841368 15.1089795m292.250493 25.9729989c2.814741 2.6543335 4.60788 6.417764 4.60788 10.6370689v101.3087074c0 7.548569-6.01719 13.672284-13.433997 13.672284-7.414868 0-13.387472-6.520385-13.387472-14.072901v-6.107927c-5.018849 9.547706-15.698197 20.206484-37.283702 19.981507-39.247432-.224977-46.662301-30.634364-46.662301-51.947972v-62.6205625c0-7.5900123 5.730288-14.047246 13.017214-14.7083625.64553-.0592044 1.351154-.1026211 2.52784 0 7.170614.6532226 12.844684 6.7058924 13.02109 14.1340793v55.8732277c0 17.978422 5.88537 32.189468 26.16237 31.968437 20.49993 0 27.472814-13.765038 27.472814-31.080371v-56.4001464c0-7.5860655 5.738042-13.7453033 13.019152-14.4083934 1.157301-.1045945 1.469404-.0888067 2.533655 0 3.113276.2841815 6.185842 1.7781074 8.405457 3.7713245m-366.705464 78.8070633c-5.453078 11.092943-15.919189 19.531554-31.828686 19.531554-25.735893 0-36.419119-21.978672-36.419119-37.073837v-.219056c0-18.8684632 13.087-37.9579561 36.196189-37.9579561 17.223818 0 28.34709 9.9897668 33.356245 21.5346371 2.403775 5.320508 3.495165 11.315947 3.276112 17.090356-.440046 5.987545-1.744675 11.761954-4.580741 17.094302m32.923954 31.891472v-100.6535111c-.376074-7.6807926-6.647211-13.9544924-14.277257-13.9544924-7.878176 0-14.286948 6.8973202-14.286948 14.9136048v6.5381464c-5.232087-9.7707103-18.530386-21.5385845-40.333007-21.5385845-33.583053 0-60.836814 26.1940292-60.836814 64.5960188 0 34.409635 22.46172 64.822969 60.836814 64.822969 16.78765 0 32.702962-7.104536 40.333007-21.319528v6.480915c-.005816.153932 0-.155905 0 0 0 7.607774 5.707025 14.234727 13.019151 14.897817 1.166995.080913 1.190257.080913 2.518148 0 7.310188-.66309 13.026906-7.173607 13.026906-14.783355 0-.110515.005816.114462 0 0m184.350104-49.873842c0 19.979534-14.606806 37.513924-36.409426 37.513924-10.252873 0-19.40854-4.217332-25.949132-10.881781-6.544469-6.652609-10.466111-15.977312-10.466111-26.411112 0-10.658778 3.921642-20.2045107 10.247058-26.8650129 6.544469-6.8736388 15.48302-11.0949172 25.949131-11.0949172 24.204456 0 36.62848 19.9775602 36.62848 37.5139231v.223003zm-84.50236 108.436926c7.252033-.680852 12.990074-6.883506 12.990074-14.439969v-33.184103-16.196369c4.792041 7.767626 17.442872 19.981508 40.769176 19.981508 35.104798 0 59.309254-29.081234 59.309254-63.709925 0-29.5272409-17.659987-65.7090628-59.526369-65.7090628-19.84277 0-33.79823 9.3266768-42.30449 21.5385845v-7.5683042c0-7.5446223-5.982296-13.9130493-13.38941-13.9130493-7.189999-.0019734-13.079246 5.8770299-13.422366 13.1078686v146.0850442c.234562 7.386744 5.904755 13.405865 13.0618 14.023565.649406.071045 1.688457.061178 2.512331-.013815zm557.605854-43.904058c8.194158 0 14.837488-6.767071 14.837488-15.107006 0-8.345856-6.64333-15.110953-14.837488-15.110953-8.199975 0-14.837495 6.765097-14.837495 15.110953 0 8.339935 6.63752 15.107006 14.837495 15.107006m86.80145-102.4158309v-.0059207.0059207h-14.54864v63.3803539c0 4.209437.99446 7.213077 2.98532 9.003025 1.99087 1.793895 5.43564 2.69183 10.33818 2.69183h2.18471c7.3257.18748 13.20913 6.297381 13.20913 13.800561 0 7.501205-5.88343 13.603212-13.20913 13.792666l-3.76268.001974c-13.01915 0-23.05297-3.039162-30.09564-9.119461-7.04461-6.082272-10.56692-16.139138-10.56692-30.170595v-63.3803539h-14.538949c-7.290808-.0019734-13.19944-6.0289882-13.19944-13.4512547 0-7.4262134 5.910573-13.445334 13.205251-13.445334.023263 0 .044584.0019735.065912.0019735h14.467226v-17.5363626c.07367-8.0439134 6.58518-14.5425902 14.50601-14.5425902 7.96347 0 14.41102 7.0334905 14.41102 15.1445023v16.9344505l14.55058-.0019735c7.29468 0 13.20525 6.0191206 13.20525 13.445334 0 7.4242398-5.91251 13.4512547-13.20719 13.4512547m146.3569-5.8415077-40.3931 97.5156746c-2.63058 6.459207-8.89396 11.004137-16.19058 11.004137-7.34508 0-13.63755-4.604134-16.23711-11.132413l-40.51329-97.1426868c-.78898-1.8570464-1.22902-3.9035473-1.22902-6.0526695 0-8.4208484 6.70536-15.2471233 14.97706-15.2471233 6.27889 0 11.65636 3.9331499 13.8818 9.5102106l.17252.4558744.01746.04539 28.89375 76.4408586 28.86273-76.896733c2.21381-5.6027158 7.60485-9.5556006 13.90119-9.5556006 8.27169 0 14.97706 6.8262749 14.97706 15.2471233 0 2.0563683-.3974 4.0180099-1.12047 5.8079577" fill="#000" transform="translate(0 10.898)"/><g transform="translate(697.568)"><path d="m88.8199341 192.118426c-3.1414342-6.213844-4.6300953-12.907048-4.6159969-19.523596l-.0019387-86.9417568c0-6.6999716 1.5372528-13.0605048 4.2608838-18.7263723.0852954-.1815603.1744676-.3611472.2655784-.5407341.0348937-.0690719.06591-.1401172.1027423-.2111625 3.564952-7.1301912 9.1091416-13.3269252 16.388313-17.6014876l46.231946-27.172876 26.685772-15.68720981c6.590994-3.87591899 13.808132-5.71323089 20.941914-5.70731044l.07948-.00592045c4.456675 0 8.760207.72229448 12.802037 2.04255405.073664.02368178.151205.05328402.224869.07301884.188037.06907188.376074.13024982.56605.19537473 9.335949 3.22664336 17.609585 9.76084288 22.899827 19.08949308 3.813084 6.7236537 5.617854 14.0965831 5.604435 21.3787323v86.935837c0 6.696025-1.533527 13.058531-4.255219 18.720452-.108558.22103-.220993.442059-.32955.667037-.015509.023682-.023263.049337-.040709.08486-3.564953 7.130191-9.109141 13.330871-16.39219 17.609381l-72.917718 42.860086c-6.592933 3.875918-13.817826 5.71323-20.976808 5.703442-4.491569 0-8.793162-.716453-12.833053-2.030792-.09305-.031576-.188037-.067099-.283026-.098674-.172528-.057231-.341181-.108542-.498201-.167746-9.345642-3.228617-17.6270321-9.762817-22.917274-19.095413z" fill="url(#a)"/><path d="m63.1185718 209.652878c-6.5929326 3.879866-13.8158867 5.717178-20.9554841 5.70739h-.0620328c-4.4547366 0-8.750514-.716453-12.7865285-2.030792-.098865-.031576-.1919143-.069072-.2946563-.098674l-.4962631-.167746c-9.3437033-3.228617-17.6212165-9.762817-22.91339699-19.095413-3.81308393-6.723655-5.62173024-14.09461-5.61021001-21.372813v-86.9417568c0-6.6999716 1.53348633-13.0605048 4.26681033-18.7263723.08529523-.1815603.17059044-.3611472.26170124-.5407341.03295497-.0690719.06784847-.1401172.10274197-.2111625 3.56495237-7.1301912 9.11108006-13.3269252 16.38249736-17.6014876l72.9254723-42.86008581c6.5871168-3.87591899 13.8061938-5.71323089 20.9399758-5.70731044l.07948-.00592045c4.460552 0 8.762145.72229448 12.805914 2.04255405.073664.02368178.14345.05328402.217114.07301884.191915.06907188.381891.13024982.566051.19537473 9.339826 3.22664336 17.615401 9.76084288 22.903704 19.08949308l.990282 1.8492654c3.135915 6.2141707 4.626338 12.9093313 4.614002 19.5294669 0 .0256554.003877.0532841.003877.0809128v86.8549242c0 6.696025-1.537253 13.052611-4.264761 18.720452-.100804.22103-.2113.442059-.327611.667037-.007754.023682-.025201.049337-.036833.08486-3.561075 7.130191-9.114957 13.330871-16.392189 17.609381l-46.226131 27.170903z" fill="url(#b)"/><path d="m151.451462 21.4004407.990282 1.8492654c3.135915 6.2141707 4.626338 12.9093313 4.614002 19.5294669 0 .0256554.003877.0532841.003877.0809128v86.8549242c0 6.696025-1.537253 13.052611-4.264761 18.720452-.100804.22103-.2113.442059-.327611.667037-.007754.023682-.025201.049337-.036833.08486-3.472048 6.951936-8.838508 13.020256-15.849632 17.284904l-.542557.324477-46.226131 27.170903-.9921639-1.849217c-3.0367197-6.006716-4.5290148-12.461367-4.612392-18.861706l-.0036049-.66189-.0019387-86.9417568c0-6.6999716 1.5372528-13.0605048 4.2608838-18.7263723.0852954-.1815603.1744676-.3611472.2655784-.5407341.0348937-.0690719.06591-.1401172.1027423-.2111625 3.4758282-6.9519364 8.8331691-13.0165051 15.845632-17.2773068l.542681-.3241808z" fill="url(#c)"/></g></g></svg>