<?xml version="1.0" encoding="UTF-8" standalone="no"?>
<svg
   xmlns:dc="http://purl.org/dc/elements/1.1/"
   xmlns:cc="http://creativecommons.org/ns#"
   xmlns:rdf="http://www.w3.org/1999/02/22-rdf-syntax-ns#"
   xmlns:svg="http://www.w3.org/2000/svg"
   xmlns="http://www.w3.org/2000/svg"
   viewBox="0 0 268.51486 49.819904"
   height="49.819904"
   width="268.51486"
   xml:space="preserve"
   id="svg2"
   version="1.1"><metadata
     id="metadata8"><rdf:RDF><cc:Work
         rdf:about=""><dc:format>image/svg+xml</dc:format><dc:type
           rdf:resource="http://purl.org/dc/dcmitype/StillImage" /><dc:title></dc:title></cc:Work></rdf:RDF></metadata><defs
     id="defs6" /><g
     transform="matrix(1.3333333,0,0,-1.3333333,1.9924871e-4,176.37333)"
     id="g10"><path
       d="m 110.328,114.152 c 0,-0.287 -0.024,-0.582 -0.104,-0.841 -0.328,-1.076 -1.44,-1.988 -2.833,-1.988 -1.169,0 -2.089,0.66 -2.089,2.056 0,2.136 2.344,2.727 5.026,2.712 z m 4.439,3.721 c 0,3.521 -1.506,6.62 -6.587,6.62 -2.61,0 -4.683,-0.733 -5.811,-1.386 l 0.824,-2.831 c 1.032,0.652 2.682,1.192 4.243,1.192 2.577,0.007 3.001,-1.46 3.001,-2.4 v -0.223 c -5.627,0.009 -9.182,-1.937 -9.182,-5.904 0,-2.422 1.81,-4.692 4.963,-4.692 1.93,0 3.554,0.773 4.523,2.01 h 0.096 c 0,0 0.64,-2.687 4.178,-1.659 -0.185,1.118 -0.248,2.31 -0.248,3.745 z m 20.682,2.565 v 3.958 h -3.658 v 4.893 h -4.146 v -15.263 c 0,-2.105 0.4,-3.579 1.249,-4.478 0.744,-0.788 1.961,-1.299 3.418,-1.299 1.24,0 2.464,0.236 3.041,0.451 l -0.057,3.283 c -0.424,-0.106 -0.92,-0.189 -1.592,-0.189 -1.433,0 -1.913,0.915 -1.913,2.805 v 5.839 z m -14.728,0.773 h -0.111 v 2.932 h -3.811 V 108.6 h 4.338 v 7.958 c 0,0.429 0.024,0.804 0.097,1.148 0.32,1.667 1.592,2.732 3.426,2.732 0.503,0 0.856,-0.054 1.248,-0.111 v 4.069 c -0.328,0.066 -0.552,0.097 -0.952,0.097 -1.617,0 -3.458,-1.044 -4.235,-3.282 z m -26.1007,3.282 c -1.2238,0 -2.1922,-0.307 -3.0652,-0.844 -0.7367,-0.451 -1.3926,-1.093 -1.9696,-1.935 h -0.0636 c -0.6649,1.673 -2.2324,2.779 -4.2817,2.779 -2.6257,0 -3.8097,-1.332 -4.5226,-2.463 h -0.0637 v 2.113 H 76.6438 V 108.6 h 4.2261 v 9.116 c 0,0.427 0.0477,0.878 0.2004,1.271 0.3438,0.917 1.2,1.992 2.561,1.992 1.7046,0 2.5054,-1.441 2.5054,-3.521 V 108.6 h 4.218 v 9.225 c 0,0.409 0.0558,0.898 0.1758,1.26 0.3441,1.044 1.2648,1.894 2.5379,1.894 1.7207,0 2.5523,-1.416 2.5523,-3.864 V 108.6 h 4.2188 v 9.154 c 0,4.828 -2.45,6.739 -5.2192,6.739 z M 63.2809,114.152 c 0,-0.287 -0.0243,-0.582 -0.1036,-0.841 -0.3285,-1.076 -1.4406,-1.988 -2.8414,-1.988 -1.1605,0 -2.0812,0.66 -2.0812,2.056 0,2.136 2.3457,2.727 5.0262,2.712 z m 4.439,3.721 c 0,3.521 -1.5047,6.62 -6.5879,6.62 -2.609,0 -4.682,-0.733 -5.8121,-1.386 l 0.8266,-2.831 c 1.032,0.652 2.6805,1.192 4.2418,1.192 2.5765,0.007 3.0008,-1.46 3.0008,-2.4 v -0.223 c -5.6266,0.009 -9.1766,-1.937 -9.1766,-5.904 0,-2.422 1.8086,-4.692 4.9508,-4.692 1.9371,0 3.5543,0.773 4.5222,2.01 h 0.0965 c 0,0 0.6477,-2.687 4.1856,-1.659 -0.184,1.118 -0.2477,2.31 -0.2477,3.745 z m -16.6984,11.416 -1.8664,-8.944 c -0.502,-2.603 -0.9559,-4.64 -1.3078,-7.021 h -0.0621 c -0.318,2.359 -0.7239,4.312 -1.2344,6.848 l -1.9414,9.117 h -4.5996 l -2.0774,-8.886 c -0.5875,-2.701 -1.1402,-4.882 -1.4902,-7.183 h -0.0621 c -0.359,2.166 -0.8371,4.908 -1.3547,7.521 0,0 -1.2332,6.357 -1.6664,8.548 h -4.6477 c 0,0 3.6731,-15.052 4.2598,-17.495 0.6836,-2.852 1.9156,-3.903 5.4711,-3.194 l 2.2937,9.334 c 0.5817,2.317 0.9719,3.969 1.3454,6.328 h 0.066 c 0.2625,-2.382 0.6367,-4.018 1.1136,-6.337 0,0 0.9352,-4.237 1.4121,-6.463 0.4805,-2.224 1.8137,-3.625 5.2969,-2.862 l 5.4645,20.689 z M 70.009,108.6 h 4.2015 v 20.688 H 70.009 V 108.6"
       style="fill:#2b284d;fill-opacity:1;fill-rule:nonzero;stroke:none;stroke-width:0.1"
       id="path14" /><path
       d="m 148.418,129.289 h -3.957 v -20.728 h 12.417 v 3.274 h -8.46 v 17.454"
       style="fill:#2b284d;fill-opacity:1;fill-rule:nonzero;stroke:none;stroke-width:0.1"
       id="path16" /><path
       d="m 166.719,114.152 c 0,-0.287 -0.024,-0.582 -0.105,-0.841 -0.327,-1.076 -1.441,-1.988 -2.832,-1.988 -1.17,0 -2.09,0.66 -2.09,2.056 0,2.136 2.345,2.727 5.027,2.712 z m 4.439,3.721 c 0,3.521 -1.506,6.62 -6.588,6.62 -2.609,0 -4.682,-0.733 -5.811,-1.386 l 0.824,-2.831 c 1.033,0.652 2.682,1.192 4.243,1.192 2.577,0.007 3.001,-1.46 3.001,-2.4 v -0.223 c -5.627,0.009 -9.181,-1.937 -9.181,-5.904 0,-2.422 1.809,-4.692 4.963,-4.692 1.929,0 3.554,0.773 4.522,2.01 h 0.096 c 0,0 0.641,-2.687 4.178,-1.659 -0.184,1.118 -0.247,2.31 -0.247,3.745 v 5.528"
       style="fill:#2b284d;fill-opacity:1;fill-rule:nonzero;stroke:none;stroke-width:0.1"
       id="path18" /><path
       d="m 181.311,111.308 c -1.715,0 -3.107,1.167 -3.528,2.713 -0.065,0.283 -0.097,0.598 -0.097,0.913 v 2.492 c 0,0.378 0.065,0.726 0.13,1.009 0.453,1.703 1.909,2.839 3.527,2.839 2.655,0 3.982,-2.208 3.982,-4.92 0,-3.091 -1.521,-5.046 -4.014,-5.046 z m 1.489,12.993 c -2.363,0 -4.078,-0.978 -5.049,-2.46 h -0.065 v 7.339 h -3.981 v -16.264 c 0,-0.468 0.006,-0.826 0.012,-1.136 -0.017,-1.167 -0.082,-2.184 -0.24,-3.138 3.151,-0.916 4.078,1.111 4.243,1.566 1.131,-1.386 2.728,-1.959 4.497,-1.959 3.561,0 7.154,2.744 7.154,8.263 0.032,4.667 -2.719,7.789 -6.571,7.789"
       style="fill:#2b284d;fill-opacity:1;fill-rule:nonzero;stroke:none;stroke-width:0.1"
       id="path20" /><path
       d="m 197.179,117.773 c -2.007,0.693 -2.752,1.167 -2.752,2.145 0,0.946 0.777,1.608 2.201,1.608 1.392,0 2.655,-0.505 3.334,-0.884 l 0.777,2.744 c -0.907,0.473 -2.427,0.915 -4.175,0.915 -3.658,0 -5.956,-2.113 -5.956,-4.825 -0.033,-1.798 1.262,-3.437 4.338,-4.478 1.941,-0.662 2.589,-1.198 2.589,-2.239 0,-1.01 -0.777,-1.703 -2.525,-1.703 -1.424,0 -3.14,0.568 -4.046,1.104 l -0.776,-2.807 c 1.165,-0.631 2.88,-1.072 4.79,-1.072 4.175,0 6.408,2.018 6.408,4.793 -0.032,2.271 -1.359,3.69 -4.207,4.699"
       style="fill:#2b284d;fill-opacity:1;fill-rule:nonzero;stroke:none;stroke-width:0.1"
       id="path22" /><path
       d="m 3.76758,112.039 4.96289,18.459 H 9.46836 L 4.69375,112.753 H 15.1797 c 0.1969,0 0.3562,-0.16 0.3562,-0.357 v 0 c 0,-0.197 -0.1593,-0.357 -0.3562,-0.357 z m 17.82222,4.039 H 9.64219 L 13.9535,132.28 H 5.17617 L 0.170313,113.449 C -0.577734,110.617 1.20703,108.3 4.13672,108.299 H 9.58203 L 6.09922,95.1102 C 6.05547,94.9461 6.26992,94.8422 6.37266,94.977 L 21.8969,115.46 c 0.1926,0.254 0.0113,0.618 -0.3071,0.618"
       style="fill:#2b284d;fill-opacity:1;fill-rule:nonzero;stroke:none;stroke-width:0.1"
       id="path24" /></g></svg>