<?xml version="1.0" encoding="UTF-8" standalone="no"?>
<!-- Created with Inkscape (http://www.inkscape.org/) -->

<svg
   xmlns:dc="http://purl.org/dc/elements/1.1/"
   xmlns:cc="http://creativecommons.org/ns#"
   xmlns:rdf="http://www.w3.org/1999/02/22-rdf-syntax-ns#"
   xmlns:svg="http://www.w3.org/2000/svg"
   xmlns="http://www.w3.org/2000/svg"
   xmlns:sodipodi="http://sodipodi.sourceforge.net/DTD/sodipodi-0.dtd"
   xmlns:inkscape="http://www.inkscape.org/namespaces/inkscape"
   id="svg3409"
   version="1.1"
   inkscape:version="0.91 r13725"
   xml:space="preserve"
   width="467.27499"
   height="115.0125"
   viewBox="0 0 467.27499 115.0125"
   sodipodi:docname="wavefront_by_vmware_logo.svg"><metadata
     id="metadata3415"><rdf:RDF><cc:Work
         rdf:about=""><dc:format>image/svg+xml</dc:format><dc:type
           rdf:resource="http://purl.org/dc/dcmitype/StillImage" /><dc:title></dc:title></cc:Work></rdf:RDF></metadata><defs
     id="defs3413" /><sodipodi:namedview
     pagecolor="#ffffff"
     bordercolor="#666666"
     borderopacity="1"
     objecttolerance="10"
     gridtolerance="10"
     guidetolerance="10"
     inkscape:pageopacity="0"
     inkscape:pageshadow="2"
     inkscape:window-width="1920"
     inkscape:window-height="1176"
     id="namedview3411"
     showgrid="false"
     inkscape:zoom="3.8221604"
     inkscape:cx="235.19672"
     inkscape:cy="57.506248"
     inkscape:window-x="0"
     inkscape:window-y="24"
     inkscape:window-maximized="1"
     inkscape:current-layer="g3417" /><g
     id="g3417"
     inkscape:groupmode="layer"
     inkscape:label="ink_ext_XXXXXX"
     transform="matrix(1.25,0,0,-1.25,0,115.0125)"><g
       id="g3419"
       transform="scale(0.1,0.1)"><path
         d="m 2599.41,50.0781 -77.05,214.5199 c -0.92,2.882 -2.35,6.738 -2.35,10.3 0,9.137 7.78,17.969 19.13,17.969 9.78,0 16.13,-6.308 19.14,-15.59 l 63.67,-184.7223 64.36,185.3123 c 2.82,8.692 8.65,15 18.43,15 l 2,0 c 10.44,0 16.83,-6.308 19.7,-15 l 63.67,-185.3123 64.84,185.6993 c 2.48,7.937 7.79,14.613 18.18,14.613 10.79,0 18.48,-8.281 18.48,-17.672 0,-3.23 -1.48,-7.336 -2.31,-10.238 L 2811.87,50.0781 c -4.06,-11.0468 -11.81,-16.9922 -20.71,-16.9922 l -1.36,0 c -9.91,0 -17.25,5.9454 -20.75,16.9922 L 2705.79,232.375 2642.12,50.0781 c -3.47,-11.0468 -10.82,-16.9922 -20.65,-16.9922 l -1.05,0 c -9.3,0 -17.05,5.9454 -21.01,16.9922"
         style="fill:#6a6a6f;fill-opacity:1;fill-rule:nonzero;stroke:none"
         id="path3421"
         inkscape:connector-curvature="0" /><path
         d="m 3160.54,273.855 c 0,10.278 8.36,19.239 18.66,19.239 10.97,0 19.17,-8.328 19.17,-19.239 l 0,-43.546 c 18.67,42.363 60.06,62.148 87.42,62.148 11.4,0 18.74,-8.324 18.74,-19.031 0,-10.211 -6.91,-17.606 -16.74,-19.188 -49,-5.8 -89.42,-42.761 -89.42,-115.945 l 0,-86.1289 c 0,-10.4102 -7.9,-19.0782 -18.56,-19.0782 -10.91,0 -19.27,8.3516 -19.27,19.0782 l 0,221.6909"
         style="fill:#6a6a6f;fill-opacity:1;fill-rule:nonzero;stroke:none"
         id="path3423"
         inkscape:connector-curvature="0" /><path
         d="m 3499.45,178.418 c -3.78,45.762 -29.75,85.566 -79.24,85.566 -43.44,0 -76.11,-36.398 -80.85,-85.566 l 160.09,0 z M 3426,33.0859 c -68.41,0 -124.25,52.961 -124.25,130.7691 l 0,0.95 c 0,72.398 50.54,130.894 119.41,130.894 73.61,0 115.46,-60.801 115.46,-127.363 0,-10.16 -8.21,-17.633 -17.29,-17.633 l -179.97,0 c 5.27,-54.3983 43.2,-85.0311 87.59,-85.0311 30.84,0 53.37,12.1328 71.67,29.1914 2.92,2.4375 6.23,4.3633 10.61,4.3633 9.08,0 16.45,-7.418 16.45,-16.1836 0,-4.2383 -2.01,-8.7149 -5.79,-11.9141 -23.71,-23.0703 -51.58,-38.043 -93.89,-38.043"
         style="fill:#6a6a6f;fill-opacity:1;fill-rule:nonzero;stroke:none"
         id="path3425"
         inkscape:connector-curvature="0" /><path
         d="m 3079.06,131.395 0,24.601 c -18.67,5.359 -43.67,10.754 -74.5,10.754 -47.46,0 -73.89,-20.602 -73.89,-52.348 l 0,-1.105 c 0,-31.6837 29.49,-50.4064 63.71,-50.4064 46.4,0 84.68,28.4336 84.68,68.5044 m -186.67,-19.524 0,0.996 c 0,53.41 44.05,81.754 108.1,81.754 32.51,0 55.6,-4.473 78.08,-10.762 l 0,8.942 c 0,45.359 -27.95,69.008 -75.5,69.008 -25.49,0 -40.13,-3.278 -58.7,-11.598 -2.57,-0.914 -5.11,-1.449 -6.91,-1.449 -8.8,0 -16.8,7.265 -16.8,16.058 0,7.942 3.39,12.66 10.39,15.797 24.84,10.887 43.67,14.363 75.9,14.363 35.75,0 63.31,-9.152 81.92,-27.859 17.09,-17.113 25.88,-41.762 25.88,-74 l 0,-139.7343 c 0,-10.6328 -7.69,-18.6289 -18.21,-18.6289 -10.75,0 -17.97,7.9961 -17.97,17.6641 l 0,24.3203 C 3061,53.5703 3031.5,33.0859 2987.03,33.0859 c -47.01,0 -94.64,26.8125 -94.64,78.7851"
         style="fill:#6a6a6f;fill-opacity:1;fill-rule:nonzero;stroke:none"
         id="path3427"
         inkscape:connector-curvature="0" /><path
         d="m 1923.51,275.324 c -8.07,17.953 -28.16,26.047 -46.99,17.629 -18.88,-8.367 -25.72,-29.351 -17.32,-47.199 l 79.07,-171.6524 c 12.39,-26.9024 25.43,-41.0157 50.05,-41.0157 26.14,0 37.75,15.3321 50.19,41.0157 0,0 68.88,150.0784 69.48,151.6404 0.71,1.504 3.01,6.406 9.97,6.289 5.83,0 11.04,-4.715 11.04,-11.093 l 0,-146.7192 c 0,-22.4844 12.39,-41.1329 36.53,-41.1329 24.14,0 37.23,18.6485 37.23,41.1329 l 0,120.1912 c 0,23.129 16.48,38.051 39.14,38.051 22.65,0 37.7,-15.547 37.7,-38.051 l 0,-120.1912 c 0,-22.4844 12.57,-41.1329 36.63,-41.1329 24.22,0 37.14,18.6485 37.14,41.1329 l 0,120.1912 c 0,23.129 16.64,38.051 39.39,38.051 22.48,0 37.53,-15.547 37.53,-38.051 l 0,-120.1912 c 0,-22.4844 12.52,-41.1329 36.7,-41.1329 24.14,0 37.23,18.6485 37.23,41.1329 l 0,136.6912 c 0,50.164 -40.23,85.434 -88.98,85.434 -48.63,0 -78.88,-33.699 -78.88,-33.699 -16.18,21.027 -38.62,33.601 -76.28,33.601 -39.66,0 -74.54,-33.601 -74.54,-33.601 -16,21.027 -43.8,33.601 -66.45,33.601 -35.13,0 -63.23,-15.387 -80.24,-54.383 l -50.53,-119.082 -64.81,152.543"
         style="fill:#6a6a6f;fill-opacity:1;fill-rule:nonzero;stroke:none"
         id="path3429"
         inkscape:connector-curvature="0" /><path
         d="m 3592.26,263.371 0,0.113 c 0,13.868 -10.67,25.254 -24.88,25.254 -14.15,0 -24.97,-11.57 -24.97,-25.367 l 0,-0.117 c 0,-13.742 10.75,-25.094 24.97,-25.094 14.14,0 24.88,11.578 24.88,25.211 m -55.64,-0.117 0,0.117 c 0,16.875 13.59,31.149 30.76,31.149 17.39,0 30.74,-14.133 30.74,-30.918 l 0,-0.231 c 0,-16.723 -13.66,-30.891 -30.74,-30.891 -17.35,0 -30.76,13.879 -30.76,30.774"
         style="fill:#6a6a6f;fill-opacity:1;fill-rule:nonzero;stroke:none"
         id="path3431"
         inkscape:connector-curvature="0" /><path
         d="m 3568.95,264.48 c 3.07,0 4.95,1.661 4.95,4.184 l 0,0.145 c 0,2.793 -1.95,4.336 -5.18,4.336 l -6.65,0 0,-8.665 6.88,0 z m -13.31,11.25 c 0,1.75 1.33,3.313 3.27,3.313 l 10.25,0 c 3.92,0 6.87,-1.176 8.7,-3.09 1.82,-1.668 2.7,-3.988 2.7,-6.894 0,-4.762 -2.36,-7.598 -6.05,-9.024 l 4.65,-5.582 c 0.66,-0.996 1.06,-1.586 1.06,-2.539 0,-1.769 -1.62,-2.973 -3.18,-2.973 -1.49,0 -2.39,0.68 -3.14,1.696 l -6.34,7.894 -5.49,0 0,-6.371 c 0,-1.652 -1.21,-3.219 -3.16,-3.219 -1.94,0 -3.27,1.567 -3.27,3.219 l 0,23.57"
         style="fill:#6a6a6f;fill-opacity:1;fill-rule:nonzero;stroke:none"
         id="path3433"
         inkscape:connector-curvature="0" /><path
         d="m 1588.27,116.023 0,0.575 c 0,33.746 -23.18,55.238 -50.28,55.238 -26.56,0 -51.66,-22.434 -51.66,-55 l 0,-0.481 c 0,-33.1948 25.1,-55.3198 51.66,-55.3198 27.63,0 50.28,20.4687 50.28,54.9878 m -101.11,-43.6128 0,-27.4375 -21.3,0 0,201.7933 21.3,0 0,-87.571 c 11.62,17.035 28.44,31.703 54.71,31.703 34.23,0 68.27,-27.043 68.27,-74.062 l 0,-0.481 c 0,-46.7144 -33.75,-74.3745 -68.27,-74.3745 -26.53,0 -43.7,14.3554 -54.71,30.4297"
         style="fill:#6a6a6f;fill-opacity:1;fill-rule:nonzero;stroke:none"
         id="path3435"
         inkscape:connector-curvature="0" /><path
         d="m 1749.35,187.871 22.66,0 -59.98,-147.5312 C 1699.91,10.7305 1686.08,0 1664.51,0 c -11.88,0 -20.71,2.42188 -30.4,7.14453 l 7.22,16.89067 c 6.91,-3.6368 13.22,-5.25 22.39,-5.25 12.7,0 20.66,6.5859 29.23,26.7773 l -64.88,142.3085 23.44,0 52.01,-119.0546 45.83,119.0546"
         style="fill:#6a6a6f;fill-opacity:1;fill-rule:nonzero;stroke:none"
         id="path3437"
         inkscape:connector-curvature="0" /><path
         d="m 665.523,822.332 74.817,0 65.75,-214.941 71.187,215.847 59.86,0 71.193,-215.847 65.75,214.941 73.01,0 -108.37,-319.687 -60.771,0 -71.648,207.683 -71.641,-207.683 -60.765,0 -108.372,319.687"
         style="fill:#292827;fill-opacity:1;fill-rule:nonzero;stroke:none"
         id="path3439"
         inkscape:connector-curvature="0" /><path
         d="m 1320.75,637.77 -42.16,102.945 -42.18,-102.945 84.34,0 z m -73.45,186.832 64.39,0 136.03,-319.688 -73,0 -29.02,71.195 -134.23,0 -29.02,-71.195 -71.19,0 136.04,319.688"
         style="fill:#292827;fill-opacity:1;fill-rule:nonzero;stroke:none"
         id="path3441"
         inkscape:connector-curvature="0" /><path
         d="m 1405.09,822.332 77.09,0 82.98,-223.551 82.98,223.551 75.28,0 -128.33,-319.687 -61.68,0 -128.32,319.687"
         style="fill:#292827;fill-opacity:1;fill-rule:nonzero;stroke:none"
         id="path3443"
         inkscape:connector-curvature="0" /><path
         d="m 1758.3,822.332 239.41,0 0,-62.125 -170.04,0 0,-64.394 149.64,0 0,-62.114 -149.64,0 0,-66.664 172.31,0 0,-62.121 -241.68,0 0,317.418"
         style="fill:#292827;fill-opacity:1;fill-rule:nonzero;stroke:none"
         id="path3445"
         inkscape:connector-curvature="0" /><path
         d="m 2055.53,822.332 241.68,0 0,-63.488 -171.86,0 0,-67.555 151.46,0 0,-63.484 -151.46,0 0,-122.891 -69.82,0 0,317.418"
         style="fill:#292827;fill-opacity:1;fill-rule:nonzero;stroke:none"
         id="path3447"
         inkscape:connector-curvature="0" /><path
         d="m 2480.77,668.156 c 34.01,0 53.5,18.145 53.5,44.899 l 0,0.906 c 0,29.926 -20.85,45.336 -54.86,45.336 l -69.38,0 0,-91.141 70.74,0 z m -140.57,154.176 145.1,0 c 40.36,0 71.65,-11.34 92.51,-32.195 17.68,-17.68 27.21,-42.621 27.21,-72.547 l 0,-0.91 c 0,-51.25 -27.66,-83.434 -68.02,-98.403 l 77.53,-113.363 -81.61,0 -68.03,101.566 -54.86,0 0,-101.566 -69.83,0 0,317.418"
         style="fill:#292827;fill-opacity:1;fill-rule:nonzero;stroke:none"
         id="path3449"
         inkscape:connector-curvature="0" /><path
         d="m 2903.06,662.723 0,0.906 c 0,54.414 -39.9,99.758 -96.13,99.758 -56.23,0 -95.22,-44.442 -95.22,-98.864 l 0,-0.894 c 0,-54.426 39.9,-99.766 96.12,-99.766 56.23,0 95.23,44.434 95.23,98.86 z m -264.36,0 0,0.906 c 0,90.23 71.19,164.144 169.13,164.144 97.95,0 168.25,-73.011 168.25,-163.25 l 0,-0.894 c 0,-90.238 -71.2,-164.16 -169.15,-164.16 -97.94,0 -168.23,73.011 -168.23,163.254"
         style="fill:#292827;fill-opacity:1;fill-rule:nonzero;stroke:none"
         id="path3451"
         inkscape:connector-curvature="0" /><path
         d="m 3017.79,822.332 64.38,0 148.74,-195.437 0,195.437 68.93,0 0,-317.418 -59.41,0 -153.72,201.785 0,-201.785 -68.92,0 0,317.418"
         style="fill:#292827;fill-opacity:1;fill-rule:nonzero;stroke:none"
         id="path3453"
         inkscape:connector-curvature="0" /><path
         d="m 3433.19,757.941 -96.59,0 0,64.391 263,0 0,-64.391 -96.57,0 0,-253.027 -69.84,0 0,253.027"
         style="fill:#292827;fill-opacity:1;fill-rule:nonzero;stroke:none"
         id="path3455"
         inkscape:connector-curvature="0" /><path
         d="M 121.688,416.012 12.4102,388.496 C 6.10938,386.91 0,391.672 0,398.172 l 0,108.652 c 0,4.571 3.10547,8.559 7.53906,9.672 l 109.27694,27.52 c 6.301,1.586 12.411,-3.18 12.411,-9.672 l 0,-108.66 c 0,-4.571 -3.106,-8.555 -7.539,-9.672"
         style="fill:#51ace4;fill-opacity:1;fill-rule:nonzero;stroke:none"
         id="path3457"
         inkscape:connector-curvature="0" /><path
         d="M 121.688,580.348 12.4102,552.828 C 6.10938,551.242 0,556.008 0,562.5 l 0,237.887 c 0,4.57 3.10547,8.554 7.53906,9.672 L 116.816,837.574 c 6.301,1.586 12.411,-3.172 12.411,-9.672 l 0,-237.882 c 0,-4.571 -3.106,-8.559 -7.539,-9.672"
         style="fill:#51ace4;fill-opacity:1;fill-rule:nonzero;stroke:none"
         id="path3459"
         inkscape:connector-curvature="0" /><path
         d="m 286.023,421.711 -109.277,-27.52 c -6.301,-1.586 -12.414,3.18 -12.414,9.672 l 0,143.696 c 0,4.57 3.106,8.554 7.539,9.675 l 109.277,27.52 c 6.301,1.586 12.415,-3.18 12.415,-9.676 l 0,-143.695 c 0,-4.57 -3.106,-8.559 -7.54,-9.672"
         style="fill:#51ace4;fill-opacity:1;fill-rule:nonzero;stroke:none"
         id="path3461"
         inkscape:connector-curvature="0" /><path
         d="m 286.023,621.145 -109.277,-27.52 c -6.301,-1.59 -12.414,3.18 -12.414,9.672 l 0,202.781 c 0,4.574 3.106,8.559 7.539,9.676 l 109.277,27.519 c 6.301,1.586 12.415,-3.179 12.415,-9.671 l 0,-202.786 c 0,-4.57 -3.106,-8.558 -7.54,-9.671"
         style="fill:#51ace4;fill-opacity:1;fill-rule:nonzero;stroke:none"
         id="path3463"
         inkscape:connector-curvature="0" /><path
         d="M 450.352,498.18 341.074,470.664 c -6.297,-1.586 -12.406,3.176 -12.406,9.676 l 0,108.652 c 0,4.571 3.105,8.559 7.539,9.672 l 109.277,27.52 c 6.301,1.586 12.414,-3.18 12.414,-9.672 l 0,-108.66 c 0,-4.571 -3.113,-8.555 -7.546,-9.672"
         style="fill:#51ace4;fill-opacity:1;fill-rule:nonzero;stroke:none"
         id="path3465"
         inkscape:connector-curvature="0" /><path
         d="m 450.352,662.516 -109.278,-27.52 c -6.297,-1.586 -12.406,3.18 -12.406,9.672 l 0,237.883 c 0,4.574 3.105,8.558 7.539,9.676 l 109.277,27.515 c 6.301,1.586 12.414,-3.172 12.414,-9.672 l 0,-237.882 c 0,-4.571 -3.113,-8.559 -7.546,-9.672"
         style="fill:#51ace4;fill-opacity:1;fill-rule:nonzero;stroke:none"
         id="path3467"
         inkscape:connector-curvature="0" /><path
         d="m 3649.85,762.129 0,50.289 -18.79,0 0,6.723 45.19,0 0,-6.723 -18.87,0 0,-50.289 -7.53,0"
         style="fill:#211d1d;fill-opacity:1;fill-rule:nonzero;stroke:none"
         id="path3469"
         inkscape:connector-curvature="0" /><path
         d="m 3683.75,762.129 0,57.012 11.36,0 13.5,-40.364 c 1.25,-3.761 2.14,-6.574 2.72,-8.437 0.64,2.07 1.66,5.113 3.03,9.133 l 13.65,39.668 10.16,0 0,-57.012 -7.28,0 0,47.723 -16.56,-47.723 -6.81,0 -16.49,48.535 0,-48.535 -7.28,0"
         style="fill:#211d1d;fill-opacity:1;fill-rule:nonzero;stroke:none"
         id="path3471"
         inkscape:connector-curvature="0" /></g></g></svg>