<?xml version="1.0" encoding="UTF-8" standalone="no"?>
<svg
   xmlns:dc="http://purl.org/dc/elements/1.1/"
   xmlns:cc="http://creativecommons.org/ns#"
   xmlns:rdf="http://www.w3.org/1999/02/22-rdf-syntax-ns#"
   xmlns:svg="http://www.w3.org/2000/svg"
   xmlns="http://www.w3.org/2000/svg"
   viewBox="0 0 904.85315 157.81599"
   height="157.81599"
   width="904.85315"
   xml:space="preserve"
   id="svg2"
   version="1.1"><metadata
     id="metadata8"><rdf:RDF><cc:Work
         rdf:about=""><dc:format>image/svg+xml</dc:format><dc:type
           rdf:resource="http://purl.org/dc/dcmitype/StillImage" /><dc:title></dc:title></cc:Work></rdf:RDF></metadata><defs
     id="defs6" /><g
     transform="matrix(1.3333333,0,0,-1.3333333,-23.418799,157.816)"
     id="g10"><path
       d="m 48.9352,118.362 h -12.07 l -0.2996,-0.365 c -6.0515,-7.388 -10.7804,-16.43 -14.0613,-26.8829 -3.2809,-10.436 -4.9402,-21.284 -4.9402,-32.2422 0,-21.9727 6.3836,-41.6457 18.973,-58.468775 L 36.8395,0 H 48.902 L 47.8398,1.56719 C 35.7859,19.3211 29.6719,38.643 29.6719,58.9922 c 0,21.134 6.1101,40.5758 18.1597,57.7888 z M 143.625,91.1141 c -3.285,10.4609 -8.018,19.5039 -14.062,26.8829 l -0.299,0.365 h -12.07 l 1.103,-1.581 c 12.05,-17.213 18.16,-36.6548 18.16,-57.7888 0,-20.3492 -6.114,-39.6711 -18.168,-57.42501 L 117.227,0 h 12.063 l 0.302,0.403125 c 12.59,16.818775 18.973,36.491775 18.973,58.468775 0,10.9582 -1.659,21.8062 -4.94,32.2422 v 0"
       style="fill:#89cf25;fill-opacity:1;fill-rule:nonzero;stroke:none;stroke-width:0.1"
       id="path14" /><path
       d="m 264.887,89.2492 c 13.704,0 18.654,-9.5152 18.654,-22.0773 V 39.3832 h 8.248 V 27.8359 h -35.276 v 11.5473 h 5.583 v 26.0117 c 0,3.8071 -0.762,6.725 -2.537,8.502 -1.142,1.1402 -2.666,1.7773 -4.823,1.7773 -4.822,0 -9.136,-5.457 -9.136,-12.6902 V 39.3832 h 5.33 V 27.8359 h -32.356 v 11.5473 h 5.583 v 26.0117 c 0,3.8071 -0.762,6.725 -2.537,8.502 -1.143,1.1402 -2.664,1.7773 -4.822,1.7773 -4.822,0 -9.136,-5.457 -9.136,-12.6902 V 39.3832 h 5.329 V 27.8359 h -35.148 v 11.5473 h 8.374 v 36.925 h -8.374 v 11.5469 h 28.295 V 71.8672 c 3.173,9.516 9.39,17.382 20.812,17.382 10.911,0 16.112,-6.5972 17.636,-16.114 3.3,9.0097 9.39,16.114 20.301,16.114 v 0"
       style="fill:#393536;fill-opacity:1;fill-rule:nonzero;stroke:none;stroke-width:0.1"
       id="path16" /><path
       d="m 296.481,42.5539 c 0,3.9352 1.651,7.6141 4.188,10.1512 3.553,3.5539 9.516,6.4719 26.011,8.6301 6.726,0.8867 6.979,1.0148 6.979,2.157 v 4.9476 c 0,7.6153 -3.553,10.5321 -10.531,10.5321 -2.158,0 -4.695,-0.3809 -6.726,-1.268 1.778,-1.5238 2.791,-3.5539 2.791,-6.5988 0,-4.6949 -4.313,-8.1211 -9.77,-8.1211 -7.105,0 -10.404,4.441 -10.404,9.6441 0,11.5469 14.719,16.6211 29.945,16.6211 19.923,0 25.758,-9.6422 25.758,-22.0773 V 41.1602 c 0,-2.7922 1.27,-3.3012 2.792,-3.3012 1.269,0 2.664,1.2711 3.68,6.3469 l 6.978,-1.7778 c -2.155,-11.0383 -6.978,-15.9883 -16.748,-15.9883 -7.994,0 -13.959,4.0614 -15.354,13.5774 h -0.634 C 331.248,29.7391 324.523,26.4398 315.26,26.4398 c -10.531,0 -18.779,6.0911 -18.779,16.1141 z m 37.178,9.391 v 4.061 c -1.142,-0.2539 -2.537,-0.3809 -5.71,-1.0149 -7.612,-1.3961 -9.896,-4.823 -9.896,-9.6449 0,-3.552 2.028,-6.9781 7.232,-6.9781 5.583,0 8.374,5.4562 8.374,13.5769 v 0"
       style="fill:#393536;fill-opacity:1;fill-rule:nonzero;stroke:none;stroke-width:0.1"
       id="path18" /><path
       d="M 397.103,103.461 V 87.2191 h 19.032 V 76.3082 H 397.103 V 48.1379 c 0,-5.3289 1.904,-8.502 5.836,-8.502 3.935,0 5.328,2.918 7.486,11.675 l 8.376,-2.03 c -2.538,-15.861 -8.63,-22.8411 -22.078,-22.8411 -14.211,0 -21.065,7.1063 -21.065,22.4602 v 27.4082 h -10.15 v 10.9109 h 10.785 v 13.7049 l 20.81,2.537 v 0"
       style="fill:#393536;fill-opacity:1;fill-rule:nonzero;stroke:none;stroke-width:0.1"
       id="path20" /><path
       d="M 451.157,103.461 V 87.2191 h 19.032 V 76.3082 H 451.157 V 48.1379 c 0,-5.3289 1.904,-8.502 5.837,-8.502 3.934,0 5.328,2.918 7.485,11.675 l 8.374,-2.03 c -2.535,-15.861 -8.627,-22.8411 -22.076,-22.8411 -14.213,0 -21.065,7.1063 -21.065,22.4602 v 27.4082 h -10.151 v 10.9109 h 10.787 v 13.7049 l 20.809,2.537 v 0"
       style="fill:#393536;fill-opacity:1;fill-rule:nonzero;stroke:none;stroke-width:0.1"
       id="path22" /><path
       d="m 499.628,54.7359 c 0.762,-13.5757 5.961,-17.13 14.844,-17.13 6.979,0 11.167,2.9183 13.451,10.1511 h 11.42 c -1.904,-12.434 -9.896,-21.3172 -28.168,-21.3172 -20.558,0 -33.499,12.0543 -33.499,30.8344 0,18.4 13.831,31.975 32.355,31.975 21.191,0 31.216,-13.575 30.074,-34.5133 z m 0,8.7563 h 19.792 c -0.507,12.6879 -3.679,16.368 -9.641,16.368 -5.838,0 -9.518,-3.9332 -10.151,-16.368 v 0"
       style="fill:#393536;fill-opacity:1;fill-rule:nonzero;stroke:none;stroke-width:0.1"
       id="path24" /><path
       d="m 547.082,39.3832 h 8.374 v 36.925 h -8.374 v 11.5469 h 28.294 v -16.116 c 3.808,11.5468 10.407,17.5101 19.163,17.5101 7.739,0 12.816,-5.9633 12.816,-12.4351 0,-7.1051 -4.824,-12.0532 -10.914,-12.0532 -6.09,0 -10.658,3.4262 -10.658,9.6422 0,0.1278 0.127,0.3809 0.127,0.509 -2.411,-0.509 -6.726,-3.173 -9.01,-10.2789 v -25.25 h 11.04 V 27.8359 h -40.858 v 11.5473 0"
       style="fill:#393536;fill-opacity:1;fill-rule:nonzero;stroke:none;stroke-width:0.1"
       id="path26" /><path
       d="m 610.905,48.5191 h 10.66 c 5.964,-7.4871 13.324,-12.4339 20.05,-12.4339 4.695,0 6.85,1.9019 6.85,5.075 0,4.3136 -2.917,5.9628 -14.971,8.8808 -14.339,3.5539 -21.827,8.1211 -21.827,19.2871 0,10.9129 8.503,19.9211 22.334,19.9211 8.374,0 14.211,-3.0433 18.272,-7.4851 l 2.282,7.232 h 10.913 V 68.4398 H 654.81 c -4.95,6.5973 -11.926,11.4204 -17.765,11.4204 -5.075,0 -6.724,-2.1563 -6.724,-5.0762 0,-3.9328 3.044,-5.2008 14.593,-8.1211 12.814,-3.2981 22.585,-7.4859 22.585,-20.0481 0,-10.9109 -8.121,-20.175 -23.22,-20.175 -10.025,0 -16.37,4.1883 -20.303,8.5024 l -2.284,-8.2492 h -10.787 v 21.8261 0"
       style="fill:#393536;fill-opacity:1;fill-rule:nonzero;stroke:none;stroke-width:0.1"
       id="path28" /><path
       d="m 116.17,46.2969 -4.19,2.2179 -0.843,0.4524 -0.234,-0.4203 -0.234,-0.4168 c -4.863,-8.6582 -8.054,-10.477 -9.874,-10.477 -1.2977,0 -2.4544,1.5949 -3.6391,5.0129 L 90.527,62.202 c 1.1488,1.805 2.1894,3.4722 3.1328,4.991 l 0.2414,0.3851 c 3.3183,5.327 6.1868,9.927 7.5048,9.927 0.105,-0.0039 0.317,-0.1051 0.345,-0.1653 1.76,-3.8839 3.495,-6.8578 8.417,-6.8578 5.062,0 8.738,3.986 8.738,9.4782 0,5.5839 -4.203,9.4796 -10.216,9.4796 -8.144,0 -14.0416,-6.8039 -21.3005,-18.6078 l -0.2766,0.8532 c -3.2594,10.3078 -5.6137,17.7546 -14.8008,17.7546 -8.1187,0 -14.7484,-6.3976 -19.1633,-18.5117 l -0.1363,-0.3652 -0.1367,-0.3649 0.3301,-0.214 0.3211,-0.2039 3.9484,-2.591 0.4906,-0.3219 0.4942,-0.3242 0.2246,0.541 0.225,0.5379 c 2.8164,6.666 4.9371,9.6422 6.866,9.6422 1.2332,0 2.1336,-2.318 3.0246,-4.902 L 75.807,52.0629 C 68.3305,38.957 65.6992,37.532 64.9121,37.532 c -0.1133,0.0039 -0.3898,0.245 -0.4586,0.4039 l -0.393,0.9129 c -1.5351,3.5723 -2.9851,6.941 -8.3925,6.941 -5.0539,0 -8.8629,-4.0187 -8.8629,-9.3578 0,-6.014 4.7094,-10.216 11.4547,-10.216 8.8699,0 13.9562,6.6942 20.4601,16.9942 l 0.1809,-0.518 C 82.6164,32.0648 84.6613,26.216 93.3957,26.216 c 8.3323,0 16.7753,6.8391 23.1753,18.761 l 0.233,0.4281 0.234,0.4359 -0.435,0.2281 -0.433,0.2278 v 0"
       style="fill:#89cf25;fill-opacity:1;fill-rule:nonzero;stroke:none;stroke-width:0.1"
       id="path30" /><path
       d="m 688.542,104.276 c 4.168,0 7.662,-3.289 7.662,-7.6041 0,-4.3938 -3.494,-7.684 -7.662,-7.684 -4.192,0 -7.707,3.2902 -7.707,7.684 0,4.3151 3.515,7.6041 7.707,7.6041 z m 0,-14.1631 c 3.532,0 6.273,2.8191 6.273,6.559 0,3.6601 -2.741,6.4791 -6.273,6.4791 -3.575,0 -6.315,-2.819 -6.315,-6.4791 0,-3.7399 2.74,-6.559 6.315,-6.559 z m -2.982,10.9961 h 3.448 c 2.131,0 3.127,-0.839 3.127,-2.5578 0,-1.6114 -1.016,-2.2871 -2.347,-2.4301 l 2.558,-3.9449 h -1.494 l -2.433,3.8457 h -1.474 v -3.8457 h -1.385 z m 1.385,-3.966 h 1.45 c 1.228,0 2.358,0.064 2.358,1.4711 0,1.1871 -1.025,1.3699 -1.966,1.3699 h -1.842 v -2.841 0"
       style="fill:#393536;fill-opacity:1;fill-rule:nonzero;stroke:none;stroke-width:0.1"
       id="path32" /></g></svg>